{
.appVersion = "1357";
DisplayStrings = (
"li/_part.bowl fting\012Redditor\012dashucam\012st\"'/quotedblleft/quoteright t.;:,/quoteleft/quoteright *S/s.001 CGO",
"beginning\012natural\012ounght",
a,
"m/idotless isdeeds\012\012VGHHOCNMABBOTAFAR",
"N/Eng",
"HnoftOt3o/_part.bowl bdqptong2538/space 4t",
"AÆBCDEFGHIJKLMN/Eng O/OE EPÞQRS/Germandbls/Schwa TUVWXYZ",
"std/_part.bowl boash"
);
classes = (
{
automatic = 1;

glyphs = (
{
glyphname = A;
lastChange = "2021-11-21 08:00:48 +0000";
layers = (
{
anchors = (
{
name = bottom;
position = "{578, 0}";
},
{
name = ogonek;
position = "{1104, 0}";
},
{
name = top;
position = "{578, 1474}";
}
);
guideLines = (
{
angle = 67.5;
position = "{-56, -200}";
}
);
layerId = "AB099EFE-E788-4EFC-8633-CF147CB782A6";
paths = (
{
closed = 1;
nodes = (
"52 0 LINE",
"118 0 LINE",
"282 496 LINE",
"292 518 LINE",
"574 1366 LINE",
"582 1366 LINE",
"864 518 LINE",
"874 496 LINE",
"1038 0 LINE",
"1104 0 LINE",
"604 1474 LINE",
"552 1474 LINE"
);
},
{
closed = 1;
nodes = (
"252 476 LINE",
"904 476 LINE",
"904 536 LINE",
"252 536 LINE"
);
}
);
width = 1156;
},
{
anchors = (
{
name = bottom;
position = "{650, 0}";
},
{
name = ogonek;
position = "{1316, 0}";
},
{
name = top;
position = "{650, 1474}";
}
);
guideLines = (
{
angle = 67.5;
position = "{-98, -200}";
}
);
layerId = "2D8F7115-C311-411E-929D-56333CF7FFB2";
paths = (
{
closed = 1;
nodes = (
"-16 0 LINE",
"376 0 LINE",
"476 360 LINE",
"494 504 LINE",
"648 1032 LINE",
"652 1032 LINE",
"806 504 LINE",
"824 360 LINE",
"922 0 LINE",
"1316 0 LINE",
"810 1474 LINE",
"490 1474 LINE"
);
},
{
closed = 1;
nodes = (
"308 270 LINE",
"990 270 LINE",
"990 570 LINE",
"308 570 LINE"
);
}
);
width = 1300;
},
{
anchors = (
{
name = bottom;
position = "{608, 0}";
},
{
name = ogonek;
position = "{1194, 0}";
},
{
name = top;
position = "{608, 1474}";
}
);
layerId = "FD1CEFBD-BAB1-4C2A-A598-30E93F9A29F6";
paths = (
{
closed = 1;
nodes = (
"24 0 LINE",
"210 0 LINE",
"356 442 LINE",
"376 504 LINE",
"604 1220 LINE",
"612 1220 LINE",
"840 504 LINE",
"862 442 LINE",
"1008 0 LINE",
"1192 0 LINE",
"680 1474 LINE",
"536 1474 LINE"
);
},
{
closed = 1;
nodes = (
"272 390 LINE",
"944 390 LINE",
"944 550 LINE",
"272 550 LINE"
);
}
);
width = 1216;
}
);
leftKerningGroup = LAT_A_UC;
rightKerningGroup = LAT_A_UC;
unicode = 0041;
},
{
glyphname = AE;
lastChange = "2021-11-21 07:46:37 +0000";
layers = (
{
anchors = (
{
name = bottom;
position = "{960, 0}";
},
{
name = top;
position = "{988, 1474}";
}
);
layerId = "AB099EFE-E788-4EFC-8633-CF147CB782A6";
paths = (
{
closed = 1;
nodes = (
"28 0 LINE",
"96 0 LINE",
"334 496 LINE",
"754 1390 LINE",
"798 1390 LINE",
"788 1474 LINE",
"736 1474 LINE"
);
},
{
closed = 1;
nodes = (
"306 476 LINE",
"848 476 LINE",
"848 536 LINE",
"306 536 LINE"
);
},
{
closed = 1;
nodes = (
"814 1414 LINE",
"1472 1414 LINE",
"1472 1474 LINE",
"750 1474 LINE",
"822 500 LINE",
"860 0 LINE",
"1472 0 LINE",
"1472 60 LINE",
"914 60 LINE"
);
},
{
closed = 1;
nodes = (
"1388 726 LINE",
"1388 786 LINE",
"846 786 LINE",
"854 726 LINE"
);
}
);
width = 1604;
},
{
anchors = (
{
name = bottom;
position = "{960, 0}";
},
{
name = top;
position = "{952, 1474}";
}
);
background = {
components = (
{
name = A;
transform = "{1, 0, 0.03492, 1, -8, 0}";
}
);
};
layerId = "2D8F7115-C311-411E-929D-56333CF7FFB2";
paths = (
{
closed = 1;
nodes = (
"-12 0 LINE",
"372 0 LINE",
"534 480 LINE",
"728 1156 LINE",
"760 1156 LINE",
"746 1474 LINE",
"538 1474 LINE"
);
},
{
closed = 1;
nodes = (
"352 270 LINE",
"962 270 LINE",
"962 570 LINE",
"352 570 LINE"
);
},
{
closed = 1;
nodes = (
"1072 1146 LINE",
"1488 1146 LINE",
"1488 1474 LINE",
"738 1474 LINE",
"770 450 LINE",
"786 0 LINE",
"1488 0 LINE",
"1488 328 LINE",
"1102 328 LINE"
);
},
{
closed = 1;
nodes = (
"1416 586 LINE",
"1416 902 LINE",
"1052 902 LINE",
"1072 586 LINE"
);
}
);
width = 1556;
},
{
anchors = (
{
name = bottom;
position = "{962, 0}";
},
{
name = top;
position = "{978, 1474}";
}
);
layerId = "FD1CEFBD-BAB1-4C2A-A598-30E93F9A29F6";
paths = (
{
closed = 1;
nodes = (
"16 0 LINE",
"200 0 LINE",
"408 492 LINE",
"750 1306 LINE",
"786 1306 LINE",
"776 1474 LINE",
"666 1474 LINE"
);
},
{
closed = 1;
nodes = (
"324 390 LINE",
"902 390 LINE",
"902 550 LINE",
"324 550 LINE"
);
},
{
closed = 1;
nodes = (
"912 1314 LINE",
"1480 1314 LINE",
"1480 1474 LINE",
"750 1474 LINE",
"806 484 LINE",
"832 0 LINE",
"1480 0 LINE",
"1480 160 LINE",
"984 160 LINE"
);
},
{
closed = 1;
nodes = (
"1404 670 LINE",
"1404 830 LINE",
"924 830 LINE",
"938 670 LINE"
);
}
);
width = 1588;
}
);
leftKerningGroup = LAT_AE_UC;
rightKerningGroup = LAT_E_UC;
rightMetricsKey = E;
unicode = 00C6;
},
{
glyphname = B;
lastChange = "2021-11-21 07:46:37 +0000";
layers = (
{
anchors = (
{
name = bottom;
position = "{516, 0}";
},
{
name = center;
position = "{220, 422}";
},
{
name = top;
position = "{512, 1474}";
}
);
layerId = "AB099EFE-E788-4EFC-8633-CF147CB782A6";
paths = (
{
closed = 1;
nodes = (
"534 0 LINE SMOOTH",
"784 0 OFFCURVE",
"948 156 OFFCURVE",
"948 390 CURVE SMOOTH",
"948 590 OFFCURVE",
"830 734 OFFCURVE",
"648 770 CURVE",
"652 758 LINE",
"780 816 OFFCURVE",
"854 944 OFFCURVE",
"854 1104 CURVE SMOOTH",
"854 1322 OFFCURVE",
"716 1474 OFFCURVE",
"498 1474 CURVE SMOOTH",
"208 1474 LINE",
"208 1414 LINE",
"498 1414 LINE SMOOTH",
"676 1414 OFFCURVE",
"790 1290 OFFCURVE",
"790 1098 CURVE SMOOTH",
"790 914 OFFCURVE",
"674 786 OFFCURVE",
"520 786 CURVE SMOOTH",
"208 786 LINE",
"208 726 LINE",
"516 726 LINE SMOOTH",
"738 726 OFFCURVE",
"884 598 OFFCURVE",
"884 392 CURVE SMOOTH",
"884 192 OFFCURVE",
"746 60 OFFCURVE",
"534 60 CURVE SMOOTH",
"238 60 LINE",
"238 0 LINE"
);
},
{
closed = 1;
nodes = (
"246 0 LINE",
"246 1474 LINE",
"182 1474 LINE",
"182 0 LINE"
);
}
);
width = 1068;
},
{
anchors = (
{
name = bottom;
position = "{614, 0}";
},
{
name = center;
position = "{286, 462}";
},
{
name = top;
position = "{536, 1474}";
}
);
layerId = "2D8F7115-C311-411E-929D-56333CF7FFB2";
paths = (
{
closed = 1;
nodes = (
"716 0 LINE SMOOTH",
"966 0 OFFCURVE",
"1136 182 OFFCURVE",
"1136 424 CURVE SMOOTH",
"1136 620 OFFCURVE",
"1026 768 OFFCURVE",
"824 806 CURVE",
"812 716 LINE",
"946 768 OFFCURVE",
"1050 922 OFFCURVE",
"1050 1094 CURVE SMOOTH",
"1050 1322 OFFCURVE",
"866 1474 OFFCURVE",
"598 1474 CURVE SMOOTH",
"448 1474 LINE",
"448 1154 LINE",
"576 1154 LINE SMOOTH",
"648 1154 OFFCURVE",
"706 1098 OFFCURVE",
"706 1018 CURVE SMOOTH",
"706 936 OFFCURVE",
"648 880 OFFCURVE",
"576 880 CURVE SMOOTH",
"448 880 LINE",
"448 610 LINE",
"640 610 LINE SMOOTH",
"716 610 OFFCURVE",
"774 556 OFFCURVE",
"774 468 CURVE SMOOTH",
"774 384 OFFCURVE",
"722 320 OFFCURVE",
"640 320 CURVE SMOOTH",
"442 320 LINE",
"442 0 LINE"
);
},
{
closed = 1;
nodes = (
"468 0 LINE",
"468 1474 LINE",
"100 1474 LINE",
"100 0 LINE"
);
}
);
width = 1180;
},
{
anchors = (
{
name = bottom;
position = "{546, 0}";
},
{
name = center;
position = "{238, 426}";
},
{
name = top;
position = "{532, 1474}";
}
);
hints = (
{
horizontal = 1;
origin = "{0, 22}";
type = Delta;
settings = {
deltaV = {
"{100, 370, 0, 0, 0, 0}" = {
"12" = -1;
};
};
};
},
{
horizontal = 1;
origin = "{0, 23}";
type = Delta;
settings = {
deltaV = {
"{100, 370, 0, 0, 0, 0}" = {
"12" = -1;
};
};
};
},
{
horizontal = 1;
origin = "{0, 24}";
type = Delta;
settings = {
deltaV = {
"{100, 370, 0, 0, 0, 0}" = {
"12" = -1;
};
};
};
},
{
horizontal = 1;
origin = "{0, 25}";
type = Delta;
settings = {
deltaV = {
"{100, 370, 0, 0, 0, 0}" = {
"12" = -1;
};
};
};
},
{
horizontal = 1;
origin = "{0, 23, 1, 1}";
type = Delta;
settings = {
deltaV = {
"{100, 370, 0, 0, 0, 0}" = {
"12" = -1;
};
};
};
},
{
horizontal = 1;
origin = "{0, 25, 1, 1}";
type = Delta;
settings = {
deltaV = {
"{100, 370, 0, 0, 0, 0}" = {
"12" = -1;
};
};
};
}
);
layerId = "FD1CEFBD-BAB1-4C2A-A598-30E93F9A29F6";
paths = (
{
closed = 1;
nodes = (
"568 0 LINE SMOOTH",
"830 0 OFFCURVE",
"1000 162 OFFCURVE",
"1000 400 CURVE SMOOTH",
"1000 594 OFFCURVE",
"898 744 OFFCURVE",
"718 794 CURVE",
"718 750 LINE",
"838 800 OFFCURVE",
"918 940 OFFCURVE",
"918 1100 CURVE SMOOTH",
"918 1330 OFFCURVE",
"750 1474 OFFCURVE",
"496 1474 CURVE SMOOTH",
"292 1474 LINE",
"292 1314 LINE",
"500 1314 LINE SMOOTH",
"648 1314 OFFCURVE",
"746 1224 OFFCURVE",
"746 1072 CURVE SMOOTH",
"746 928 OFFCURVE",
"654 828 OFFCURVE",
"514 828 CURVE SMOOTH",
"292 828 LINE",
"292 672 LINE",
"554 672 LINE SMOOTH",
"718 672 OFFCURVE",
"828 572 OFFCURVE",
"828 416 CURVE SMOOTH",
"828 264 OFFCURVE",
"728 160 OFFCURVE",
"574 160 CURVE SMOOTH",
"310 160 LINE",
"310 0 LINE"
);
},
{
closed = 1;
nodes = (
"324 0 LINE",
"324 1474 LINE",
"152 1474 LINE",
"152 0 LINE"
);
}
);
width = 1092;
}
);
leftKerningGroup = LAT_H_UC;
leftMetricsKey = H;
rightKerningGroup = LAT_B_UC;
unicode = 0042;
},
{
glyphname = C;
lastChange = "2021-11-21 07:46:37 +0000";
layers = (
{
anchors = (
{
name = base;
position = "{740, 0}";
},
{
name = bottom;
position = "{706, 0}";
},
{
name = cedilla;
position = "{708, 0}";
},
{
name = top;
position = "{706, 1474}";
}
);
guideLines = (
{
angle = 112.5;
position = "{866, 740}";
},
{
angle = 67.5;
position = "{866, 740}";
}
);
layerId = "AB099EFE-E788-4EFC-8633-CF147CB782A6";
paths = (
{
closed = 1;
nodes = (
"828 -16 OFFCURVE",
"980 50 OFFCURVE",
"1076 156 CURVE",
"1048 220 LINE",
"968 110 OFFCURVE",
"826 44 OFFCURVE",
"684 44 CURVE SMOOTH",
"376 44 OFFCURVE",
"176 316 OFFCURVE",
"176 736 CURVE SMOOTH",
"176 1157 OFFCURVE",
"378 1430 OFFCURVE",
"690 1430 CURVE SMOOTH",
"828 1430 OFFCURVE",
"966 1368 OFFCURVE",
"1046 1272 CURVE",
"1072 1336 LINE",
"980 1426 OFFCURVE",
"836 1490 OFFCURVE",
"686 1490 CURVE SMOOTH",
"338 1490 OFFCURVE",
"112 1194 OFFCURVE",
"112 736 CURVE SMOOTH",
"112 279 OFFCURVE",
"334 -16 OFFCURVE",
"678 -16 CURVE SMOOTH"
);
}
);
width = 1160;
},
{
anchors = (
{
name = base;
position = "{708, 0}";
},
{
name = bottom;
position = "{704, 0}";
},
{
name = cedilla;
position = "{728, 0}";
},
{
name = top;
position = "{692, 1474}";
}
);
guideLines = (
{
angle = 112.5;
position = "{838, 740}";
},
{
angle = 67.5;
position = "{838, 740}";
}
);
layerId = "2D8F7115-C311-411E-929D-56333CF7FFB2";
paths = (
{
closed = 1;
nodes = (
"858 -16 OFFCURVE",
"994 18 OFFCURVE",
"1108 90 CURVE",
"972 418 LINE",
"926 358 OFFCURVE",
"830 320 OFFCURVE",
"734 320 CURVE SMOOTH",
"529 320 OFFCURVE",
"396 485 OFFCURVE",
"396 740 CURVE SMOOTH",
"396 991 OFFCURVE",
"523 1154 OFFCURVE",
"720 1154 CURVE SMOOTH",
"814 1154 OFFCURVE",
"910 1120 OFFCURVE",
"964 1052 CURVE",
"1100 1380 LINE",
"986 1454 OFFCURVE",
"850 1490 OFFCURVE",
"704 1490 CURVE SMOOTH",
"294 1490 OFFCURVE",
"28 1195 OFFCURVE",
"28 740 CURVE SMOOTH",
"28 281 OFFCURVE",
"300 -16 OFFCURVE",
"720 -16 CURVE SMOOTH"
);
}
);
width = 1140;
},
{
anchors = (
{
name = base;
position = "{732, 0}";
},
{
name = bottom;
position = "{706, 0}";
},
{
name = cedilla;
position = "{718, 0}";
},
{
name = top;
position = "{704, 1474}";
}
);
guideLines = (
{
angle = 112.5;
position = "{868, 740}";
},
{
angle = 67.5;
position = "{868, 740}";
}
);
layerId = "FD1CEFBD-BAB1-4C2A-A598-30E93F9A29F6";
paths = (
{
closed = 1;
nodes = (
"846 -16 OFFCURVE",
"1004 42 OFFCURVE",
"1108 136 CURVE",
"1038 302 LINE",
"964 210 OFFCURVE",
"840 144 OFFCURVE",
"716 144 CURVE SMOOTH",
"436 144 OFFCURVE",
"256 380 OFFCURVE",
"256 738 CURVE SMOOTH",
"256 1096 OFFCURVE",
"440 1330 OFFCURVE",
"726 1330 CURVE SMOOTH",
"842 1330 OFFCURVE",
"966 1274 OFFCURVE",
"1038 1192 CURVE",
"1106 1356 LINE",
"1010 1436 OFFCURVE",
"850 1490 OFFCURVE",
"712 1490 CURVE SMOOTH",
"328 1490 OFFCURVE",
"80 1194 OFFCURVE",
"80 738 CURVE SMOOTH",
"80 280 OFFCURVE",
"326 -16 OFFCURVE",
"704 -16 CURVE SMOOTH"
);
}
);
width = 1174;
}
);
leftKerningGroup = LAT_O_UC;
leftMetricsKey = O;
rightKerningGroup = LAT_C_UC;
unicode = 0043;
},
{
glyphname = D;
lastChange = "2021-11-21 07:46:37 +0000";
layers = (
{
anchors = (
{
name = bottom;
position = "{608, 0}";
},
{
name = center;
position = "{212, 758}";
},
{
name = top;
position = "{606, 1474}";
}
);
layerId = "AB099EFE-E788-4EFC-8633-CF147CB782A6";
paths = (
{
closed = 1;
nodes = (
"182 0 LINE",
"532 0 LINE SMOOTH",
"914 0 OFFCURVE",
"1136 298 OFFCURVE",
"1136 746 CURVE SMOOTH",
"1136 1192 OFFCURVE",
"914 1474 OFFCURVE",
"532 1474 CURVE SMOOTH",
"182 1474 LINE"
);
},
{
closed = 1;
nodes = (
"246 60 LINE",
"246 1414 LINE",
"526 1414 LINE SMOOTH",
"872 1414 OFFCURVE",
"1072 1158 OFFCURVE",
"1072 746 CURVE SMOOTH",
"1072 336 OFFCURVE",
"874 60 OFFCURVE",
"526 60 CURVE SMOOTH"
);
}
);
width = 1248;
},
{
anchors = (
{
name = bottom;
position = "{586, 0}";
},
{
name = center;
position = "{300, 738}";
},
{
name = top;
position = "{590, 1474}";
}
);
layerId = "2D8F7115-C311-411E-929D-56333CF7FFB2";
paths = (
{
closed = 1;
nodes = (
"100 0 LINE",
"576 0 LINE SMOOTH",
"968 0 OFFCURVE",
"1236 308 OFFCURVE",
"1236 740 CURVE SMOOTH",
"1236 1182 OFFCURVE",
"954 1474 OFFCURVE",
"546 1474 CURVE SMOOTH",
"100 1474 LINE"
);
},
{
closed = 1;
nodes = (
"468 328 LINE",
"468 1146 LINE",
"590 1146 LINE SMOOTH",
"756 1146 OFFCURVE",
"868 982 OFFCURVE",
"868 742 CURVE SMOOTH",
"868 500 OFFCURVE",
"756 328 OFFCURVE",
"590 328 CURVE SMOOTH"
);
}
);
width = 1264;
},
{
anchors = (
{
name = bottom;
position = "{600, 0}";
},
{
name = center;
position = "{242, 750}";
},
{
name = top;
position = "{600, 1474}";
}
);
layerId = "FD1CEFBD-BAB1-4C2A-A598-30E93F9A29F6";
paths = (
{
closed = 1;
nodes = (
"152 0 LINE",
"544 0 LINE SMOOTH",
"914 0 OFFCURVE",
"1176 304 OFFCURVE",
"1176 750 CURVE SMOOTH",
"1176 1180 OFFCURVE",
"910 1476 OFFCURVE",
"532 1476 CURVE SMOOTH",
"152 1476 LINE"
);
},
{
closed = 1;
nodes = (
"328 160 LINE",
"328 1316 LINE",
"534 1316 LINE SMOOTH",
"818 1316 OFFCURVE",
"1000 1086 OFFCURVE",
"1000 750 CURVE SMOOTH",
"1000 400 OFFCURVE",
"818 160 OFFCURVE",
"534 160 CURVE SMOOTH"
);
}
);
width = 1256;
}
);
leftKerningGroup = LAT_H_UC;
leftMetricsKey = H;
rightKerningGroup = LAT_O_UC;
rightMetricsKey = O;
unicode = 0044;
},
{
glyphname = E;
lastChange = "2021-11-21 07:46:37 +0000";
layers = (
{
anchors = (
{
name = bottom;
position = "{528, 0}";
},
{
name = cedilla;
position = "{518, 0}";
},
{
name = ogonek;
position = "{854, 0}";
},
{
name = top;
position = "{518, 1474}";
},
{
name = topleft;
position = "{40, 1474}";
}
);
hints = (
{
horizontal = 1;
origin = "{0, 0}";
target = "{0, 3}";
type = TTStem;
options = 4;
},
{
horizontal = 1;
origin = "{0, 4}";
target = "{0, 7}";
type = TTStem;
options = 1;
},
{
horizontal = 1;
origin = "{0, 11}";
target = "{0, 8}";
type = TTStem;
options = 4;
},
{
horizontal = 1;
origin = "{0, 5}";
type = Anchor;
options = 1;
},
{
horizontal = 1;
origin = "{0, 4}";
type = Anchor;
options = 1;
},
{
horizontal = 1;
origin = "{0, 5}";
type = Anchor;
options = 1;
},
{
horizontal = 1;
origin = "{0, 6}";
type = Anchor;
options = 1;
},
{
horizontal = 1;
origin = "{0, 7}";
type = Anchor;
options = 1;
}
);
layerId = "AB099EFE-E788-4EFC-8633-CF147CB782A6";
paths = (
{
closed = 1;
nodes = (
"182 0 LINE",
"854 0 LINE",
"854 60 LINE",
"246 60 LINE",
"246 726 LINE",
"774 726 LINE",
"774 786 LINE",
"246 786 LINE",
"246 1414 LINE",
"854 1414 LINE",
"854 1474 LINE",
"182 1474 LINE"
);
}
);
width = 986;
},
{
anchors = (
{
name = bottom;
position = "{516, 0}";
},
{
name = cedilla;
position = "{516, 0}";
},
{
name = ogonek;
position = "{900, 0}";
},
{
name = top;
position = "{516, 1474}";
},
{
name = topleft;
position = "{12, 1474}";
}
);
hints = (
{
horizontal = 1;
origin = "{0, 0}";
target = "{0, 3}";
type = TTStem;
options = 4;
},
{
horizontal = 1;
origin = "{0, 4}";
target = "{0, 7}";
type = TTStem;
options = 1;
},
{
horizontal = 1;
origin = "{0, 11}";
target = "{0, 8}";
type = TTStem;
options = 4;
},
{
horizontal = 1;
origin = "{0, 5}";
type = Anchor;
options = 1;
},
{
horizontal = 1;
origin = "{0, 4}";
type = Anchor;
options = 1;
},
{
horizontal = 1;
origin = "{0, 5}";
type = Anchor;
options = 1;
},
{
horizontal = 1;
origin = "{0, 6}";
type = Anchor;
options = 1;
},
{
horizontal = 1;
origin = "{0, 7}";
type = Anchor;
options = 1;
}
);
layerId = "2D8F7115-C311-411E-929D-56333CF7FFB2";
paths = (
{
closed = 1;
nodes = (
"100 0 LINE",
"904 0 LINE",
"904 328 LINE",
"468 328 LINE",
"468 586 LINE",
"830 586 LINE",
"830 902 LINE",
"468 902 LINE",
"468 1146 LINE",
"904 1146 LINE",
"904 1474 LINE",
"100 1474 LINE"
);
}
);
width = 972;
},
{
anchors = (
{
name = bottom;
position = "{518, 0}";
},
{
name = cedilla;
position = "{510, 0}";
},
{
name = ogonek;
position = "{854, 0}";
},
{
name = top;
position = "{510, 1474}";
},
{
name = topleft;
position = "{34, 1474}";
}
);
hints = (
{
horizontal = 1;
origin = "{0, 0}";
target = "{0, 3}";
type = TTStem;
options = 4;
},
{
horizontal = 1;
origin = "{0, 4}";
target = "{0, 7}";
type = TTStem;
options = 1;
},
{
horizontal = 1;
origin = "{0, 11}";
target = "{0, 8}";
type = TTStem;
options = 4;
},
{
horizontal = 1;
origin = "{0, 5}";
type = Anchor;
options = 1;
},
{
horizontal = 1;
origin = "{0, 4}";
type = Anchor;
options = 1;
},
{
horizontal = 1;
origin = "{0, 5}";
type = Anchor;
options = 1;
},
{
horizontal = 1;
origin = "{0, 6}";
type = Anchor;
options = 1;
},
{
horizontal = 1;
origin = "{0, 7}";
type = Anchor;
options = 1;
}
);
layerId = "FD1CEFBD-BAB1-4C2A-A598-30E93F9A29F6";
paths = (
{
closed = 1;
nodes = (
"152 0 LINE",
"858 0 LINE",
"858 160 LINE",
"328 160 LINE",
"328 670 LINE",
"786 670 LINE",
"786 830 LINE",
"328 830 LINE",
"328 1314 LINE",
"858 1314 LINE",
"858 1474 LINE",
"152 1474 LINE"
);
}
);
width = 966;
}
);
leftKerningGroup = LAT_H_UC;
leftMetricsKey = H;
rightKerningGroup = LAT_E_UC;
unicode = 0045;
},
{
glyphname = F;
lastChange = "2021-11-21 07:46:37 +0000";
layers = (
{
anchors = (
{
name = bottom;
position = "{214, 0}";
},
{
name = center;
position = "{214, 376}";
},
{
name = top;
position = "{536, 1474}";
}
);
layerId = "AB099EFE-E788-4EFC-8633-CF147CB782A6";
paths = (
{
closed = 1;
nodes = (
"182 0 LINE",
"246 0 LINE",
"246 726 LINE",
"764 726 LINE",
"764 786 LINE",
"246 786 LINE",
"246 1414 LINE",
"832 1414 LINE",
"832 1474 LINE",
"182 1474 LINE"
);
}
);
width = 912;
},
{
anchors = (
{
name = bottom;
position = "{286, 0}";
},
{
name = center;
position = "{286, 290}";
},
{
name = top;
position = "{558, 1474}";
}
);
layerId = "2D8F7115-C311-411E-929D-56333CF7FFB2";
paths = (
{
closed = 1;
nodes = (
"100 0 LINE",
"468 0 LINE",
"468 524 LINE",
"830 524 LINE",
"830 852 LINE",
"468 852 LINE",
"468 1146 LINE",
"904 1146 LINE",
"904 1474 LINE",
"100 1474 LINE"
);
}
);
width = 932;
},
{
anchors = (
{
name = bottom;
position = "{240, 0}";
},
{
name = center;
position = "{240, 346}";
},
{
name = top;
position = "{538, 1474}";
}
);
layerId = "FD1CEFBD-BAB1-4C2A-A598-30E93F9A29F6";
paths = (
{
closed = 1;
nodes = (
"152 0 LINE",
"328 0 LINE",
"328 648 LINE",
"774 648 LINE",
"774 810 LINE",
"328 810 LINE",
"328 1314 LINE",
"846 1314 LINE",
"846 1474 LINE",
"152 1474 LINE"
);
}
);
width = 910;
}
);
leftKerningGroup = LAT_H_UC;
leftMetricsKey = H;
rightKerningGroup = LAT_F_UC;
unicode = 0046;
},
{
glyphname = G;
lastChange = "2021-11-21 07:46:37 +0000";
layers = (
{
anchors = (
{
name = bottom;
position = "{672, 0}";
},
{
name = hook;
position = "{1086, 1336}";
},
{
name = top;
position = "{670, 1474}";
}
);
layerId = "AB099EFE-E788-4EFC-8633-CF147CB782A6";
paths = (
{
closed = 1;
nodes = (
"998 -16 OFFCURVE",
"1172 272 OFFCURVE",
"1172 704 CURVE SMOOTH",
"1172 758 LINE",
"650 758 LINE",
"650 698 LINE",
"1110 698 LINE",
"1110 346 OFFCURVE",
"980 44 OFFCURVE",
"670 44 CURVE SMOOTH",
"380 44 OFFCURVE",
"176 314 OFFCURVE",
"176 730 CURVE SMOOTH",
"176 1156 OFFCURVE",
"388 1430 OFFCURVE",
"700 1430 CURVE SMOOTH",
"842 1430 OFFCURVE",
"976 1374 OFFCURVE",
"1058 1272 CURVE",
"1086 1336 LINE",
"1004 1418 OFFCURVE",
"864 1490 OFFCURVE",
"692 1490 CURVE SMOOTH",
"346 1490 OFFCURVE",
"112 1196 OFFCURVE",
"112 738 CURVE SMOOTH",
"112 280 OFFCURVE",
"344 -16 OFFCURVE",
"672 -16 CURVE SMOOTH"
);
}
);
width = 1300;
},
{
anchors = (
{
name = bottom;
position = "{700, 0}";
},
{
name = hook;
position = "{1124, 1378}";
},
{
name = top;
position = "{676, 1474}";
}
);
layerId = "2D8F7115-C311-411E-929D-56333CF7FFB2";
paths = (
{
closed = 1;
nodes = (
"1028 -16 OFFCURVE",
"1258 244 OFFCURVE",
"1258 620 CURVE SMOOTH",
"1258 874 LINE",
"656 874 LINE",
"656 566 LINE",
"896 566 LINE",
"896 420 OFFCURVE",
"808 320 OFFCURVE",
"680 320 CURVE SMOOTH",
"508 320 OFFCURVE",
"398 486 OFFCURVE",
"398 740 CURVE SMOOTH",
"398 990 OFFCURVE",
"522 1150 OFFCURVE",
"706 1156 CURVE SMOOTH",
"808 1160 OFFCURVE",
"930 1116 OFFCURVE",
"986 1054 CURVE",
"1124 1378 LINE",
"1010 1446 OFFCURVE",
"854 1490 OFFCURVE",
"706 1490 CURVE SMOOTH",
"294 1490 OFFCURVE",
"28 1190 OFFCURVE",
"28 728 CURVE SMOOTH",
"28 276 OFFCURVE",
"284 -16 OFFCURVE",
"678 -16 CURVE SMOOTH"
);
}
);
width = 1298;
},
{
anchors = (
{
name = bottom;
position = "{680, 0}";
},
{
name = hook;
position = "{1102, 1352}";
},
{
name = top;
position = "{670, 1474}";
}
);
layerId = "FD1CEFBD-BAB1-4C2A-A598-30E93F9A29F6";
paths = (
{
closed = 1;
nodes = (
"1006 -16 OFFCURVE",
"1214 264 OFFCURVE",
"1214 674 CURVE SMOOTH",
"1214 800 LINE",
"652 800 LINE",
"652 640 LINE",
"1042 640 LINE",
"1042 352 OFFCURVE",
"904 144 OFFCURVE",
"678 144 CURVE SMOOTH",
"422 144 OFFCURVE",
"256 376 OFFCURVE",
"256 734 CURVE SMOOTH",
"256 1094 OFFCURVE",
"434 1330 OFFCURVE",
"708 1330 CURVE SMOOTH",
"832 1330 OFFCURVE",
"958 1274 OFFCURVE",
"1034 1188 CURVE",
"1102 1352 LINE",
"1000 1430 OFFCURVE",
"852 1490 OFFCURVE",
"694 1490 CURVE SMOOTH",
"322 1490 OFFCURVE",
"80 1192 OFFCURVE",
"80 732 CURVE SMOOTH",
"80 278 OFFCURVE",
"316 -16 OFFCURVE",
"676 -16 CURVE SMOOTH"
);
}
);
width = 1302;
}
);
leftKerningGroup = LAT_O_UC;
leftMetricsKey = O;
rightKerningGroup = LAT_G_UC;
unicode = 0047;
},
{
glyphname = H;
lastChange = "2021-11-21 07:46:37 +0000";
layers = (
{
anchors = (
{
name = bottom;
position = "{618, 0}";
},
{
name = center;
position = "{618, 1086}";
},
{
name = top;
position = "{618, 1474}";
}
);
layerId = "AB099EFE-E788-4EFC-8633-CF147CB782A6";
paths = (
{
closed = 1;
nodes = (
"182 0 LINE",
"246 0 LINE",
"246 726 LINE",
"992 726 LINE",
"992 0 LINE",
"1056 0 LINE",
"1056 1474 LINE",
"992 1474 LINE",
"992 786 LINE",
"246 786 LINE",
"246 1474 LINE",
"182 1474 LINE"
);
}
);
width = 1238;
},
{
anchors = (
{
name = bottom;
position = "{666, 0}";
},
{
name = center;
position = "{666, 1184}";
},
{
name = top;
position = "{666, 1474}";
}
);
layerId = "2D8F7115-C311-411E-929D-56333CF7FFB2";
paths = (
{
closed = 1;
nodes = (
"100 0 LINE",
"468 0 LINE",
"468 578 LINE",
"864 578 LINE",
"864 0 LINE",
"1232 0 LINE",
"1232 1474 LINE",
"864 1474 LINE",
"864 906 LINE",
"468 906 LINE",
"468 1474 LINE",
"100 1474 LINE"
);
}
);
width = 1332;
},
{
anchors = (
{
name = bottom;
position = "{642, 0}";
},
{
name = center;
position = "{642, 1120}";
},
{
name = top;
position = "{642, 1474}";
}
);
layerId = "FD1CEFBD-BAB1-4C2A-A598-30E93F9A29F6";
paths = (
{
closed = 1;
nodes = (
"152 0 LINE",
"328 0 LINE",
"328 674 LINE",
"948 674 LINE",
"948 0 LINE",
"1124 0 LINE",
"1124 1474 LINE",
"948 1474 LINE",
"948 834 LINE",
"328 834 LINE",
"328 1474 LINE",
"152 1474 LINE"
);
}
);
width = 1276;
}
);
leftKerningGroup = LAT_H_UC;
rightKerningGroup = LAT_H_UC;
unicode = 0048;
},
{
glyphname = I;
lastChange = "2021-11-21 07:46:37 +0000";
layers = (
{
anchors = (
{
name = bottom;
position = "{222, 0}";
},
{
name = ogonek;
position = "{254, 0}";
},
{
name = top;
position = "{222, 1474}";
}
);
layerId = "AB099EFE-E788-4EFC-8633-CF147CB782A6";
paths = (
{
closed = 1;
nodes = (
"190 0 LINE",
"254 0 LINE",
"254 1474 LINE",
"190 1474 LINE"
);
}
);
width = 446;
},
{
anchors = (
{
name = bottom;
position = "{306, 0}";
},
{
name = ogonek;
position = "{490, 0}";
},
{
name = top;
position = "{306, 1474}";
}
);
layerId = "2D8F7115-C311-411E-929D-56333CF7FFB2";
paths = (
{
closed = 1;
nodes = (
"122 0 LINE",
"490 0 LINE",
"490 1474 LINE",
"122 1474 LINE"
);
}
);
width = 612;
},
{
anchors = (
{
name = bottom;
position = "{254, 0}";
},
{
name = ogonek;
position = "{342, 0}";
},
{
name = top;
position = "{254, 1474}";
}
);
layerId = "FD1CEFBD-BAB1-4C2A-A598-30E93F9A29F6";
paths = (
{
closed = 1;
nodes = (
"166 0 LINE",
"342 0 LINE",
"342 1474 LINE",
"166 1474 LINE"
);
}
);
width = 510;
}
);
leftKerningGroup = LAT_H_UC;
rightKerningGroup = LAT_H_UC;
unicode = 0049;
},
{
color = 10;
glyphname = I.ss03;
lastChange = "2021-05-03 01:08:30 +0000";
layers = (
{
anchors = (
{
name = bottom;
position = "{330, 0}";
},
{
name = ogonek;
position = "{518, 0}";
},
{
name = top;
position = "{330, 1474}";
}
);
layerId = "AB099EFE-E788-4EFC-8633-CF147CB782A6";
paths = (
{
closed = 1;
nodes = (
"300 0 LINE",
"364 0 LINE",
"364 1474 LINE",
"300 1474 LINE"
);
},
{
closed = 1;
nodes = (
"146 1416 LINE",
"518 1416 LINE",
"518 1474 LINE",
"146 1474 LINE"
);
},
{
closed = 1;
nodes = (
"146 0 LINE",
"518 0 LINE",
"518 60 LINE",
"146 60 LINE"
);
}
);
width = 664;
},
{
anchors = (
{
name = bottom;
position = "{448, 0}";
},
{
name = ogonek;
position = "{796, 0}";
},
{
name = top;
position = "{448, 1474}";
}
);
layerId = "2D8F7115-C311-411E-929D-56333CF7FFB2";
paths = (
{
closed = 1;
nodes = (
"264 0 LINE",
"632 0 LINE",
"632 1474 LINE",
"264 1474 LINE"
);
},
{
closed = 1;
nodes = (
"96 1156 LINE",
"796 1156 LINE",
"796 1474 LINE",
"96 1474 LINE"
);
},
{
closed = 1;
nodes = (
"96 0 LINE",
"796 0 LINE",
"796 320 LINE",
"96 320 LINE"
);
}
);
width = 894;
},
{
anchors = (
{
name = bottom;
position = "{374, 0}";
},
{
name = ogonek;
position = "{626, 0}";
},
{
name = top;
position = "{374, 1474}";
}
);
layerId = "FD1CEFBD-BAB1-4C2A-A598-30E93F9A29F6";
paths = (
{
closed = 1;
nodes = (
"284 0 LINE",
"464 0 LINE",
"464 1474 LINE",
"284 1474 LINE"
);
},
{
closed = 1;
nodes = (
"124 1314 LINE",
"626 1314 LINE",
"626 1474 LINE",
"124 1474 LINE"
);
},
{
closed = 1;
nodes = (
"124 0 LINE",
"626 0 LINE",
"626 160 LINE",
"124 160 LINE"
);
}
);
width = 750;
}
);
leftKerningGroup = LAT_ISS03_UC;
rightKerningGroup = LAT_ISS03_UC;
},
{
glyphname = J;
lastChange = "2021-11-21 07:46:37 +0000";
layers = (
{
anchors = (
{
name = bottom;
position = "{384, 0}";
},
{
name = top;
position = "{606, 1474}";
}
);
layerId = "AB099EFE-E788-4EFC-8633-CF147CB782A6";
paths = (
{
closed = 1;
nodes = (
"586 148 OFFCURVE",
"502 44 OFFCURVE",
"360 44 CURVE SMOOTH",
"214 44 OFFCURVE",
"116 170 OFFCURVE",
"114 346 CURVE",
"52 346 LINE",
"56 126 OFFCURVE",
"186 -16 OFFCURVE",
"364 -16 CURVE SMOOTH",
"542 -16 OFFCURVE",
"650 118 OFFCURVE",
"650 322 CURVE SMOOTH",
"650 1474 LINE",
"586 1474 LINE",
"586 318 LINE SMOOTH"
);
}
);
width = 832;
},
{
anchors = (
{
name = bottom;
position = "{520, 0}";
},
{
name = top;
position = "{722, 1474}";
}
);
layerId = "2D8F7115-C311-411E-929D-56333CF7FFB2";
paths = (
{
closed = 1;
nodes = (
"544 352 OFFCURVE",
"510 312 OFFCURVE",
"460 312 CURVE SMOOTH",
"392 312 OFFCURVE",
"358 392 OFFCURVE",
"358 512 CURVE",
"16 512 LINE",
"14 184 OFFCURVE",
"166 -16 OFFCURVE",
"460 -16 CURVE SMOOTH",
"726 -16 OFFCURVE",
"914 146 OFFCURVE",
"914 446 CURVE SMOOTH",
"914 1474 LINE",
"544 1474 LINE",
"544 442 LINE SMOOTH"
);
}
);
width = 1014;
},
{
anchors = (
{
name = bottom;
position = "{420, 0}";
},
{
name = top;
position = "{652, 1474}";
}
);
layerId = "FD1CEFBD-BAB1-4C2A-A598-30E93F9A29F6";
paths = (
{
closed = 1;
nodes = (
"570 210 OFFCURVE",
"498 144 OFFCURVE",
"398 144 CURVE SMOOTH",
"278 144 OFFCURVE",
"212 242 OFFCURVE",
"208 426 CURVE",
"36 426 LINE",
"42 148 OFFCURVE",
"174 -16 OFFCURVE",
"394 -16 CURVE SMOOTH",
"604 -16 OFFCURVE",
"746 128 OFFCURVE",
"746 352 CURVE SMOOTH",
"746 1474 LINE",
"570 1474 LINE",
"570 328 LINE SMOOTH"
);
}
);
width = 898;
}
);
leftKerningGroup = LAT_J_UC;
rightKerningGroup = LAT_U_UC;
rightMetricsKey = H;
unicode = 004A;
},
{
glyphname = K;
lastChange = "2021-11-21 07:46:37 +0000";
layers = (
{
anchors = (
{
name = bottom;
position = "{526, 0}";
},
{
name = top;
position = "{524, 1474}";
}
);
layerId = "AB099EFE-E788-4EFC-8633-CF147CB782A6";
paths = (
{
closed = 1;
nodes = (
"246 0 LINE",
"246 708 LINE",
"274 708 LINE",
"242 734 LINE",
"848 0 LINE",
"936 0 LINE",
"302 762 LINE",
"302 716 LINE",
"898 1474 LINE",
"810 1474 LINE",
"242 742 LINE",
"274 766 LINE",
"246 766 LINE",
"246 1474 LINE",
"182 1474 LINE",
"182 0 LINE"
);
}
);
width = 1008;
},
{
anchors = (
{
name = bottom;
position = "{640, 0}";
},
{
name = top;
position = "{602, 1474}";
}
);
guideLines = (
{
angle = 120;
position = "{642, 0}";
}
);
layerId = "2D8F7115-C311-411E-929D-56333CF7FFB2";
paths = (
{
closed = 1;
nodes = (
"468 0 LINE",
"468 638 LINE",
"552 638 LINE",
"438 692 LINE",
"828 0 LINE",
"1264 0 LINE",
"750 848 LINE",
"750 648 LINE",
"1254 1474 LINE",
"816 1474 LINE",
"438 774 LINE",
"552 828 LINE",
"468 828 LINE",
"468 1474 LINE",
"100 1474 LINE",
"100 0 LINE"
);
}
);
width = 1248;
},
{
anchors = (
{
name = bottom;
position = "{570, 0}";
},
{
name = top;
position = "{554, 1474}";
}
);
layerId = "FD1CEFBD-BAB1-4C2A-A598-30E93F9A29F6";
paths = (
{
closed = 1;
nodes = (
"328 0 LINE",
"328 682 LINE",
"378 682 LINE",
"314 718 LINE",
"840 0 LINE",
"1054 0 LINE",
"466 794 LINE",
"466 690 LINE",
"1026 1474 LINE",
"810 1474 LINE",
"314 754 LINE",
"378 790 LINE",
"328 790 LINE",
"328 1474 LINE",
"152 1474 LINE",
"152 0 LINE"
);
}
);
width = 1094;
}
);
leftKerningGroup = LAT_H_UC;
leftMetricsKey = H;
rightKerningGroup = LAT_K_UC;
unicode = 004B;
},
{
glyphname = L;
lastChange = "2021-11-21 07:46:37 +0000";
layers = (
{
anchors = (
{
name = bottom;
position = "{518, 0}";
},
{
name = center;
position = "{214, 738}";
},
{
name = dot;
position = "{664, 738}";
},
{
name = top;
position = "{214, 1474}";
},
{
name = topright;
position = "{660, 1474}";
}
);
layerId = "AB099EFE-E788-4EFC-8633-CF147CB782A6";
paths = (
{
closed = 1;
nodes = (
"182 0 LINE",
"830 0 LINE",
"830 60 LINE",
"246 60 LINE",
"246 1474 LINE",
"182 1474 LINE"
);
}
);
width = 886;
},
{
anchors = (
{
name = bottom;
position = "{490, 0}";
},
{
name = center;
position = "{282, 758}";
},
{
name = dot;
position = "{752, 754}";
},
{
name = top;
position = "{294, 1474}";
},
{
name = topright;
position = "{518, 1474}";
}
);
layerId = "2D8F7115-C311-411E-929D-56333CF7FFB2";
paths = (
{
closed = 1;
nodes = (
"100 0 LINE",
"864 0 LINE",
"864 328 LINE",
"468 328 LINE",
"468 1474 LINE",
"100 1474 LINE"
);
}
);
width = 870;
},
{
anchors = (
{
name = bottom;
position = "{508, 0}";
},
{
name = center;
position = "{240, 746}";
},
{
name = dot;
position = "{694, 746}";
},
{
name = top;
position = "{242, 1474}";
},
{
name = topright;
position = "{606, 1474}";
}
);
layerId = "FD1CEFBD-BAB1-4C2A-A598-30E93F9A29F6";
paths = (
{
closed = 1;
nodes = (
"152 0 LINE",
"842 0 LINE",
"842 160 LINE",
"328 160 LINE",
"328 1474 LINE",
"152 1474 LINE"
);
}
);
width = 882;
}
);
leftKerningGroup = LAT_H_UC;
leftMetricsKey = H;
rightKerningGroup = LAT_L_UC;
unicode = 004C;
},
{
glyphname = M;
lastChange = "2021-11-21 07:59:55 +0000";
layers = (
{
anchors = (
{
name = bottom;
position = "{694, 0}";
},
{
name = top;
position = "{694, 1474}";
}
);
layerId = "AB099EFE-E788-4EFC-8633-CF147CB782A6";
paths = (
{
closed = 1;
nodes = (
"182 0 LINE",
"246 0 LINE",
"246 1076 LINE",
"246 1320 LINE",
"252 1320 LINE",
"436 866 LINE",
"676 274 LINE",
"712 274 LINE",
"952 866 LINE",
"1134 1320 LINE",
"1142 1320 LINE",
"1140 1076 LINE",
"1140 0 LINE",
"1206 0 LINE",
"1206 1474 LINE",
"1130 1474 LINE",
"698 390 LINE",
"690 390 LINE",
"256 1474 LINE",
"182 1474 LINE"
);
}
);
width = 1388;
},
{
anchors = (
{
name = bottom;
position = "{794, 0}";
},
{
name = top;
position = "{794, 1474}";
}
);
layerId = "2D8F7115-C311-411E-929D-56333CF7FFB2";
paths = (
{
closed = 1;
nodes = (
"100 0 LINE",
"468 0 LINE",
"468 402 LINE",
"460 802 LINE",
"468 802 LINE",
"584 586 LINE",
"754 308 LINE",
"834 308 LINE",
"1004 586 LINE",
"1120 802 LINE",
"1128 802 LINE",
"1120 402 LINE",
"1120 0 LINE",
"1488 0 LINE",
"1488 1474 LINE",
"1218 1474 LINE",
"798 826 LINE",
"792 826 LINE",
"370 1474 LINE",
"100 1474 LINE"
);
}
);
width = 1588;
},
{
anchors = (
{
name = bottom;
position = "{732, 0}";
},
{
name = top;
position = "{732, 1474}";
}
);
layerId = "FD1CEFBD-BAB1-4C2A-A598-30E93F9A29F6";
paths = (
{
closed = 1;
nodes = (
"152 0 LINE",
"328 0 LINE",
"328 770 LINE",
"320 1070 LINE",
"328 1070 LINE",
"440 826 LINE",
"700 300 LINE",
"764 300 LINE",
"1022 826 LINE",
"1134 1070 LINE",
"1142 1070 LINE",
"1136 770 LINE",
"1136 0 LINE",
"1312 0 LINE",
"1312 1474 LINE",
"1170 1474 LINE",
"736 570 LINE",
"728 570 LINE",
"294 1474 LINE",
"152 1474 LINE"
);
}
);
width = 1464;
}
);
leftKerningGroup = LAT_H_UC;
leftMetricsKey = H;
rightKerningGroup = LAT_H_UC;
rightMetricsKey = H;
unicode = 004D;
},
{
glyphname = N;
lastChange = "2021-11-21 08:00:07 +0000";
layers = (
{
anchors = (
{
name = bottom;
position = "{612, 0}";
},
{
name = leghookright;
position = "{1034, 0}";
},
{
name = top;
position = "{624, 1474}";
}
);
layerId = "AB099EFE-E788-4EFC-8633-CF147CB782A6";
paths = (
{
closed = 1;
nodes = (
"182 0 LINE",
"246 0 LINE",
"246 946 LINE",
"246 1322 LINE",
"254 1322 LINE",
"398 1068 LINE",
"1012 0 LINE",
"1064 0 LINE",
"1064 1474 LINE",
"1000 1474 LINE",
"1000 538 LINE",
"1000 152 LINE",
"992 152 LINE",
"848 406 LINE",
"234 1474 LINE",
"182 1474 LINE"
);
}
);
width = 1246;
},
{
anchors = (
{
name = bottom;
position = "{680, 0}";
},
{
name = leghookright;
position = "{1090, 0}";
},
{
name = top;
position = "{684, 1474}";
}
);
layerId = "2D8F7115-C311-411E-929D-56333CF7FFB2";
paths = (
{
closed = 1;
nodes = (
"100 0 LINE",
"468 0 LINE",
"468 520 LINE",
"462 848 LINE",
"468 848 LINE",
"538 712 LINE",
"978 0 LINE",
"1266 0 LINE",
"1266 1474 LINE",
"898 1474 LINE",
"898 954 LINE",
"908 648 LINE",
"900 648 LINE",
"830 778 LINE",
"386 1474 LINE",
"100 1474 LINE"
);
}
);
width = 1366;
},
{
anchors = (
{
name = bottom;
position = "{642, 0}";
},
{
name = leghookright;
position = "{1048, 0}";
},
{
name = top;
position = "{644, 1474}";
}
);
layerId = "FD1CEFBD-BAB1-4C2A-A598-30E93F9A29F6";
paths = (
{
closed = 1;
nodes = (
"152 0 LINE",
"328 0 LINE",
"328 722 LINE",
"324 1104 LINE",
"332 1104 LINE",
"452 904 LINE",
"1008 0 LINE",
"1132 0 LINE",
"1132 1474 LINE",
"956 1474 LINE",
"956 752 LINE",
"962 370 LINE",
"954 370 LINE",
"834 570 LINE",
"278 1474 LINE",
"152 1474 LINE"
);
}
);
width = 1284;
}
);
leftKerningGroup = LAT_H_UC;
leftMetricsKey = H;
rightKerningGroup = LAT_H_UC;
rightMetricsKey = H;
unicode = 004E;
},
{
glyphname = O;
lastChange = "2021-11-21 07:46:37 +0000";
layers = (
{
anchors = (
{
name = bottom;
position = "{648, 0}";
},
{
name = center;
position = "{650, 738}";
},
{
name = horn;
position = "{896, 1410}";
},
{
name = ogonek;
position = "{752, 0}";
},
{
name = top;
position = "{648, 1474}";
},
{
name = topleft;
position = "{76, 1474}";
},
{
name = topright;
position = "{1222, 1474}";
}
);
layerId = "AB099EFE-E788-4EFC-8633-CF147CB782A6";
paths = (
{
closed = 1;
nodes = (
"968 -16 OFFCURVE",
"1188 290 OFFCURVE",
"1188 738 CURVE SMOOTH",
"1188 1184 OFFCURVE",
"968 1490 OFFCURVE",
"648 1490 CURVE SMOOTH",
"330 1490 OFFCURVE",
"112 1182 OFFCURVE",
"112 738 CURVE SMOOTH",
"112 292 OFFCURVE",
"330 -16 OFFCURVE",
"648 -16 CURVE SMOOTH"
);
},
{
closed = 1;
nodes = (
"368 44 OFFCURVE",
"176 328 OFFCURVE",
"176 738 CURVE SMOOTH",
"176 1146 OFFCURVE",
"368 1430 OFFCURVE",
"648 1430 CURVE SMOOTH",
"930 1430 OFFCURVE",
"1124 1148 OFFCURVE",
"1124 738 CURVE SMOOTH",
"1124 326 OFFCURVE",
"930 44 OFFCURVE",
"648 44 CURVE SMOOTH"
);
}
);
width = 1300;
},
{
anchors = (
{
name = bottom;
position = "{660, 0}";
},
{
name = center;
position = "{660, 738}";
},
{
name = horn;
position = "{914, 1426}";
},
{
name = ogonek;
position = "{790, 0}";
},
{
name = top;
position = "{660, 1474}";
},
{
name = topleft;
position = "{-14, 1474}";
},
{
name = topright;
position = "{1336, 1474}";
}
);
layerId = "2D8F7115-C311-411E-929D-56333CF7FFB2";
paths = (
{
closed = 1;
nodes = (
"1040 -16 OFFCURVE",
"1288 280 OFFCURVE",
"1288 738 CURVE SMOOTH",
"1288 1194 OFFCURVE",
"1040 1490 OFFCURVE",
"658 1490 CURVE SMOOTH",
"276 1490 OFFCURVE",
"28 1194 OFFCURVE",
"28 738 CURVE SMOOTH",
"28 280 OFFCURVE",
"276 -16 OFFCURVE",
"658 -16 CURVE SMOOTH"
);
},
{
closed = 1;
nodes = (
"498 320 OFFCURVE",
"396 486 OFFCURVE",
"396 738 CURVE SMOOTH",
"396 990 OFFCURVE",
"498 1154 OFFCURVE",
"658 1154 CURVE SMOOTH",
"818 1154 OFFCURVE",
"920 990 OFFCURVE",
"920 738 CURVE SMOOTH",
"920 486 OFFCURVE",
"818 320 OFFCURVE",
"658 320 CURVE SMOOTH"
);
}
);
width = 1316;
},
{
anchors = (
{
name = bottom;
position = "{650, 0}";
},
{
name = center;
position = "{652, 738}";
},
{
name = horn;
position = "{896, 1422}";
},
{
name = ogonek;
position = "{760, 0}";
},
{
name = top;
position = "{650, 1474}";
},
{
name = topleft;
position = "{44, 1470}";
},
{
name = topright;
position = "{1258, 1470}";
}
);
layerId = "FD1CEFBD-BAB1-4C2A-A598-30E93F9A29F6";
paths = (
{
closed = 1;
nodes = (
"1000 -16 OFFCURVE",
"1226 282 OFFCURVE",
"1226 738 CURVE SMOOTH",
"1226 1192 OFFCURVE",
"1000 1490 OFFCURVE",
"652 1490 CURVE SMOOTH",
"306 1490 OFFCURVE",
"80 1194 OFFCURVE",
"80 738 CURVE SMOOTH",
"80 280 OFFCURVE",
"306 -16 OFFCURVE",
"652 -16 CURVE SMOOTH"
);
},
{
closed = 1;
nodes = (
"414 144 OFFCURVE",
"256 378 OFFCURVE",
"256 738 CURVE SMOOTH",
"256 1096 OFFCURVE",
"412 1330 OFFCURVE",
"652 1330 CURVE SMOOTH",
"890 1330 OFFCURVE",
"1048 1096 OFFCURVE",
"1050 738 CURVE SMOOTH",
"1052 378 OFFCURVE",
"894 144 OFFCURVE",
"654 144 CURVE SMOOTH"
);
}
);
width = 1306;
}
);
leftKerningGroup = LAT_O_UC;
rightKerningGroup = LAT_O_UC;
unicode = 004F;
},
{
glyphname = OE;
lastChange = "2021-11-21 07:46:37 +0000";
layers = (
{
anchors = (
{
name = bottom;
position = "{1020, 0}";
},
{
name = top;
position = "{1020, 1474}";
}
);
layerId = "AB099EFE-E788-4EFC-8633-CF147CB782A6";
paths = (
{
closed = 1;
nodes = (
"944 -16 OFFCURVE",
"1152 160 OFFCURVE",
"1226 456 CURVE",
"1198 456 LINE",
"1198 0 LINE",
"1846 0 LINE",
"1846 60 LINE",
"1262 60 LINE",
"1262 726 LINE",
"1764 726 LINE",
"1764 786 LINE",
"1262 786 LINE",
"1262 1414 LINE",
"1846 1414 LINE",
"1846 1474 LINE",
"1198 1474 LINE",
"1198 1018 LINE",
"1226 1018 LINE",
"1152 1316 OFFCURVE",
"944 1490 OFFCURVE",
"700 1490 CURVE SMOOTH",
"370 1490 OFFCURVE",
"112 1172 OFFCURVE",
"112 738 CURVE SMOOTH",
"112 308 OFFCURVE",
"370 -16 OFFCURVE",
"700 -16 CURVE SMOOTH"
);
},
{
closed = 1;
nodes = (
"404 44 OFFCURVE",
"176 342 OFFCURVE",
"176 740 CURVE SMOOTH",
"176 1134 OFFCURVE",
"400 1430 OFFCURVE",
"704 1430 CURVE SMOOTH",
"1008 1430 OFFCURVE",
"1206 1136 OFFCURVE",
"1206 742 CURVE SMOOTH",
"1206 338 OFFCURVE",
"1000 44 OFFCURVE",
"704 44 CURVE SMOOTH"
);
}
);
width = 1978;
},
{
anchors = (
{
name = bottom;
position = "{886, 0}";
},
{
name = top;
position = "{886, 1474}";
}
);
layerId = "2D8F7115-C311-411E-929D-56333CF7FFB2";
paths = (
{
closed = 1;
nodes = (
"868 -16 OFFCURVE",
"1002 102 OFFCURVE",
"1092 308 CURVE",
"958 308 LINE",
"958 0 LINE",
"1676 0 LINE",
"1676 328 LINE",
"1284 328 LINE",
"1284 586 LINE",
"1606 586 LINE",
"1606 898 LINE",
"1284 898 LINE",
"1284 1146 LINE",
"1676 1146 LINE",
"1676 1474 LINE",
"958 1474 LINE",
"958 1168 LINE",
"1092 1168 LINE",
"1002 1376 OFFCURVE",
"904 1500 OFFCURVE",
"664 1500 CURVE SMOOTH",
"336 1500 OFFCURVE",
"28 1176 OFFCURVE",
"28 738 CURVE SMOOTH",
"28 300 OFFCURVE",
"336 -16 OFFCURVE",
"664 -16 CURVE SMOOTH"
);
},
{
closed = 1;
nodes = (
"526 294 OFFCURVE",
"398 486 OFFCURVE",
"398 738 CURVE SMOOTH",
"398 992 OFFCURVE",
"528 1180 OFFCURVE",
"688 1180 CURVE SMOOTH",
"860 1180 OFFCURVE",
"990 990 OFFCURVE",
"990 738 CURVE SMOOTH",
"990 484 OFFCURVE",
"860 294 OFFCURVE",
"688 294 CURVE SMOOTH"
);
}
);
width = 1744;
},
{
anchors = (
{
name = bottom;
position = "{970, 0}";
},
{
name = top;
position = "{970, 1474}";
}
);
layerId = "FD1CEFBD-BAB1-4C2A-A598-30E93F9A29F6";
paths = (
{
closed = 1;
nodes = (
"894 -16 OFFCURVE",
"1076 140 OFFCURVE",
"1158 404 CURVE",
"1088 404 LINE",
"1088 0 LINE",
"1784 0 LINE",
"1784 160 LINE",
"1250 160 LINE",
"1250 670 LINE",
"1706 670 LINE",
"1706 830 LINE",
"1250 830 LINE",
"1250 1314 LINE",
"1784 1314 LINE",
"1784 1474 LINE",
"1088 1474 LINE",
"1088 1076 LINE",
"1158 1076 LINE",
"1074 1344 OFFCURVE",
"906 1496 OFFCURVE",
"666 1496 CURVE SMOOTH",
"336 1496 OFFCURVE",
"80 1174 OFFCURVE",
"80 738 CURVE SMOOTH",
"80 306 OFFCURVE",
"336 -16 OFFCURVE",
"666 -16 CURVE SMOOTH"
);
},
{
closed = 1;
nodes = (
"428 140 OFFCURVE",
"256 394 OFFCURVE",
"256 738 CURVE SMOOTH",
"256 1086 OFFCURVE",
"428 1340 OFFCURVE",
"680 1340 CURVE SMOOTH",
"934 1340 OFFCURVE",
"1106 1084 OFFCURVE",
"1106 738 CURVE SMOOTH",
"1106 396 OFFCURVE",
"934 140 OFFCURVE",
"680 140 CURVE SMOOTH"
);
}
);
width = 1892;
}
);
leftKerningGroup = LAT_O_UC;
leftMetricsKey = O;
rightKerningGroup = LAT_E_UC;
rightMetricsKey = E;
unicode = 0152;
},
{
glyphname = P;
lastChange = "2021-11-21 07:46:37 +0000";
layers = (
{
anchors = (
{
name = bottom;
position = "{214, 0}";
},
{
name = top;
position = "{564, 1474}";
}
);
layerId = "AB099EFE-E788-4EFC-8633-CF147CB782A6";
paths = (
{
closed = 1;
nodes = (
"520 666 LINE SMOOTH",
"744 666 OFFCURVE",
"890 854 OFFCURVE",
"890 1078 CURVE SMOOTH",
"890 1320 OFFCURVE",
"726 1474 OFFCURVE",
"508 1474 CURVE SMOOTH",
"218 1474 LINE",
"218 1414 LINE",
"502 1414 LINE SMOOTH",
"692 1414 OFFCURVE",
"826 1286 OFFCURVE",
"826 1078 CURVE SMOOTH",
"826 868 OFFCURVE",
"694 726 OFFCURVE",
"510 726 CURVE SMOOTH",
"218 726 LINE",
"218 666 LINE"
);
},
{
closed = 1;
nodes = (
"246 0 LINE",
"246 1474 LINE",
"182 1474 LINE",
"182 0 LINE"
);
}
);
width = 990;
},
{
anchors = (
{
name = bottom;
position = "{286, 0}";
},
{
name = top;
position = "{586, 1474}";
}
);
layerId = "2D8F7115-C311-411E-929D-56333CF7FFB2";
paths = (
{
closed = 1;
nodes = (
"588 450 LINE SMOOTH",
"882 450 OFFCURVE",
"1088 660 OFFCURVE",
"1088 974 CURVE SMOOTH",
"1088 1278 OFFCURVE",
"902 1474 OFFCURVE",
"582 1474 CURVE SMOOTH",
"402 1474 LINE",
"402 1146 LINE",
"562 1146 LINE SMOOTH",
"662 1146 OFFCURVE",
"728 1074 OFFCURVE",
"728 962 CURVE SMOOTH",
"728 856 OFFCURVE",
"666 774 OFFCURVE",
"572 774 CURVE SMOOTH",
"402 774 LINE",
"402 450 LINE"
);
},
{
closed = 1;
nodes = (
"468 0 LINE",
"468 1474 LINE",
"100 1474 LINE",
"100 0 LINE"
);
}
);
width = 1108;
},
{
anchors = (
{
name = bottom;
position = "{240, 0}";
},
{
name = top;
position = "{568, 1474}";
}
);
layerId = "FD1CEFBD-BAB1-4C2A-A598-30E93F9A29F6";
paths = (
{
closed = 1;
nodes = (
"530 588 LINE SMOOTH",
"790 588 OFFCURVE",
"958 776 OFFCURVE",
"958 1036 CURVE SMOOTH",
"958 1298 OFFCURVE",
"786 1474 OFFCURVE",
"522 1474 CURVE SMOOTH",
"284 1474 LINE",
"284 1314 LINE",
"510 1314 LINE SMOOTH",
"680 1314 OFFCURVE",
"784 1202 OFFCURVE",
"784 1034 CURVE SMOOTH",
"784 868 OFFCURVE",
"682 750 OFFCURVE",
"520 750 CURVE SMOOTH",
"284 750 LINE",
"284 588 LINE"
);
},
{
closed = 1;
nodes = (
"328 0 LINE",
"328 1474 LINE",
"152 1474 LINE",
"152 0 LINE"
);
}
);
width = 1030;
}
);
leftKerningGroup = LAT_H_UC;
leftMetricsKey = H;
rightKerningGroup = LAT_P_UC;
unicode = 0050;
},
{
glyphname = Thorn;
lastChange = "2021-11-21 07:46:37 +0000";
layers = (
{
layerId = "AB099EFE-E788-4EFC-8633-CF147CB782A6";
paths = (
{
closed = 1;
nodes = (
"562 328 LINE SMOOTH",
"772 328 OFFCURVE",
"912 500 OFFCURVE",
"912 742 CURVE SMOOTH",
"912 984 OFFCURVE",
"772 1138 OFFCURVE",
"562 1138 CURVE SMOOTH",
"226 1138 LINE",
"226 1078 LINE",
"568 1078 LINE SMOOTH",
"736 1078 OFFCURVE",
"848 950 OFFCURVE",
"848 742 CURVE SMOOTH",
"848 532 OFFCURVE",
"736 388 OFFCURVE",
"568 388 CURVE SMOOTH",
"226 388 LINE",
"226 328 LINE"
);
},
{
closed = 1;
nodes = (
"246 0 LINE",
"246 1474 LINE",
"182 1474 LINE",
"182 0 LINE"
);
}
);
width = 1014;
},
{
layerId = "2D8F7115-C311-411E-929D-56333CF7FFB2";
paths = (
{
closed = 1;
nodes = (
"580 230 LINE SMOOTH",
"864 230 OFFCURVE",
"1054 442 OFFCURVE",
"1054 752 CURVE SMOOTH",
"1054 1060 OFFCURVE",
"868 1250 OFFCURVE",
"572 1250 CURVE SMOOTH",
"392 1250 LINE",
"392 930 LINE",
"548 930 LINE SMOOTH",
"642 930 OFFCURVE",
"704 856 OFFCURVE",
"704 742 CURVE SMOOTH",
"704 632 OFFCURVE",
"646 550 OFFCURVE",
"562 550 CURVE SMOOTH",
"392 550 LINE",
"392 230 LINE"
);
},
{
closed = 1;
nodes = (
"468 0 LINE",
"468 1474 LINE",
"100 1474 LINE",
"100 0 LINE"
);
}
);
width = 1092;
},
{
layerId = "FD1CEFBD-BAB1-4C2A-A598-30E93F9A29F6";
paths = (
{
closed = 1;
nodes = (
"570 292 LINE SMOOTH",
"812 292 OFFCURVE",
"970 482 OFFCURVE",
"970 746 CURVE SMOOTH",
"970 1014 OFFCURVE",
"808 1178 OFFCURVE",
"566 1178 CURVE SMOOTH",
"282 1178 LINE",
"282 1018 LINE",
"564 1018 LINE SMOOTH",
"710 1018 OFFCURVE",
"798 918 OFFCURVE",
"798 742 CURVE SMOOTH",
"798 570 OFFCURVE",
"710 452 OFFCURVE",
"568 452 CURVE SMOOTH",
"282 452 LINE",
"282 292 LINE"
);
},
{
closed = 1;
nodes = (
"328 0 LINE",
"328 1474 LINE",
"152 1474 LINE",
"152 0 LINE"
);
}
);
width = 1052;
}
);
leftKerningGroup = LAT_H_UC;
leftMetricsKey = H;
rightKerningGroup = LAT_P_SC;
unicode = 00DE;
},
{
glyphname = Q;
lastChange = "2021-11-21 07:46:37 +0000";
layers = (
{
anchors = (
{
name = bottom;
position = "{712, 0}";
},
{
name = center;
position = "{654, 738}";
},
{
name = horn;
position = "{902, 1410}";
},
{
name = ogonek;
position = "{756, 0}";
},
{
name = top;
position = "{706, 1474}";
},
{
name = topleft;
position = "{76, 1474}";
},
{
name = topright;
position = "{1230, 1474}";
}
);
layerId = "AB099EFE-E788-4EFC-8633-CF147CB782A6";
paths = (
{
closed = 1;
nodes = (
"1122 0 LINE",
"1014 170 LINE",
"1000 186 LINE",
"786 548 LINE",
"714 548 LINE",
"954 150 LINE",
"966 136 LINE",
"1050 0 LINE"
);
},
{
closed = 1;
nodes = (
"976 -16 OFFCURVE",
"1196 292 OFFCURVE",
"1196 738 CURVE SMOOTH",
"1196 1184 OFFCURVE",
"976 1490 OFFCURVE",
"652 1490 CURVE SMOOTH",
"332 1490 OFFCURVE",
"112 1184 OFFCURVE",
"112 738 CURVE SMOOTH",
"112 292 OFFCURVE",
"332 -16 OFFCURVE",
"652 -16 CURVE SMOOTH"
);
},
{
closed = 1;
nodes = (
"370 44 OFFCURVE",
"176 328 OFFCURVE",
"176 738 CURVE SMOOTH",
"176 1148 OFFCURVE",
"370 1430 OFFCURVE",
"652 1430 CURVE SMOOTH",
"938 1430 OFFCURVE",
"1132 1148 OFFCURVE",
"1132 738 CURVE SMOOTH",
"1132 328 OFFCURVE",
"938 44 OFFCURVE",
"652 44 CURVE SMOOTH"
);
}
);
width = 1308;
},
{
anchors = (
{
name = bottom;
position = "{684, 0}";
},
{
name = center;
position = "{674, 738}";
},
{
name = horn;
position = "{934, 1426}";
},
{
name = ogonek;
position = "{808, 0}";
},
{
name = top;
position = "{686, 1474}";
},
{
name = topleft;
position = "{-16, 1474}";
},
{
name = topright;
position = "{1364, 1474}";
}
);
layerId = "2D8F7115-C311-411E-929D-56333CF7FFB2";
paths = (
{
closed = 1;
nodes = (
"1376 0 LINE",
"1154 304 LINE",
"956 458 LINE",
"846 640 LINE",
"490 640 LINE",
"720 326 LINE",
"888 204 LINE",
"1030 0 LINE"
);
},
{
closed = 1;
nodes = (
"1063 -16 OFFCURVE",
"1316 280 OFFCURVE",
"1316 738 CURVE SMOOTH",
"1316 1195 OFFCURVE",
"1063 1490 OFFCURVE",
"672 1490 CURVE SMOOTH",
"281 1490 OFFCURVE",
"28 1195 OFFCURVE",
"28 738 CURVE SMOOTH",
"28 280 OFFCURVE",
"281 -16 OFFCURVE",
"672 -16 CURVE SMOOTH"
);
},
{
closed = 1;
nodes = (
"500 320 OFFCURVE",
"396 478 OFFCURVE",
"396 738 CURVE SMOOTH",
"396 998 OFFCURVE",
"500 1156 OFFCURVE",
"672 1156 CURVE SMOOTH",
"844 1156 OFFCURVE",
"948 998 OFFCURVE",
"948 738 CURVE SMOOTH",
"948 478 OFFCURVE",
"844 320 OFFCURVE",
"672 320 CURVE SMOOTH"
);
}
);
width = 1422;
},
{
anchors = (
{
name = bottom;
position = "{702, 0}";
},
{
name = center;
position = "{658, 738}";
},
{
name = horn;
position = "{904, 1422}";
},
{
name = ogonek;
position = "{766, 0}";
},
{
name = top;
position = "{702, 1474}";
},
{
name = topleft;
position = "{44, 1470}";
},
{
name = topright;
position = "{1270, 1470}";
}
);
layerId = "FD1CEFBD-BAB1-4C2A-A598-30E93F9A29F6";
paths = (
{
closed = 1;
nodes = (
"1230 0 LINE",
"1070 224 LINE",
"996 290 LINE",
"808 596 LINE",
"620 596 LINE",
"872 216 LINE",
"938 160 LINE",
"1046 0 LINE"
);
},
{
closed = 1;
nodes = (
"1008 -16 OFFCURVE",
"1238 280 OFFCURVE",
"1238 738 CURVE SMOOTH",
"1238 1194 OFFCURVE",
"1010 1490 OFFCURVE",
"658 1490 CURVE SMOOTH",
"308 1490 OFFCURVE",
"80 1194 OFFCURVE",
"80 738 CURVE SMOOTH",
"80 280 OFFCURVE",
"308 -16 OFFCURVE",
"658 -16 CURVE SMOOTH"
);
},
{
closed = 1;
nodes = (
"416 144 OFFCURVE",
"256 378 OFFCURVE",
"256 738 CURVE SMOOTH",
"256 1096 OFFCURVE",
"414 1330 OFFCURVE",
"658 1330 CURVE SMOOTH",
"900 1330 OFFCURVE",
"1060 1096 OFFCURVE",
"1062 738 CURVE SMOOTH",
"1064 378 OFFCURVE",
"904 144 OFFCURVE",
"660 144 CURVE SMOOTH"
);
}
);
width = 1318;
}
);
leftKerningGroup = LAT_O_UC;
leftMetricsKey = O;
rightKerningGroup = LAT_Q_UC;
unicode = 0051;
},
{
glyphname = R;
lastChange = "2021-11-21 07:46:37 +0000";
layers = (
{
anchors = (
{
name = bottom;
position = "{560, 0}";
},
{
name = top;
position = "{500, 1474}";
}
);
guideLines = (
{
angle = 120;
position = "{568, 0}";
},
{
angle = 67.5;
position = "{156, 2}";
}
);
layerId = "AB099EFE-E788-4EFC-8633-CF147CB782A6";
paths = (
{
closed = 1;
nodes = (
"216 1414 LINE",
"490 1414 LINE SMOOTH",
"674 1414 OFFCURVE",
"802 1286 OFFCURVE",
"802 1078 CURVE SMOOTH",
"802 868 OFFCURVE",
"676 726 OFFCURVE",
"496 726 CURVE SMOOTH",
"216 726 LINE",
"216 666 LINE",
"506 666 LINE SMOOTH",
"724 666 OFFCURVE",
"866 854 OFFCURVE",
"866 1078 CURVE SMOOTH",
"866 1320 OFFCURVE",
"708 1474 OFFCURVE",
"498 1474 CURVE SMOOTH",
"216 1474 LINE"
);
},
{
closed = 1;
nodes = (
"246 1474 LINE",
"182 1474 LINE",
"182 0 LINE",
"246 0 LINE"
);
},
{
closed = 1;
nodes = (
"500 672 LINE",
"878 0 LINE",
"950 0 LINE",
"544 716 LINE"
);
}
);
width = 1044;
},
{
anchors = (
{
name = bottom;
position = "{608, 0}";
},
{
name = top;
position = "{556, 1474}";
}
);
guideLines = (
{
angle = 120;
position = "{664, 0}";
}
);
layerId = "2D8F7115-C311-411E-929D-56333CF7FFB2";
paths = (
{
closed = 1;
nodes = (
"366 1146 LINE",
"552 1146 LINE SMOOTH",
"646 1146 OFFCURVE",
"712 1074 OFFCURVE",
"712 962 CURVE SMOOTH",
"712 856 OFFCURVE",
"650 782 OFFCURVE",
"562 782 CURVE SMOOTH",
"366 782 LINE",
"366 484 LINE",
"506 484 LINE SMOOTH",
"862 484 OFFCURVE",
"1072 714 OFFCURVE",
"1072 1012 CURVE SMOOTH",
"1072 1312 OFFCURVE",
"870 1474 OFFCURVE",
"610 1474 CURVE SMOOTH",
"366 1474 LINE"
);
},
{
closed = 1;
nodes = (
"468 1474 LINE",
"100 1474 LINE",
"100 0 LINE",
"468 0 LINE"
);
},
{
closed = 1;
nodes = (
"558 536 LINE",
"782 0 LINE",
"1182 0 LINE",
"818 754 LINE"
);
}
);
width = 1220;
},
{
anchors = (
{
name = bottom;
position = "{576, 0}";
},
{
name = top;
position = "{526, 1474}";
}
);
hints = (
{
horizontal = 1;
origin = "{0, 10}";
type = Delta;
settings = {
deltaV = {
"{100, 88, 0, 0, 0, 0}" = {
"12" = 3;
};
};
};
},
{
horizontal = 1;
origin = "{0, 9}";
type = Delta;
settings = {
deltaV = {
"{100, 88, 0, 0, 0, 0}" = {
"12" = 3;
};
};
};
},
{
horizontal = 1;
origin = "{0, 8}";
type = Delta;
settings = {
deltaV = {
"{100, 88, 0, 0, 0, 0}" = {
"12" = 3;
};
};
};
},
{
horizontal = 1;
origin = "{0, 7}";
type = Delta;
settings = {
deltaV = {
"{100, 88, 0, 0, 0, 0}" = {
"12" = 3;
};
};
};
},
{
horizontal = 1;
origin = "{0, 8, 1, 0}";
type = Delta;
settings = {
deltaV = {
"{100, 88, 0, 0, 0, 0}" = {
"12" = 3;
};
};
};
},
{
horizontal = 1;
origin = "{0, 10, 1, 0}";
type = Delta;
settings = {
deltaV = {
"{100, 88, 0, 0, 0, 0}" = {
"12" = 3;
};
};
};
},
{
horizontal = 1;
origin = "{0, 13, 2, 1}";
type = Delta;
settings = {
deltaV = {
"{100, 88, 0, 0, 0, 0}" = {
"12" = 3;
};
};
};
},
{
horizontal = 1;
origin = "{0, 13, 2, 3}";
type = Delta;
settings = {
deltaV = {
"{100, 88, 0, 0, 0, 0}" = {
"12" = 3;
};
};
};
}
);
layerId = "FD1CEFBD-BAB1-4C2A-A598-30E93F9A29F6";
paths = (
{
closed = 1;
nodes = (
"270 1314 LINE",
"512 1314 LINE SMOOTH",
"672 1314 OFFCURVE",
"784 1202 OFFCURVE",
"784 1038 CURVE SMOOTH",
"784 868 OFFCURVE",
"676 754 OFFCURVE",
"522 754 CURVE SMOOTH",
"270 754 LINE",
"270 600 LINE",
"506 600 LINE SMOOTH",
"774 600 OFFCURVE",
"958 786 OFFCURVE",
"958 1052 CURVE SMOOTH",
"958 1302 OFFCURVE",
"786 1474 OFFCURVE",
"540 1474 CURVE SMOOTH",
"270 1474 LINE"
);
},
{
closed = 1;
nodes = (
"328 1474 LINE",
"152 1474 LINE",
"152 0 LINE",
"328 0 LINE"
);
},
{
closed = 1;
nodes = (
"498 628 LINE",
"838 0 LINE",
"1034 0 LINE",
"630 734 LINE"
);
}
);
width = 1110;
}
);
leftKerningGroup = LAT_H_UC;
leftMetricsKey = H;
rightKerningGroup = LAT_R_UC;
unicode = 0052;
},
{
glyphname = S;
lastChange = "2021-11-21 07:46:37 +0000";
layers = (
{
anchors = (
{
name = bottom;
position = "{476, 0}";
},
{
name = cedilla;
position = "{456, 0}";
},
{
name = top;
position = "{450, 1474}";
}
);
background = {
paths = (
{
closed = 1;
nodes = (
"692 -16 OFFCURVE",
"856 144 OFFCURVE",
"856 378 CURVE SMOOTH",
"856 588 OFFCURVE",
"726 704 OFFCURVE",
"494 794 CURVE SMOOTH",
"266 882 OFFCURVE",
"176 984 OFFCURVE",
"176 1138 CURVE SMOOTH",
"176 1308 OFFCURVE",
"282 1426 OFFCURVE",
"442 1426 CURVE SMOOTH",
"574 1426 OFFCURVE",
"700 1344 OFFCURVE",
"758 1242 CURVE",
"788 1304 LINE",
"718 1418 OFFCURVE",
"582 1486 OFFCURVE",
"446 1486 CURVE SMOOTH",
"246 1486 OFFCURVE",
"112 1346 OFFCURVE",
"112 1148 CURVE SMOOTH",
"112 964 OFFCURVE",
"226 836 OFFCURVE",
"426 756 CURVE SMOOTH",
"666 660 OFFCURVE",
"792 582 OFFCURVE",
"792 384 CURVE SMOOTH",
"792 180 OFFCURVE",
"658 44 OFFCURVE",
"484 44 CURVE SMOOTH",
"326 44 OFFCURVE",
"184 156 OFFCURVE",
"112 320 CURVE",
"80 242 LINE",
"158 86 OFFCURVE",
"320 -16 OFFCURVE",
"486 -16 CURVE SMOOTH"
);
}
);
};
guideLines = (
{
angle = 67.5;
position = "{136, 320}";
}
);
layerId = "AB099EFE-E788-4EFC-8633-CF147CB782A6";
paths = (
{
closed = 1;
nodes = (
"694 -16 OFFCURVE",
"858 146 OFFCURVE",
"858 378 CURVE SMOOTH",
"858 591 OFFCURVE",
"720 694 OFFCURVE",
"498 792 CURVE SMOOTH",
"284 887 OFFCURVE",
"178 974 OFFCURVE",
"178 1138 CURVE SMOOTH",
"178 1306 OFFCURVE",
"284 1426 OFFCURVE",
"444 1426 CURVE SMOOTH",
"576 1426 OFFCURVE",
"702 1344 OFFCURVE",
"760 1242 CURVE",
"790 1304 LINE",
"720 1418 OFFCURVE",
"584 1486 OFFCURVE",
"446 1486 CURVE SMOOTH",
"248 1486 OFFCURVE",
"114 1345 OFFCURVE",
"114 1148 CURVE SMOOTH",
"114 955 OFFCURVE",
"241 841 OFFCURVE",
"442 750 CURVE SMOOTH",
"655 656 OFFCURVE",
"794 584 OFFCURVE",
"794 382 CURVE SMOOTH",
"794 182 OFFCURVE",
"660 44 OFFCURVE",
"484 44 CURVE SMOOTH",
"328 44 OFFCURVE",
"186 156 OFFCURVE",
"114 320 CURVE",
"82 242 LINE",
"160 86 OFFCURVE",
"322 -16 OFFCURVE",
"486 -16 CURVE SMOOTH"
);
}
);
userData = {
RMXScaler = {
height = 139;
width = 140;
};
};
width = 936;
},
{
anchors = (
{
name = bottom;
position = "{540, 0}";
},
{
name = cedilla;
position = "{564, 0}";
},
{
name = top;
position = "{506, 1474}";
}
);
background = {
paths = (
{
closed = 1;
nodes = (
"794 -16 OFFCURVE",
"996 198 OFFCURVE",
"992 454 CURVE SMOOTH",
"988 730 OFFCURVE",
"802 824 OFFCURVE",
"700 862 CURVE SMOOTH",
"652 880 OFFCURVE",
"430 938 OFFCURVE",
"430 1054 CURVE SMOOTH",
"430 1116 OFFCURVE",
"458 1164 OFFCURVE",
"514 1164 CURVE SMOOTH",
"562 1164 OFFCURVE",
"610 1094 OFFCURVE",
"630 1036 CURVE",
"966 1176 LINE",
"904 1356 OFFCURVE",
"748 1490 OFFCURVE",
"512 1490 CURVE SMOOTH",
"236 1490 OFFCURVE",
"62 1312 OFFCURVE",
"62 1062 CURVE SMOOTH",
"62 816 OFFCURVE",
"232 688 OFFCURVE",
"396 626 CURVE SMOOTH",
"492 590 OFFCURVE",
"622 558 OFFCURVE",
"622 444 CURVE SMOOTH",
"622 376 OFFCURVE",
"584 320 OFFCURVE",
"534 320 CURVE SMOOTH",
"452 320 OFFCURVE",
"396 418 OFFCURVE",
"372 504 CURVE",
"18 356 LINE",
"80 148 OFFCURVE",
"308 -16 OFFCURVE",
"524 -16 CURVE SMOOTH"
);
}
);
};
guideLines = (
{
angle = 22.5;
position = "{302, 288}";
},
{
angle = 90;
position = "{70, -108}";
},
{
angle = 90;
position = "{522, -108}";
}
);
layerId = "2D8F7115-C311-411E-929D-56333CF7FFB2";
paths = (
{
closed = 1;
nodes = (
"802 -16 OFFCURVE",
"1016 164 OFFCURVE",
"1016 438 CURVE SMOOTH",
"1016 676 OFFCURVE",
"850 812 OFFCURVE",
"638 888 CURVE SMOOTH",
"504 936 OFFCURVE",
"450 978 OFFCURVE",
"450 1040 CURVE SMOOTH",
"450 1104 OFFCURVE",
"508 1142 OFFCURVE",
"578 1142 CURVE SMOOTH",
"668 1142 OFFCURVE",
"790 1080 OFFCURVE",
"838 1022 CURVE",
"970 1334 LINE",
"850 1438 OFFCURVE",
"698 1488 OFFCURVE",
"554 1488 CURVE SMOOTH",
"288 1488 OFFCURVE",
"76 1316 OFFCURVE",
"76 1054 CURVE SMOOTH",
"76 800 OFFCURVE",
"280 666 OFFCURVE",
"450 606 CURVE SMOOTH",
"580 560 OFFCURVE",
"652 512 OFFCURVE",
"652 442 CURVE SMOOTH",
"652 384 OFFCURVE",
"604 334 OFFCURVE",
"510 334 CURVE SMOOTH",
"396 334 OFFCURVE",
"270 410 OFFCURVE",
"182 512 CURVE",
"40 172 LINE",
"156 68 OFFCURVE",
"350 -16 OFFCURVE",
"534 -16 CURVE SMOOTH"
);
}
);
userData = {
RMXScaler = {
height = 137;
weight = 160;
width = 140;
};
};
width = 1052;
},
{
anchors = (
{
name = bottom;
position = "{492, 0}";
},
{
name = cedilla;
position = "{492, 0}";
},
{
name = top;
position = "{480, 1474}";
}
);
background = {
paths = (
{
closed = 1;
nodes = (
"716 -16 OFFCURVE",
"892 150 OFFCURVE",
"892 402 CURVE SMOOTH",
"892 654 OFFCURVE",
"718 778 OFFCURVE",
"526 838 CURVE SMOOTH",
"374 886 OFFCURVE",
"268 962 OFFCURVE",
"268 1104 CURVE SMOOTH",
"268 1228 OFFCURVE",
"350 1314 OFFCURVE",
"474 1314 CURVE SMOOTH",
"592 1314 OFFCURVE",
"696 1236 OFFCURVE",
"770 1134 CURVE",
"846 1306 LINE",
"754 1420 OFFCURVE",
"616 1490 OFFCURVE",
"472 1490 CURVE SMOOTH",
"246 1490 OFFCURVE",
"92 1334 OFFCURVE",
"92 1110 CURVE SMOOTH",
"92 888 OFFCURVE",
"242 740 OFFCURVE",
"446 676 CURVE SMOOTH",
"610 624 OFFCURVE",
"712 552 OFFCURVE",
"712 406 CURVE SMOOTH",
"712 260 OFFCURVE",
"610 160 OFFCURVE",
"486 160 CURVE SMOOTH",
"366 160 OFFCURVE",
"230 252 OFFCURVE",
"138 394 CURVE",
"48 222 LINE",
"154 86 OFFCURVE",
"322 -16 OFFCURVE",
"496 -16 CURVE SMOOTH"
);
}
);
};
guideLines = (
{
angle = 67.5;
position = "{130, 320}";
}
);
layerId = "FD1CEFBD-BAB1-4C2A-A598-30E93F9A29F6";
paths = (
{
closed = 1;
nodes = (
"716 -16 OFFCURVE",
"892 152 OFFCURVE",
"892 402 CURVE SMOOTH",
"892 644 OFFCURVE",
"726 758 OFFCURVE",
"534 832 CURVE SMOOTH",
"374 894 OFFCURVE",
"266 966 OFFCURVE",
"266 1108 CURVE SMOOTH",
"266 1228 OFFCURVE",
"348 1318 OFFCURVE",
"474 1318 CURVE SMOOTH",
"582 1318 OFFCURVE",
"688 1252 OFFCURVE",
"770 1138 CURVE",
"844 1306 LINE",
"754 1420 OFFCURVE",
"614 1490 OFFCURVE",
"470 1490 CURVE SMOOTH",
"248 1490 OFFCURVE",
"94 1332 OFFCURVE",
"94 1112 CURVE SMOOTH",
"94 906 OFFCURVE",
"226 768 OFFCURVE",
"444 682 CURVE SMOOTH",
"612 616 OFFCURVE",
"716 550 OFFCURVE",
"716 406 CURVE SMOOTH",
"716 260 OFFCURVE",
"612 156 OFFCURVE",
"484 156 CURVE SMOOTH",
"360 156 OFFCURVE",
"224 256 OFFCURVE",
"138 392 CURVE",
"50 222 LINE",
"162 78 OFFCURVE",
"330 -16 OFFCURVE",
"494 -16 CURVE SMOOTH"
);
}
);
userData = {
RMXScaler = {
height = 139;
width = 140;
};
};
width = 966;
}
);
leftKerningGroup = LAT_S_UC;
rightKerningGroup = LAT_S_UC;
unicode = 0053;
userData = {
RMXScaler = {
source = s;
};
};
},
{
glyphname = S.001;
layers = (
{
anchors = (
{
name = bottom;
position = "{500, 0}";
},
{
name = cedilla;
position = "{484, 0}";
},
{
name = top;
position = "{476, 1474}";
}
);
layerId = "AB099EFE-E788-4EFC-8633-CF147CB782A6";
paths = (
{
closed = 1;
nodes = (
"670 -16 OFFCURVE",
"842 128 OFFCURVE",
"842 366 CURVE SMOOTH",
"842 662 OFFCURVE",
"582 746 OFFCURVE",
"470 798 CURVE SMOOTH",
"360 850 OFFCURVE",
"210 944 OFFCURVE",
"210 1144 CURVE SMOOTH",
"210 1308 OFFCURVE",
"310 1430 OFFCURVE",
"466 1430 CURVE SMOOTH",
"616 1430 OFFCURVE",
"700 1320 OFFCURVE",
"736 1234 CURVE",
"792 1258 LINE",
"748 1366 OFFCURVE",
"642 1490 OFFCURVE",
"466 1490 CURVE SMOOTH",
"276 1490 OFFCURVE",
"146 1348 OFFCURVE",
"146 1140 CURVE SMOOTH",
"146 918 OFFCURVE",
"290 818 OFFCURVE",
"476 730 CURVE SMOOTH",
"590 676 OFFCURVE",
"778 596 OFFCURVE",
"778 366 CURVE SMOOTH",
"778 168 OFFCURVE",
"640 44 OFFCURVE",
"488 44 CURVE SMOOTH",
"348 44 OFFCURVE",
"222 138 OFFCURVE",
"174 288 CURVE",
"110 262 LINE",
"162 128 OFFCURVE",
"286 -16 OFFCURVE",
"480 -16 CURVE SMOOTH"
);
}
);
userData = {
RMXScaler = {
height = 139;
width = 140;
};
};
width = 966;
},
{
anchors = (
{
name = bottom;
position = "{558, 0}";
},
{
name = cedilla;
position = "{586, 0}";
},
{
name = top;
position = "{520, 1474}";
}
);
guideLines = (
{
angle = 22.5;
position = "{308, 288}";
},
{
angle = 90;
position = "{76, -108}";
},
{
angle = 90;
position = "{528, -108}";
}
);
layerId = "2D8F7115-C311-411E-929D-56333CF7FFB2";
paths = (
{
closed = 1;
nodes = (
"800 -16 OFFCURVE",
"1002 198 OFFCURVE",
"998 454 CURVE SMOOTH",
"994 730 OFFCURVE",
"808 824 OFFCURVE",
"706 862 CURVE SMOOTH",
"658 880 OFFCURVE",
"436 938 OFFCURVE",
"436 1054 CURVE SMOOTH",
"436 1116 OFFCURVE",
"464 1164 OFFCURVE",
"520 1164 CURVE SMOOTH",
"568 1164 OFFCURVE",
"616 1094 OFFCURVE",
"636 1036 CURVE",
"972 1176 LINE",
"910 1356 OFFCURVE",
"754 1490 OFFCURVE",
"518 1490 CURVE SMOOTH",
"242 1490 OFFCURVE",
"68 1312 OFFCURVE",
"68 1062 CURVE SMOOTH",
"68 816 OFFCURVE",
"238 688 OFFCURVE",
"402 626 CURVE SMOOTH",
"498 590 OFFCURVE",
"628 558 OFFCURVE",
"628 444 CURVE SMOOTH",
"628 376 OFFCURVE",
"590 320 OFFCURVE",
"540 320 CURVE SMOOTH",
"458 320 OFFCURVE",
"402 418 OFFCURVE",
"378 504 CURVE",
"24 356 LINE",
"86 148 OFFCURVE",
"314 -16 OFFCURVE",
"530 -16 CURVE SMOOTH"
);
}
);
userData = {
RMXScaler = {
height = 137;
weight = 160;
width = 140;
};
};
width = 1036;
},
{
anchors = (
{
name = bottom;
position = "{508, 0}";
},
{
name = cedilla;
position = "{514, 0}";
},
{
name = top;
position = "{498, 1474}";
}
);
layerId = "FD1CEFBD-BAB1-4C2A-A598-30E93F9A29F6";
paths = (
{
closed = 1;
nodes = (
"720 -16 OFFCURVE",
"900 150 OFFCURVE",
"900 402 CURVE SMOOTH",
"900 700 OFFCURVE",
"650 792 OFFCURVE",
"548 836 CURVE SMOOTH",
"458 876 OFFCURVE",
"308 946 OFFCURVE",
"308 1116 CURVE SMOOTH",
"308 1252 OFFCURVE",
"396 1326 OFFCURVE",
"490 1326 CURVE SMOOTH",
"602 1326 OFFCURVE",
"674 1234 OFFCURVE",
"702 1164 CURVE",
"864 1228 LINE",
"810 1364 OFFCURVE",
"686 1490 OFFCURVE",
"490 1490 CURVE SMOOTH",
"278 1490 OFFCURVE",
"132 1344 OFFCURVE",
"132 1120 CURVE SMOOTH",
"132 882 OFFCURVE",
"284 760 OFFCURVE",
"452 692 CURVE SMOOTH",
"534 660 OFFCURVE",
"724 592 OFFCURVE",
"724 394 CURVE SMOOTH",
"724 250 OFFCURVE",
"622 148 OFFCURVE",
"508 148 CURVE SMOOTH",
"384 148 OFFCURVE",
"292 262 OFFCURVE",
"258 390 CURVE",
"90 320 LINE",
"140 148 OFFCURVE",
"308 -16 OFFCURVE",
"512 -16 CURVE SMOOTH"
);
}
);
userData = {
RMXScaler = {
height = 139;
width = 140;
};
};
width = 998;
}
);
leftKerningGroup = LAT_S_UC;
rightKerningGroup = LAT_S_UC;
userData = {
RMXScaler = {
source = s;
};
};
},
{
glyphname = S.002;
lastChange = "2021-11-19 06:27:33 +0000";
layers = (
{
anchors = (
{
name = bottom;
position = "{472, 0}";
},
{
name = cedilla;
position = "{452, 0}";
},
{
name = top;
position = "{446, 1474}";
}
);
background = {
paths = (
{
closed = 1;
nodes = (
"692 -16 OFFCURVE",
"856 148 OFFCURVE",
"856 368 CURVE SMOOTH",
"856 586 OFFCURVE",
"692 684 OFFCURVE",
"508 788 CURVE SMOOTH",
"318 896 OFFCURVE",
"176 972 OFFCURVE",
"176 1150 CURVE SMOOTH",
"176 1302 OFFCURVE",
"282 1426 OFFCURVE",
"442 1426 CURVE SMOOTH",
"574 1426 OFFCURVE",
"700 1344 OFFCURVE",
"758 1242 CURVE",
"788 1304 LINE",
"718 1418 OFFCURVE",
"582 1486 OFFCURVE",
"446 1486 CURVE SMOOTH",
"246 1486 OFFCURVE",
"112 1344 OFFCURVE",
"112 1154 CURVE SMOOTH",
"112 934 OFFCURVE",
"294 834 OFFCURVE",
"474 734 CURVE SMOOTH",
"660 630 OFFCURVE",
"792 556 OFFCURVE",
"792 372 CURVE SMOOTH",
"792 186 OFFCURVE",
"658 44 OFFCURVE",
"482 44 CURVE SMOOTH",
"326 44 OFFCURVE",
"184 156 OFFCURVE",
"112 320 CURVE",
"80 242 LINE",
"158 86 OFFCURVE",
"320 -16 OFFCURVE",
"484 -16 CURVE SMOOTH"
);
}
);
};
guideLines = (
{
angle = 67.5;
position = "{112, 320}";
}
);
layerId = "AB099EFE-E788-4EFC-8633-CF147CB782A6";
paths = (
{
closed = 1;
nodes = (
"692 -16 OFFCURVE",
"856 144 OFFCURVE",
"856 378 CURVE SMOOTH",
"856 588 OFFCURVE",
"726 704 OFFCURVE",
"494 794 CURVE SMOOTH",
"266 882 OFFCURVE",
"176 984 OFFCURVE",
"176 1138 CURVE SMOOTH",
"176 1308 OFFCURVE",
"282 1426 OFFCURVE",
"442 1426 CURVE SMOOTH",
"574 1426 OFFCURVE",
"700 1344 OFFCURVE",
"758 1242 CURVE",
"788 1304 LINE",
"718 1418 OFFCURVE",
"582 1486 OFFCURVE",
"446 1486 CURVE SMOOTH",
"246 1486 OFFCURVE",
"112 1346 OFFCURVE",
"112 1148 CURVE SMOOTH",
"112 964 OFFCURVE",
"226 836 OFFCURVE",
"426 756 CURVE SMOOTH",
"666 660 OFFCURVE",
"792 582 OFFCURVE",
"792 384 CURVE SMOOTH",
"792 180 OFFCURVE",
"658 44 OFFCURVE",
"484 44 CURVE SMOOTH",
"326 44 OFFCURVE",
"184 156 OFFCURVE",
"112 320 CURVE",
"80 242 LINE",
"158 86 OFFCURVE",
"320 -16 OFFCURVE",
"486 -16 CURVE SMOOTH"
);
}
);
userData = {
RMXScaler = {
height = 139;
width = 140;
};
};
width = 928;
},
{
anchors = (
{
name = bottom;
position = "{540, 0}";
},
{
name = cedilla;
position = "{564, 0}";
},
{
name = top;
position = "{506, 1474}";
}
);
background = {
paths = (
{
closed = 1;
nodes = (
"794 -16 OFFCURVE",
"996 198 OFFCURVE",
"992 454 CURVE SMOOTH",
"988 730 OFFCURVE",
"802 824 OFFCURVE",
"700 862 CURVE SMOOTH",
"652 880 OFFCURVE",
"430 938 OFFCURVE",
"430 1054 CURVE SMOOTH",
"430 1116 OFFCURVE",
"458 1164 OFFCURVE",
"514 1164 CURVE SMOOTH",
"562 1164 OFFCURVE",
"610 1094 OFFCURVE",
"630 1036 CURVE",
"966 1176 LINE",
"904 1356 OFFCURVE",
"748 1490 OFFCURVE",
"512 1490 CURVE SMOOTH",
"236 1490 OFFCURVE",
"62 1312 OFFCURVE",
"62 1062 CURVE SMOOTH",
"62 816 OFFCURVE",
"232 688 OFFCURVE",
"396 626 CURVE SMOOTH",
"492 590 OFFCURVE",
"622 558 OFFCURVE",
"622 444 CURVE SMOOTH",
"622 376 OFFCURVE",
"584 320 OFFCURVE",
"534 320 CURVE SMOOTH",
"452 320 OFFCURVE",
"396 418 OFFCURVE",
"372 504 CURVE",
"18 356 LINE",
"80 148 OFFCURVE",
"308 -16 OFFCURVE",
"524 -16 CURVE SMOOTH"
);
}
);
};
guideLines = (
{
angle = 22.5;
position = "{302, 288}";
},
{
angle = 90;
position = "{70, -108}";
},
{
angle = 90;
position = "{522, -108}";
}
);
layerId = "2D8F7115-C311-411E-929D-56333CF7FFB2";
paths = (
{
closed = 1;
nodes = (
"802 -16 OFFCURVE",
"1016 164 OFFCURVE",
"1016 438 CURVE SMOOTH",
"1016 676 OFFCURVE",
"850 812 OFFCURVE",
"638 888 CURVE SMOOTH",
"504 936 OFFCURVE",
"450 978 OFFCURVE",
"450 1040 CURVE SMOOTH",
"450 1104 OFFCURVE",
"508 1142 OFFCURVE",
"578 1142 CURVE SMOOTH",
"668 1142 OFFCURVE",
"790 1080 OFFCURVE",
"838 1022 CURVE",
"970 1334 LINE",
"850 1438 OFFCURVE",
"698 1488 OFFCURVE",
"554 1488 CURVE SMOOTH",
"288 1488 OFFCURVE",
"76 1316 OFFCURVE",
"76 1054 CURVE SMOOTH",
"76 800 OFFCURVE",
"280 666 OFFCURVE",
"450 606 CURVE SMOOTH",
"580 560 OFFCURVE",
"652 512 OFFCURVE",
"652 442 CURVE SMOOTH",
"652 384 OFFCURVE",
"604 334 OFFCURVE",
"510 334 CURVE SMOOTH",
"396 334 OFFCURVE",
"270 410 OFFCURVE",
"182 512 CURVE",
"40 172 LINE",
"156 68 OFFCURVE",
"350 -16 OFFCURVE",
"534 -16 CURVE SMOOTH"
);
}
);
userData = {
RMXScaler = {
height = 137;
weight = 160;
width = 140;
};
};
width = 1052;
},
{
anchors = (
{
name = bottom;
position = "{490, 0}";
},
{
name = cedilla;
position = "{490, 0}";
},
{
name = top;
position = "{478, 1474}";
}
);
background = {
paths = (
{
closed = 1;
nodes = (
"716 -16 OFFCURVE",
"892 152 OFFCURVE",
"892 396 CURVE SMOOTH",
"892 628 OFFCURVE",
"732 728 OFFCURVE",
"566 818 CURVE SMOOTH",
"412 902 OFFCURVE",
"268 966 OFFCURVE",
"268 1112 CURVE SMOOTH",
"268 1222 OFFCURVE",
"348 1314 OFFCURVE",
"474 1314 CURVE SMOOTH",
"592 1314 OFFCURVE",
"696 1236 OFFCURVE",
"770 1134 CURVE",
"846 1306 LINE",
"754 1420 OFFCURVE",
"616 1490 OFFCURVE",
"468 1490 CURVE SMOOTH",
"246 1490 OFFCURVE",
"92 1330 OFFCURVE",
"92 1116 CURVE SMOOTH",
"92 888 OFFCURVE",
"266 786 OFFCURVE",
"440 688 CURVE SMOOTH",
"600 598 OFFCURVE",
"712 538 OFFCURVE",
"712 398 CURVE SMOOTH",
"712 264 OFFCURVE",
"610 160 OFFCURVE",
"484 160 CURVE SMOOTH",
"366 160 OFFCURVE",
"230 252 OFFCURVE",
"138 394 CURVE",
"48 222 LINE",
"154 86 OFFCURVE",
"322 -16 OFFCURVE",
"494 -16 CURVE SMOOTH"
);
}
);
};
guideLines = (
{
angle = 67.5;
position = "{112, 320}";
}
);
layerId = "FD1CEFBD-BAB1-4C2A-A598-30E93F9A29F6";
paths = (
{
closed = 1;
nodes = (
"716 -16 OFFCURVE",
"892 150 OFFCURVE",
"892 402 CURVE SMOOTH",
"892 654 OFFCURVE",
"718 778 OFFCURVE",
"526 838 CURVE SMOOTH",
"374 886 OFFCURVE",
"268 962 OFFCURVE",
"268 1104 CURVE SMOOTH",
"268 1228 OFFCURVE",
"350 1314 OFFCURVE",
"474 1314 CURVE SMOOTH",
"592 1314 OFFCURVE",
"696 1236 OFFCURVE",
"770 1134 CURVE",
"846 1306 LINE",
"754 1420 OFFCURVE",
"616 1490 OFFCURVE",
"472 1490 CURVE SMOOTH",
"246 1490 OFFCURVE",
"92 1334 OFFCURVE",
"92 1110 CURVE SMOOTH",
"92 888 OFFCURVE",
"242 740 OFFCURVE",
"446 676 CURVE SMOOTH",
"610 624 OFFCURVE",
"712 552 OFFCURVE",
"712 406 CURVE SMOOTH",
"712 260 OFFCURVE",
"610 160 OFFCURVE",
"486 160 CURVE SMOOTH",
"366 160 OFFCURVE",
"230 252 OFFCURVE",
"138 394 CURVE",
"48 222 LINE",
"154 86 OFFCURVE",
"322 -16 OFFCURVE",
"496 -16 CURVE SMOOTH"
);
}
);
userData = {
RMXScaler = {
height = 139;
width = 140;
};
};
width = 960;
}
);
leftKerningGroup = LAT_S_UC;
rightKerningGroup = LAT_S_UC;
userData = {
RMXScaler = {
source = s;
};
};
},
{
glyphname = S.003;
layers = (
{
anchors = (
{
name = bottom;
position = "{476, 0}";
},
{
name = cedilla;
position = "{456, 0}";
},
{
name = top;
position = "{450, 1474}";
}
);
background = {
paths = (
{
closed = 1;
nodes = (
"692 -16 OFFCURVE",
"856 144 OFFCURVE",
"856 378 CURVE SMOOTH",
"856 588 OFFCURVE",
"726 704 OFFCURVE",
"494 794 CURVE SMOOTH",
"266 882 OFFCURVE",
"176 984 OFFCURVE",
"176 1138 CURVE SMOOTH",
"176 1308 OFFCURVE",
"282 1426 OFFCURVE",
"442 1426 CURVE SMOOTH",
"574 1426 OFFCURVE",
"700 1344 OFFCURVE",
"758 1242 CURVE",
"788 1304 LINE",
"718 1418 OFFCURVE",
"582 1486 OFFCURVE",
"446 1486 CURVE SMOOTH",
"246 1486 OFFCURVE",
"112 1346 OFFCURVE",
"112 1148 CURVE SMOOTH",
"112 964 OFFCURVE",
"226 836 OFFCURVE",
"426 756 CURVE SMOOTH",
"666 660 OFFCURVE",
"792 582 OFFCURVE",
"792 384 CURVE SMOOTH",
"792 180 OFFCURVE",
"658 44 OFFCURVE",
"484 44 CURVE SMOOTH",
"326 44 OFFCURVE",
"184 156 OFFCURVE",
"112 320 CURVE",
"80 242 LINE",
"158 86 OFFCURVE",
"320 -16 OFFCURVE",
"486 -16 CURVE SMOOTH"
);
}
);
};
guideLines = (
{
angle = 67.5;
position = "{136, 320}";
}
);
layerId = "AB099EFE-E788-4EFC-8633-CF147CB782A6";
paths = (
{
closed = 1;
nodes = (
"696 -16 OFFCURVE",
"860 148 OFFCURVE",
"860 378 CURVE SMOOTH",
"860 596 OFFCURVE",
"712 680 OFFCURVE",
"504 790 CURVE SMOOTH",
"310 894 OFFCURVE",
"180 960 OFFCURVE",
"180 1140 CURVE SMOOTH",
"180 1304 OFFCURVE",
"286 1426 OFFCURVE",
"446 1426 CURVE SMOOTH",
"578 1426 OFFCURVE",
"704 1344 OFFCURVE",
"762 1242 CURVE",
"792 1304 LINE",
"722 1418 OFFCURVE",
"586 1486 OFFCURVE",
"448 1486 CURVE SMOOTH",
"250 1486 OFFCURVE",
"116 1344 OFFCURVE",
"116 1148 CURVE SMOOTH",
"116 942 OFFCURVE",
"264 848 OFFCURVE",
"464 742 CURVE SMOOTH",
"638 650 OFFCURVE",
"796 588 OFFCURVE",
"796 378 CURVE SMOOTH",
"796 184 OFFCURVE",
"662 44 OFFCURVE",
"486 44 CURVE SMOOTH",
"330 44 OFFCURVE",
"188 156 OFFCURVE",
"116 320 CURVE",
"84 242 LINE",
"162 86 OFFCURVE",
"324 -16 OFFCURVE",
"488 -16 CURVE SMOOTH"
);
}
);
userData = {
RMXScaler = {
height = 139;
width = 140;
};
};
width = 936;
},
{
anchors = (
{
name = bottom;
position = "{540, 0}";
},
{
name = cedilla;
position = "{564, 0}";
},
{
name = top;
position = "{506, 1474}";
}
);
background = {
paths = (
{
closed = 1;
nodes = (
"794 -16 OFFCURVE",
"996 198 OFFCURVE",
"992 454 CURVE SMOOTH",
"988 730 OFFCURVE",
"802 824 OFFCURVE",
"700 862 CURVE SMOOTH",
"652 880 OFFCURVE",
"430 938 OFFCURVE",
"430 1054 CURVE SMOOTH",
"430 1116 OFFCURVE",
"458 1164 OFFCURVE",
"514 1164 CURVE SMOOTH",
"562 1164 OFFCURVE",
"610 1094 OFFCURVE",
"630 1036 CURVE",
"966 1176 LINE",
"904 1356 OFFCURVE",
"748 1490 OFFCURVE",
"512 1490 CURVE SMOOTH",
"236 1490 OFFCURVE",
"62 1312 OFFCURVE",
"62 1062 CURVE SMOOTH",
"62 816 OFFCURVE",
"232 688 OFFCURVE",
"396 626 CURVE SMOOTH",
"492 590 OFFCURVE",
"622 558 OFFCURVE",
"622 444 CURVE SMOOTH",
"622 376 OFFCURVE",
"584 320 OFFCURVE",
"534 320 CURVE SMOOTH",
"452 320 OFFCURVE",
"396 418 OFFCURVE",
"372 504 CURVE",
"18 356 LINE",
"80 148 OFFCURVE",
"308 -16 OFFCURVE",
"524 -16 CURVE SMOOTH"
);
}
);
};
guideLines = (
{
angle = 22.5;
position = "{302, 288}";
},
{
angle = 90;
position = "{70, -108}";
},
{
angle = 90;
position = "{522, -108}";
}
);
layerId = "2D8F7115-C311-411E-929D-56333CF7FFB2";
paths = (
{
closed = 1;
nodes = (
"802 -16 OFFCURVE",
"1016 164 OFFCURVE",
"1016 438 CURVE SMOOTH",
"1016 676 OFFCURVE",
"850 812 OFFCURVE",
"638 888 CURVE SMOOTH",
"504 936 OFFCURVE",
"450 978 OFFCURVE",
"450 1040 CURVE SMOOTH",
"450 1104 OFFCURVE",
"508 1142 OFFCURVE",
"578 1142 CURVE SMOOTH",
"668 1142 OFFCURVE",
"790 1080 OFFCURVE",
"838 1022 CURVE",
"970 1334 LINE",
"850 1438 OFFCURVE",
"698 1488 OFFCURVE",
"554 1488 CURVE SMOOTH",
"288 1488 OFFCURVE",
"76 1316 OFFCURVE",
"76 1054 CURVE SMOOTH",
"76 800 OFFCURVE",
"280 666 OFFCURVE",
"450 606 CURVE SMOOTH",
"580 560 OFFCURVE",
"652 512 OFFCURVE",
"652 442 CURVE SMOOTH",
"652 384 OFFCURVE",
"604 334 OFFCURVE",
"510 334 CURVE SMOOTH",
"396 334 OFFCURVE",
"270 410 OFFCURVE",
"182 512 CURVE",
"40 172 LINE",
"156 68 OFFCURVE",
"350 -16 OFFCURVE",
"534 -16 CURVE SMOOTH"
);
}
);
userData = {
RMXScaler = {
height = 137;
weight = 160;
width = 140;
};
};
width = 1052;
},
{
anchors = (
{
name = bottom;
position = "{494, 0}";
},
{
name = cedilla;
position = "{494, 0}";
},
{
name = top;
position = "{482, 1474}";
}
);
background = {
paths = (
{
closed = 1;
nodes = (
"716 -16 OFFCURVE",
"892 150 OFFCURVE",
"892 402 CURVE SMOOTH",
"892 654 OFFCURVE",
"718 778 OFFCURVE",
"526 838 CURVE SMOOTH",
"374 886 OFFCURVE",
"268 962 OFFCURVE",
"268 1104 CURVE SMOOTH",
"268 1228 OFFCURVE",
"350 1314 OFFCURVE",
"474 1314 CURVE SMOOTH",
"592 1314 OFFCURVE",
"696 1236 OFFCURVE",
"770 1134 CURVE",
"846 1306 LINE",
"754 1420 OFFCURVE",
"616 1490 OFFCURVE",
"472 1490 CURVE SMOOTH",
"246 1490 OFFCURVE",
"92 1334 OFFCURVE",
"92 1110 CURVE SMOOTH",
"92 888 OFFCURVE",
"242 740 OFFCURVE",
"446 676 CURVE SMOOTH",
"610 624 OFFCURVE",
"712 552 OFFCURVE",
"712 406 CURVE SMOOTH",
"712 260 OFFCURVE",
"610 160 OFFCURVE",
"486 160 CURVE SMOOTH",
"366 160 OFFCURVE",
"230 252 OFFCURVE",
"138 394 CURVE",
"48 222 LINE",
"154 86 OFFCURVE",
"322 -16 OFFCURVE",
"496 -16 CURVE SMOOTH"
);
}
);
};
guideLines = (
{
angle = 67.5;
position = "{126, 320}";
}
);
layerId = "FD1CEFBD-BAB1-4C2A-A598-30E93F9A29F6";
paths = (
{
closed = 1;
nodes = (
"720 -16 OFFCURVE",
"896 152 OFFCURVE",
"896 400 CURVE SMOOTH",
"896 644 OFFCURVE",
"728 740 OFFCURVE",
"558 824 CURVE SMOOTH",
"386 908 OFFCURVE",
"272 970 OFFCURVE",
"272 1108 CURVE SMOOTH",
"272 1224 OFFCURVE",
"354 1314 OFFCURVE",
"478 1314 CURVE SMOOTH",
"596 1314 OFFCURVE",
"700 1236 OFFCURVE",
"774 1134 CURVE",
"850 1306 LINE",
"758 1420 OFFCURVE",
"620 1490 OFFCURVE",
"472 1490 CURVE SMOOTH",
"250 1490 OFFCURVE",
"96 1330 OFFCURVE",
"96 1110 CURVE SMOOTH",
"96 894 OFFCURVE",
"246 784 OFFCURVE",
"446 684 CURVE SMOOTH",
"614 600 OFFCURVE",
"716 542 OFFCURVE",
"716 404 CURVE SMOOTH",
"716 264 OFFCURVE",
"614 160 OFFCURVE",
"488 160 CURVE SMOOTH",
"370 160 OFFCURVE",
"234 252 OFFCURVE",
"142 394 CURVE",
"52 222 LINE",
"158 86 OFFCURVE",
"326 -16 OFFCURVE",
"498 -16 CURVE SMOOTH"
);
}
);
userData = {
RMXScaler = {
height = 139;
width = 140;
};
};
width = 968;
}
);
leftKerningGroup = LAT_S_UC;
rightKerningGroup = LAT_S_UC;
userData = {
RMXScaler = {
source = s;
};
};
},
{
glyphname = Germandbls;
lastChange = "2021-11-21 07:46:37 +0000";
layers = (
{
layerId = "AB099EFE-E788-4EFC-8633-CF147CB782A6";
paths = (
{
closed = 1;
nodes = (
"846 -16 OFFCURVE",
"1024 190 OFFCURVE",
"1024 458 CURVE SMOOTH",
"1024 714 OFFCURVE",
"866 906 OFFCURVE",
"596 892 CURVE",
"622 860 LINE",
"828 1414 LINE",
"828 1430 LINE",
"730 1476 OFFCURVE",
"610 1490 OFFCURVE",
"524 1490 CURVE SMOOTH",
"170 1490 OFFCURVE",
"170 1220 OFFCURVE",
"170 1126 CURVE SMOOTH",
"170 0 LINE",
"234 0 LINE",
"234 1132 LINE SMOOTH",
"234 1220 OFFCURVE",
"236 1430 OFFCURVE",
"512 1430 CURVE SMOOTH",
"602 1430 OFFCURVE",
"714 1412 OFFCURVE",
"768 1386 CURVE",
"764 1420 LINE",
"560 864 LINE",
"560 836 LINE",
"598 836 LINE SMOOTH",
"824 836 OFFCURVE",
"960 688 OFFCURVE",
"960 460 CURVE SMOOTH",
"960 208 OFFCURVE",
"796 44 OFFCURVE",
"614 44 CURVE SMOOTH",
"562 44 OFFCURVE",
"494 60 OFFCURVE",
"446 80 CURVE",
"446 16 LINE",
"484 -4 OFFCURVE",
"552 -16 OFFCURVE",
"608 -16 CURVE SMOOTH"
);
}
);
width = 1144;
},
{
layerId = "2D8F7115-C311-411E-929D-56333CF7FFB2";
paths = (
{
closed = 1;
nodes = (
"1056 -16 OFFCURVE",
"1248 180 OFFCURVE",
"1248 480 CURVE SMOOTH",
"1248 714 OFFCURVE",
"1144 902 OFFCURVE",
"950 934 CURVE",
"954 766 LINE",
"1166 1340 LINE",
"1166 1376 LINE",
"1074 1438 OFFCURVE",
"852 1490 OFFCURVE",
"656 1490 CURVE SMOOTH",
"340 1490 OFFCURVE",
"90 1324 OFFCURVE",
"90 1020 CURVE SMOOTH",
"90 0 LINE",
"458 0 LINE",
"458 974 LINE SMOOTH",
"458 1030 OFFCURVE",
"468 1170 OFFCURVE",
"674 1170 CURVE SMOOTH",
"748 1170 OFFCURVE",
"786 1152 OFFCURVE",
"792 1126 CURVE",
"772 1216 LINE",
"634 738 LINE",
"634 676 LINE",
"736 676 LINE SMOOTH",
"848 676 OFFCURVE",
"890 586 OFFCURVE",
"888 484 CURVE SMOOTH",
"886 370 OFFCURVE",
"834 312 OFFCURVE",
"724 312 CURVE SMOOTH",
"704 312 OFFCURVE",
"694 314 OFFCURVE",
"638 324 CURVE",
"638 -12 LINE",
"678 -12 OFFCURVE",
"696 -16 OFFCURVE",
"738 -16 CURVE SMOOTH"
);
}
);
width = 1292;
},
{
layerId = "FD1CEFBD-BAB1-4C2A-A598-30E93F9A29F6";
paths = (
{
closed = 1;
nodes = (
"920 -16 OFFCURVE",
"1108 176 OFFCURVE",
"1108 466 CURVE SMOOTH",
"1108 712 OFFCURVE",
"972 902 OFFCURVE",
"728 910 CURVE",
"752 830 LINE",
"958 1386 LINE",
"958 1410 LINE",
"856 1462 OFFCURVE",
"704 1490 OFFCURVE",
"572 1490 CURVE SMOOTH",
"296 1490 OFFCURVE",
"144 1346 OFFCURVE",
"144 1088 CURVE SMOOTH",
"144 0 LINE",
"320 0 LINE",
"320 1076 LINE SMOOTH",
"320 1222 OFFCURVE",
"380 1330 OFFCURVE",
"578 1330 CURVE SMOOTH",
"660 1330 OFFCURVE",
"750 1308 OFFCURVE",
"778 1286 CURVE",
"768 1346 LINE",
"590 822 LINE",
"590 776 LINE",
"652 776 LINE SMOOTH",
"832 776 OFFCURVE",
"932 658 OFFCURVE",
"932 472 CURVE SMOOTH",
"932 282 OFFCURVE",
"822 144 OFFCURVE",
"658 144 CURVE SMOOTH",
"630 144 OFFCURVE",
"590 148 OFFCURVE",
"520 172 CURVE",
"520 8 LINE",
"556 -8 OFFCURVE",
"614 -16 OFFCURVE",
"662 -16 CURVE SMOOTH"
);
}
);
width = 1200;
}
);
leftKerningGroup = LAT_GERMANDBLS_UC;
rightKerningGroup = LAT_GERMANDBLS_UC;
rightMetricsKey = B;
unicode = 1E9E;
},
{
glyphname = Schwa;
lastChange = "2021-11-21 07:46:37 +0000";
layers = (
{
anchors = (
{
name = bottom;
position = "{644, 0}";
},
{
name = top;
position = "{644, 1474}";
}
);
layerId = "AB099EFE-E788-4EFC-8633-CF147CB782A6";
paths = (
{
closed = 1;
nodes = (
"934 -16 OFFCURVE",
"1174 312 OFFCURVE",
"1174 748 CURVE SMOOTH",
"1174 1170 OFFCURVE",
"964 1490 OFFCURVE",
"624 1490 CURVE SMOOTH",
"462 1490 OFFCURVE",
"294 1418 OFFCURVE",
"212 1336 CURVE",
"240 1272 LINE",
"316 1366 OFFCURVE",
"478 1430 OFFCURVE",
"618 1430 CURVE SMOOTH",
"924 1430 OFFCURVE",
"1110 1126 OFFCURVE",
"1110 738 CURVE SMOOTH",
"1110 332 OFFCURVE",
"890 44 OFFCURVE",
"604 44 CURVE SMOOTH",
"310 44 OFFCURVE",
"174 346 OFFCURVE",
"174 698 CURVE",
"1134 698 LINE",
"1134 758 LINE",
"112 758 LINE",
"112 704 LINE SMOOTH",
"112 274 OFFCURVE",
"290 -16 OFFCURVE",
"602 -16 CURVE SMOOTH"
);
}
);
width = 1286;
},
{
anchors = (
{
name = bottom;
position = "{644, 0}";
},
{
name = top;
position = "{650, 1474}";
}
);
layerId = "2D8F7115-C311-411E-929D-56333CF7FFB2";
paths = (
{
closed = 1;
nodes = (
"1026 -16 OFFCURVE",
"1286 286 OFFCURVE",
"1286 740 CURVE SMOOTH",
"1286 1210 OFFCURVE",
"1006 1490 OFFCURVE",
"624 1490 CURVE SMOOTH",
"470 1490 OFFCURVE",
"302 1444 OFFCURVE",
"192 1378 CURVE",
"330 1054 LINE",
"378 1110 OFFCURVE",
"498 1156 OFFCURVE",
"606 1156 CURVE SMOOTH",
"792 1156 OFFCURVE",
"906 1016 OFFCURVE",
"906 732 CURVE SMOOTH",
"906 454 OFFCURVE",
"798 312 OFFCURVE",
"634 312 CURVE SMOOTH",
"496 312 OFFCURVE",
"398 414 OFFCURVE",
"402 562 CURVE",
"926 562 LINE",
"926 866 LINE",
"56 866 LINE",
"56 638 LINE SMOOTH",
"56 250 OFFCURVE",
"296 -16 OFFCURVE",
"650 -16 CURVE SMOOTH"
);
}
);
width = 1314;
},
{
anchors = (
{
name = bottom;
position = "{632, 0}";
},
{
name = top;
position = "{644, 1474}";
}
);
layerId = "FD1CEFBD-BAB1-4C2A-A598-30E93F9A29F6";
paths = (
{
closed = 1;
nodes = (
"964 -16 OFFCURVE",
"1218 292 OFFCURVE",
"1218 732 CURVE SMOOTH",
"1218 1182 OFFCURVE",
"956 1490 OFFCURVE",
"604 1490 CURVE SMOOTH",
"454 1490 OFFCURVE",
"302 1434 OFFCURVE",
"196 1352 CURVE",
"264 1188 LINE",
"340 1274 OFFCURVE",
"466 1330 OFFCURVE",
"590 1330 CURVE SMOOTH",
"854 1330 OFFCURVE",
"1042 1088 OFFCURVE",
"1042 734 CURVE SMOOTH",
"1042 386 OFFCURVE",
"860 144 OFFCURVE",
"618 144 CURVE SMOOTH",
"394 144 OFFCURVE",
"256 350 OFFCURVE",
"256 640 CURVE",
"1068 640 LINE",
"1068 800 LINE",
"84 800 LINE",
"84 674 LINE SMOOTH",
"84 264 OFFCURVE",
"292 -16 OFFCURVE",
"620 -16 CURVE SMOOTH"
);
}
);
width = 1298;
}
);
leftKerningGroup = LAT_SCHWA_UC;
rightKerningGroup = LAT_O_UC;
rightMetricsKey = O;
unicode = 018F;
},
{
glyphname = T;
lastChange = "2021-11-21 07:46:37 +0000";
layers = (
{
anchors = (
{
name = bottom;
position = "{460, 0}";
},
{
name = cedilla;
position = "{460, 0}";
},
{
name = center;
position = "{460, 738}";
},
{
name = top;
position = "{460, 1474}";
}
);
layerId = "AB099EFE-E788-4EFC-8633-CF147CB782A6";
paths = (
{
closed = 1;
nodes = (
"492 0 LINE",
"492 1432 LINE",
"428 1432 LINE",
"428 0 LINE"
);
},
{
closed = 1;
nodes = (
"846 1414 LINE",
"846 1474 LINE",
"74 1474 LINE",
"74 1414 LINE"
);
}
);
width = 920;
},
{
anchors = (
{
name = bottom;
position = "{492, 0}";
},
{
name = cedilla;
position = "{494, 0}";
},
{
name = center;
position = "{492, 672}";
},
{
name = top;
position = "{492, 1474}";
}
);
layerId = "2D8F7115-C311-411E-929D-56333CF7FFB2";
paths = (
{
closed = 1;
nodes = (
"676 0 LINE",
"676 1196 LINE",
"308 1196 LINE",
"308 0 LINE"
);
},
{
closed = 1;
nodes = (
"960 1146 LINE",
"960 1474 LINE",
"26 1474 LINE",
"26 1146 LINE"
);
}
);
width = 986;
},
{
anchors = (
{
name = bottom;
position = "{474, 0}";
},
{
name = cedilla;
position = "{472, 0}";
},
{
name = center;
position = "{474, 712}";
},
{
name = top;
position = "{474, 1474}";
}
);
layerId = "FD1CEFBD-BAB1-4C2A-A598-30E93F9A29F6";
paths = (
{
closed = 1;
nodes = (
"562 0 LINE",
"562 1348 LINE",
"388 1348 LINE",
"388 0 LINE"
);
},
{
closed = 1;
nodes = (
"894 1314 LINE",
"894 1474 LINE",
"60 1474 LINE",
"60 1314 LINE"
);
}
);
width = 954;
}
);
leftKerningGroup = LAT_T_UC;
rightKerningGroup = LAT_T_UC;
unicode = 0054;
},
{
glyphname = U;
lastChange = "2021-11-21 07:46:37 +0000";
layers = (
{
anchors = (
{
name = bottom;
position = "{598, 0}";
},
{
name = horn;
position = "{980, 1474}";
},
{
name = ogonek;
position = "{710, 0}";
},
{
name = top;
position = "{598, 1474}";
}
);
layerId = "AB099EFE-E788-4EFC-8633-CF147CB782A6";
paths = (
{
closed = 1;
nodes = (
"182 158 OFFCURVE",
"346 -16 OFFCURVE",
"598 -16 CURVE SMOOTH",
"848 -16 OFFCURVE",
"1010 158 OFFCURVE",
"1010 424 CURVE SMOOTH",
"1010 1474 LINE",
"946 1474 LINE",
"946 424 LINE SMOOTH",
"946 194 OFFCURVE",
"810 44 OFFCURVE",
"598 44 CURVE SMOOTH",
"384 44 OFFCURVE",
"246 194 OFFCURVE",
"246 424 CURVE SMOOTH",
"246 1474 LINE",
"182 1474 LINE",
"182 424 LINE SMOOTH"
);
}
);
width = 1192;
},
{
anchors = (
{
name = bottom;
position = "{628, 0}";
},
{
name = horn;
position = "{1072, 1474}";
},
{
name = ogonek;
position = "{750, 0}";
},
{
name = top;
position = "{628, 1474}";
}
);
layerId = "2D8F7115-C311-411E-929D-56333CF7FFB2";
paths = (
{
closed = 1;
nodes = (
"100 191 OFFCURVE",
"307 -16 OFFCURVE",
"628 -16 CURVE SMOOTH",
"949 -16 OFFCURVE",
"1156 191 OFFCURVE",
"1156 510 CURVE SMOOTH",
"1156 1474 LINE",
"788 1474 LINE",
"788 484 LINE SMOOTH",
"788 371 OFFCURVE",
"725 296 OFFCURVE",
"628 294 CURVE SMOOTH",
"531 296 OFFCURVE",
"468 371 OFFCURVE",
"468 484 CURVE SMOOTH",
"468 1474 LINE",
"100 1474 LINE",
"100 510 LINE SMOOTH"
);
}
);
width = 1256;
},
{
anchors = (
{
name = bottom;
position = "{608, 0}";
},
{
name = horn;
position = "{1016, 1474}";
},
{
name = ogonek;
position = "{726, 0}";
},
{
name = top;
position = "{608, 1474}";
}
);
layerId = "FD1CEFBD-BAB1-4C2A-A598-30E93F9A29F6";
paths = (
{
closed = 1;
nodes = (
"152 172 OFFCURVE",
"332 -16 OFFCURVE",
"608 -16 CURVE SMOOTH",
"888 -16 OFFCURVE",
"1066 172 OFFCURVE",
"1066 458 CURVE SMOOTH",
"1066 1474 LINE",
"890 1474 LINE",
"890 458 LINE SMOOTH",
"890 270 OFFCURVE",
"780 144 OFFCURVE",
"608 144 CURVE SMOOTH",
"438 144 OFFCURVE",
"328 270 OFFCURVE",
"328 458 CURVE SMOOTH",
"328 1474 LINE",
"152 1474 LINE",
"152 458 LINE SMOOTH"
);
}
);
width = 1218;
}
);
leftKerningGroup = LAT_U_UC;
leftMetricsKey = H;
rightKerningGroup = LAT_U_UC;
rightMetricsKey = H;
unicode = 0055;
},
{
glyphname = V;
lastChange = "2021-11-21 07:46:37 +0000";
layers = (
{
anchors = (
{
name = bottom;
position = "{590, 0}";
},
{
name = top;
position = "{590, 1474}";
}
);
layerId = "AB099EFE-E788-4EFC-8633-CF147CB782A6";
paths = (
{
closed = 1;
nodes = (
"616 0 LINE",
"1116 1474 LINE",
"1050 1474 LINE",
"756 596 LINE",
"594 108 LINE",
"586 108 LINE",
"424 596 LINE",
"130 1474 LINE",
"64 1474 LINE",
"564 0 LINE"
);
}
);
width = 1180;
},
{
anchors = (
{
name = bottom;
position = "{646, 0}";
},
{
name = top;
position = "{642, 1474}";
}
);
background = {
components = (
{
name = A;
transform = "{1, 0, 0, -1, 0, 1474}";
}
);
};
layerId = "2D8F7115-C311-411E-929D-56333CF7FFB2";
paths = (
{
closed = 1;
nodes = (
"810 0 LINE",
"1316 1474 LINE",
"920 1474 LINE",
"760 916 LINE",
"654 526 LINE",
"646 526 LINE",
"540 916 LINE",
"374 1474 LINE",
"-16 1474 LINE",
"490 0 LINE"
);
}
);
width = 1300;
},
{
anchors = (
{
name = bottom;
position = "{614, 0}";
},
{
name = top;
position = "{614, 1474}";
}
);
background = {
components = (
{
name = A;
transform = "{1, 0, 0, -1, 6, 1474}";
}
);
};
layerId = "FD1CEFBD-BAB1-4C2A-A598-30E93F9A29F6";
paths = (
{
closed = 1;
nodes = (
"684 0 LINE",
"1196 1474 LINE",
"1012 1474 LINE",
"766 726 LINE",
"616 270 LINE",
"608 270 LINE",
"458 726 LINE",
"214 1474 LINE",
"28 1474 LINE",
"540 0 LINE"
);
}
);
width = 1224;
}
);
leftKerningGroup = LAT_V_UC;
rightKerningGroup = LAT_V_UC;
unicode = 0056;
},
{
glyphname = W;
lastChange = "2021-11-21 07:46:37 +0000";
layers = (
{
anchors = (
{
name = bottom;
position = "{796, 0}";
},
{
name = top;
position = "{796, 1474}";
}
);
layerId = "AB099EFE-E788-4EFC-8633-CF147CB782A6";
paths = (
{
closed = 1;
nodes = (
"406 0 LINE",
"484 0 LINE",
"794 1212 LINE",
"798 1212 LINE",
"1110 0 LINE",
"1186 0 LINE",
"1528 1474 LINE",
"1462 1474 LINE",
"1194 280 LINE",
"1152 82 LINE",
"1144 82 LINE",
"816 1376 LINE",
"776 1376 LINE",
"448 82 LINE",
"442 82 LINE",
"402 280 LINE",
"132 1474 LINE",
"64 1474 LINE"
);
}
);
width = 1592;
},
{
anchors = (
{
name = bottom;
position = "{900, 0}";
},
{
name = top;
position = "{900, 1474}";
}
);
background = {
paths = (
{
closed = 1;
nodes = (
"364 0 LINE",
"654 0 LINE",
"894 638 LINE",
"902 638 LINE",
"1140 0 LINE",
"1436 0 LINE",
"1804 1474 LINE",
"1424 1474 LINE",
"1310 880 LINE",
"1234 512 LINE",
"1226 512 LINE",
"970 1306 LINE",
"824 1306 LINE",
"568 512 LINE",
"562 512 LINE",
"486 880 LINE",
"376 1474 LINE",
"-8 1474 LINE"
);
}
);
};
layerId = "2D8F7115-C311-411E-929D-56333CF7FFB2";
paths = (
{
closed = 1;
nodes = (
"394 0 LINE",
"680 0 LINE",
"918 590 LINE",
"922 590 LINE",
"1160 0 LINE",
"1452 0 LINE",
"1856 1474 LINE",
"1480 1474 LINE",
"1352 966 LINE",
"1274 602 LINE",
"1264 602 LINE",
"992 1298 LINE",
"848 1298 LINE",
"576 602 LINE",
"568 602 LINE",
"490 966 LINE",
"366 1474 LINE",
"-16 1474 LINE"
);
}
);
width = 1840;
},
{
anchors = (
{
name = bottom;
position = "{836, 0}";
},
{
name = top;
position = "{836, 1474}";
}
);
layerId = "FD1CEFBD-BAB1-4C2A-A598-30E93F9A29F6";
paths = (
{
closed = 1;
nodes = (
"404 0 LINE",
"560 0 LINE",
"834 888 LINE",
"838 888 LINE",
"1110 0 LINE",
"1268 0 LINE",
"1636 1474 LINE",
"1458 1474 LINE",
"1258 620 LINE",
"1182 288 LINE",
"1174 288 LINE",
"872 1326 LINE",
"798 1326 LINE",
"498 288 LINE",
"490 288 LINE",
"412 620 LINE",
"214 1474 LINE",
"36 1474 LINE"
);
}
);
width = 1672;
}
);
leftKerningGroup = LAT_W_UC;
rightKerningGroup = LAT_W_UC;
unicode = 0057;
},
{
color = 9;
glyphname = W.ss03;
lastChange = "2021-05-03 01:08:30 +0000";
layers = (
{
anchors = (
{
name = bottom;
position = "{806, -50}";
},
{
name = top;
position = "{800, 1544}";
}
);
layerId = "AB099EFE-E788-4EFC-8633-CF147CB782A6";
paths = (
{
closed = 1;
nodes = (
"402 0 LINE",
"482 0 LINE",
"620 600 LINE",
"794 1352 LINE",
"800 1352 LINE",
"972 600 LINE",
"1112 0 LINE",
"1188 0 LINE",
"1532 1474 LINE",
"1464 1474 LINE",
"1266 592 LINE",
"1156 78 LINE",
"1148 78 LINE",
"1030 592 LINE",
"822 1474 LINE",
"772 1474 LINE",
"564 592 LINE",
"446 78 LINE",
"438 78 LINE",
"326 592 LINE",
"130 1474 LINE",
"62 1474 LINE"
);
}
);
width = 1594;
},
{
anchors = (
{
name = bottom;
position = "{880, -50}";
},
{
name = top;
position = "{872, 1524}";
}
);
layerId = "2D8F7115-C311-411E-929D-56333CF7FFB2";
paths = (
{
closed = 1;
nodes = (
"292 0 LINE",
"646 0 LINE",
"792 484 LINE",
"874 812 LINE",
"880 812 LINE",
"954 484 LINE",
"1106 0 LINE",
"1456 0 LINE",
"1734 1474 LINE",
"1358 1474 LINE",
"1290 884 LINE",
"1250 492 LINE",
"1238 492 LINE",
"1164 812 LINE",
"978 1474 LINE",
"772 1474 LINE",
"590 816 LINE",
"512 492 LINE",
"504 492 LINE",
"460 884 LINE",
"396 1474 LINE",
"14 1474 LINE"
);
}
);
width = 1748;
},
{
anchors = (
{
name = bottom;
position = "{826, -12}";
},
{
name = top;
position = "{822, 1490}";
}
);
layerId = "FD1CEFBD-BAB1-4C2A-A598-30E93F9A29F6";
paths = (
{
closed = 1;
nodes = (
"378 0 LINE",
"550 0 LINE",
"676 480 LINE",
"820 1094 LINE",
"826 1094 LINE",
"970 480 LINE",
"1096 0 LINE",
"1268 0 LINE",
"1606 1474 LINE",
"1426 1474 LINE",
"1258 688 LINE",
"1180 274 LINE",
"1172 274 LINE",
"1068 708 LINE",
"876 1474 LINE",
"770 1474 LINE",
"576 708 LINE",
"472 274 LINE",
"466 274 LINE",
"386 688 LINE",
"224 1474 LINE",
"38 1474 LINE"
);
}
);
width = 1644;
}
);
leftKerningGroup = LAT_W_UC;
rightKerningGroup = LAT_W_UC;
},
{
glyphname = X;
lastChange = "2021-11-21 07:46:37 +0000";
layers = (
{
anchors = (
{
name = bottom;
position = "{546, 0}";
},
{
name = top;
position = "{546, 1474}";
}
);
layerId = "AB099EFE-E788-4EFC-8633-CF147CB782A6";
paths = (
{
closed = 1;
nodes = (
"168 0 LINE",
"544 690 LINE",
"552 690 LINE",
"592 730 LINE",
"592 738 LINE",
"1000 1474 LINE",
"928 1474 LINE",
"548 784 LINE",
"540 784 LINE",
"500 742 LINE",
"500 734 LINE",
"92 0 LINE"
);
},
{
closed = 1;
nodes = (
"1000 0 LINE",
"592 734 LINE",
"592 742 LINE",
"552 784 LINE",
"544 784 LINE",
"166 1474 LINE",
"92 1474 LINE",
"500 738 LINE",
"500 730 LINE",
"540 690 LINE",
"548 690 LINE",
"924 0 LINE"
);
}
);
width = 1092;
},
{
anchors = (
{
name = bottom;
position = "{650, 0}";
},
{
name = top;
position = "{650, 1474}";
}
);
layerId = "2D8F7115-C311-411E-929D-56333CF7FFB2";
paths = (
{
closed = 1;
nodes = (
"440 0 LINE",
"648 462 LINE",
"654 462 LINE",
"906 738 LINE",
"906 742 LINE",
"1286 1474 LINE",
"854 1474 LINE",
"650 974 LINE",
"644 974 LINE",
"396 738 LINE",
"396 734 LINE",
"6 0 LINE"
);
},
{
closed = 1;
nodes = (
"1294 0 LINE",
"906 734 LINE",
"906 738 LINE",
"654 974 LINE",
"648 974 LINE",
"440 1474 LINE",
"14 1474 LINE",
"396 742 LINE",
"396 738 LINE",
"644 462 LINE",
"650 462 LINE",
"856 0 LINE"
);
}
);
width = 1300;
},
{
anchors = (
{
name = bottom;
position = "{576, 0}";
},
{
name = top;
position = "{576, 1474}";
}
);
layerId = "FD1CEFBD-BAB1-4C2A-A598-30E93F9A29F6";
paths = (
{
closed = 1;
nodes = (
"266 0 LINE",
"574 604 LINE",
"582 604 LINE",
"692 734 LINE",
"692 742 LINE",
"1086 1474 LINE",
"886 1474 LINE",
"580 862 LINE",
"570 862 LINE",
"456 742 LINE",
"456 734 LINE",
"60 0 LINE"
);
},
{
closed = 1;
nodes = (
"1092 0 LINE",
"692 734 LINE",
"692 742 LINE",
"582 862 LINE",
"574 862 LINE",
"264 1474 LINE",
"66 1474 LINE",
"456 742 LINE",
"456 734 LINE",
"570 604 LINE",
"580 604 LINE",
"886 0 LINE"
);
}
);
width = 1152;
}
);
leftKerningGroup = LAT_X_UC;
rightKerningGroup = LAT_X_UC;
unicode = 0058;
},
{
glyphname = Y;
lastChange = "2021-11-21 07:46:37 +0000";
layers = (
{
anchors = (
{
name = bottom;
position = "{534, 0}";
},
{
name = top;
position = "{534, 1474}";
}
);
layerId = "AB099EFE-E788-4EFC-8633-CF147CB782A6";
paths = (
{
closed = 1;
nodes = (
"502 0 LINE",
"566 0 LINE",
"566 680 LINE",
"1000 1474 LINE",
"928 1474 LINE",
"700 1042 LINE",
"536 748 LINE",
"530 748 LINE",
"366 1042 LINE",
"138 1474 LINE",
"66 1474 LINE",
"502 680 LINE"
);
}
);
width = 1066;
},
{
anchors = (
{
name = bottom;
position = "{594, 0}";
},
{
name = top;
position = "{594, 1474}";
}
);
layerId = "2D8F7115-C311-411E-929D-56333CF7FFB2";
paths = (
{
closed = 1;
nodes = (
"410 0 LINE",
"778 0 LINE",
"778 552 LINE",
"1210 1474 LINE",
"788 1474 LINE",
"704 1208 LINE",
"598 906 LINE",
"592 906 LINE",
"486 1208 LINE",
"402 1474 LINE",
"-20 1474 LINE",
"410 552 LINE"
);
}
);
width = 1190;
},
{
anchors = (
{
name = bottom;
position = "{558, 0}";
},
{
name = top;
position = "{558, 1474}";
}
);
layerId = "FD1CEFBD-BAB1-4C2A-A598-30E93F9A29F6";
paths = (
{
closed = 1;
nodes = (
"470 0 LINE",
"646 0 LINE",
"646 636 LINE",
"1082 1474 LINE",
"880 1474 LINE",
"704 1104 LINE",
"564 810 LINE",
"556 810 LINE",
"414 1104 LINE",
"238 1474 LINE",
"36 1474 LINE",
"470 636 LINE"
);
}
);
width = 1118;
}
);
leftKerningGroup = LAT_Y_UC;
rightKerningGroup = LAT_Y_UC;
unicode = 0059;
},
{
glyphname = Z;
lastChange = "2021-11-21 07:48:58 +0000";
layers = (
{
anchors = (
{
name = bottom;
position = "{564, 0}";
},
{
name = top;
position = "{558, 1474}";
}
);
guideLines = (
{
angle = 58;
position = "{218, 112}";
}
);
layerId = "AB099EFE-E788-4EFC-8633-CF147CB782A6";
paths = (
{
closed = 1;
nodes = (
"128 0 LINE",
"950 0 LINE",
"950 60 LINE",
"214 60 LINE",
"214 68 LINE",
"930 1438 LINE",
"930 1474 LINE",
"172 1474 LINE",
"172 1414 LINE",
"846 1414 LINE",
"846 1406 LINE",
"128 36 LINE"
);
}
);
width = 1078;
},
{
anchors = (
{
name = bottom;
position = "{528, 0}";
},
{
name = top;
position = "{528, 1474}";
}
);
guideLines = (
{
angle = 63;
position = "{190, 112}";
}
);
layerId = "2D8F7115-C311-411E-929D-56333CF7FFB2";
paths = (
{
closed = 1;
nodes = (
"34 0 LINE",
"1034 0 LINE",
"1034 324 LINE",
"574 324 LINE",
"574 328 LINE",
"1020 1422 LINE",
"1020 1474 LINE",
"52 1474 LINE",
"52 1150 LINE",
"482 1150 LINE",
"482 1146 LINE",
"34 50 LINE"
);
}
);
width = 1066;
},
{
anchors = (
{
name = bottom;
position = "{530, 0}";
},
{
name = top;
position = "{526, 1474}";
}
);
layerId = "FD1CEFBD-BAB1-4C2A-A598-30E93F9A29F6";
paths = (
{
closed = 1;
nodes = (
"96 0 LINE",
"944 0 LINE",
"944 160 LINE",
"340 160 LINE",
"340 164 LINE",
"940 1434 LINE",
"940 1474 LINE",
"142 1474 LINE",
"142 1314 LINE",
"696 1314 LINE",
"696 1310 LINE",
"96 40 LINE"
);
}
);
width = 1038;
}
);
leftKerningGroup = LAT_Z_UC;
rightKerningGroup = LAT_Z_UC;
unicode = 005A;
},
{
glyphname = a;
lastChange = "2021-11-19 08:32:24 +0000";
layers = (
{
anchors = (
{
name = bottom;
position = "{446, 0}";
},
{
name = ogonek;
position = "{802, -16}";
},
{
name = top;
position = "{458, 1048}";
}
);
guideLines = (
{
angle = 112.5;
position = "{262, 738}";
},
{
angle = 67.5;
position = "{1136, 740}";
}
);
layerId = "AB099EFE-E788-4EFC-8633-CF147CB782A6";
paths = (
{
closed = 1;
nodes = (
"526 -16 OFFCURVE",
"628 44 OFFCURVE",
"688 158 CURVE",
"672 150 LINE",
"696 150 LINE",
"688 158 LINE",
"698 72 OFFCURVE",
"726 30 OFFCURVE",
"782 -4 CURVE SMOOTH",
"802 -16 LINE",
"826 42 LINE",
"818 46 LINE SMOOTH",
"778 66 OFFCURVE",
"746 106 OFFCURVE",
"746 206 CURVE SMOOTH",
"746 752 LINE SMOOTH",
"746 956 OFFCURVE",
"652 1064 OFFCURVE",
"462 1064 CURVE SMOOTH",
"342 1064 OFFCURVE",
"234 1020 OFFCURVE",
"154 950 CURVE",
"176 898 LINE",
"254 966 OFFCURVE",
"352 1008 OFFCURVE",
"460 1008 CURVE SMOOTH",
"606 1008 OFFCURVE",
"686 924 OFFCURVE",
"686 760 CURVE SMOOTH",
"686 562 LINE",
"686 552 LINE",
"686 334 LINE SMOOTH",
"686 168 OFFCURVE",
"560 40 OFFCURVE",
"402 40 CURVE SMOOTH",
"258 40 OFFCURVE",
"168 148 OFFCURVE",
"168 284 CURVE SMOOTH",
"168 448 OFFCURVE",
"302 550 OFFCURVE",
"496 550 CURVE SMOOTH",
"706 550 LINE",
"706 606 LINE",
"496 606 LINE SMOOTH",
"268 606 OFFCURVE",
"108 482 OFFCURVE",
"108 284 CURVE SMOOTH",
"108 122 OFFCURVE",
"214 -16 OFFCURVE",
"402 -16 CURVE SMOOTH"
);
}
);
width = 938;
},
{
anchors = (
{
name = bottom;
position = "{488, 0}";
},
{
name = ogonek;
position = "{876, -16}";
},
{
name = top;
position = "{514, 1080}";
}
);
guideLines = (
{
angle = 67.5;
position = "{1186, 740}";
},
{
angle = 112.5;
position = "{306, 500}";
}
);
layerId = "2D8F7115-C311-411E-929D-56333CF7FFB2";
paths = (
{
closed = 1;
nodes = (
"536 -16 OFFCURVE",
"638 66 OFFCURVE",
"664 140 CURVE",
"558 118 LINE",
"714 118 LINE",
"628 180 LINE",
"642 106 OFFCURVE",
"724 32 OFFCURVE",
"836 -4 CURVE SMOOTH",
"874 -16 LINE",
"994 274 LINE",
"972 282 LINE SMOOTH",
"938 294 OFFCURVE",
"918 338 OFFCURVE",
"918 396 CURVE SMOOTH",
"918 750 LINE SMOOTH",
"918 982 OFFCURVE",
"768 1098 OFFCURVE",
"516 1098 CURVE SMOOTH",
"336 1098 OFFCURVE",
"188 1038 OFFCURVE",
"92 996 CURVE",
"200 734 LINE",
"266 776 OFFCURVE",
"382 814 OFFCURVE",
"462 814 CURVE SMOOTH",
"540 814 OFFCURVE",
"588 778 OFFCURVE",
"588 708 CURVE SMOOTH",
"588 552 LINE",
"604 512 LINE",
"604 372 LINE SMOOTH",
"604 274 OFFCURVE",
"524 244 OFFCURVE",
"476 244 CURVE SMOOTH",
"426 244 OFFCURVE",
"374 280 OFFCURVE",
"374 342 CURVE SMOOTH",
"374 412 OFFCURVE",
"446 440 OFFCURVE",
"520 440 CURVE SMOOTH",
"640 440 LINE",
"640 652 LINE",
"468 652 LINE SMOOTH",
"218 652 OFFCURVE",
"46 528 OFFCURVE",
"46 324 CURVE SMOOTH",
"46 150 OFFCURVE",
"170 -16 OFFCURVE",
"386 -16 CURVE SMOOTH"
);
}
);
width = 1028;
},
{
anchors = (
{
name = bottom;
position = "{462, 0}";
},
{
name = ogonek;
position = "{820, -16}";
},
{
name = top;
position = "{472, 1060}";
}
);
background = {
components = (
{
name = u;
transform = "{1, 0, 0, 1, -72, 0}";
}
);
};
guideLines = (
{
angle = 67.5;
position = "{1150, 740}";
},
{
angle = 112.5;
position = "{244, 722}";
}
);
layerId = "FD1CEFBD-BAB1-4C2A-A598-30E93F9A29F6";
paths = (
{
closed = 1;
nodes = (
"528 -16 OFFCURVE",
"634 60 OFFCURVE",
"688 174 CURVE",
"636 136 LINE",
"694 136 LINE",
"666 168 LINE",
"670 110 OFFCURVE",
"720 34 OFFCURVE",
"796 -4 CURVE SMOOTH",
"820 -16 LINE",
"882 130 LINE",
"864 140 LINE SMOOTH",
"824 162 OFFCURVE",
"802 198 OFFCURVE",
"802 264 CURVE SMOOTH",
"802 760 LINE SMOOTH",
"802 952 OFFCURVE",
"666 1076 OFFCURVE",
"462 1076 CURVE SMOOTH",
"348 1076 OFFCURVE",
"218 1036 OFFCURVE",
"128 970 CURVE",
"190 824 LINE",
"252 880 OFFCURVE",
"354 922 OFFCURVE",
"448 922 CURVE SMOOTH",
"562 922 OFFCURVE",
"646 854 OFFCURVE",
"646 744 CURVE SMOOTH",
"646 558 LINE",
"650 500 LINE",
"650 382 LINE SMOOTH",
"650 230 OFFCURVE",
"544 126 OFFCURVE",
"416 126 CURVE SMOOTH",
"310 126 OFFCURVE",
"238 198 OFFCURVE",
"238 306 CURVE SMOOTH",
"238 424 OFFCURVE",
"332 496 OFFCURVE",
"492 496 CURVE SMOOTH",
"678 496 LINE",
"678 628 LINE",
"488 628 LINE SMOOTH",
"244 628 OFFCURVE",
"82 508 OFFCURVE",
"82 300 CURVE SMOOTH",
"82 116 OFFCURVE",
"212 -16 OFFCURVE",
"392 -16 CURVE SMOOTH"
);
}
);
width = 952;
}
);
leftKerningGroup = LAT_ASS02_LC;
rightKerningGroup = LAT_A_LC;
rightMetricsKey = u;
unicode = 0061;
},
{
color = 4;
glyphname = a.ss01;
lastChange = "2021-11-19 08:27:05 +0000";
layers = (
{
anchors = (
{
name = bottom;
position = "{530, 0}";
},
{
name = center;
position = "{550, 524}";
},
{
name = ogonek;
position = "{950, 0}";
},
{
name = top;
position = "{550, 1048}";
},
{
name = topright;
position = "{1072, 1048}";
}
);
components = (
{
alignment = -1;
name = _part.bowl.ss01;
transform = "{-1, 0, 0, 1, 1104, 0}";
}
);
layerId = "AB099EFE-E788-4EFC-8633-CF147CB782A6";
paths = (
{
closed = 1;
nodes = (
"950 0 LINE",
"950 1048 LINE",
"888 1048 LINE",
"888 810 LINE",
"872 810 LINE",
"894 760 LINE",
"894 288 LINE",
"868 240 LINE",
"888 240 LINE",
"888 0 LINE"
);
}
);
width = 1096;
},
{
anchors = (
{
name = bottom;
position = "{586, 0}";
},
{
name = center;
position = "{576, 540}";
},
{
name = ogonek;
position = "{1036, 0}";
},
{
name = top;
position = "{592, 1080}";
},
{
name = topright;
position = "{1104, 1080}";
}
);
components = (
{
alignment = -1;
name = _part.bowl.ss01;
transform = "{-1, 0, 0, 1, 1142, 0}";
}
);
layerId = "2D8F7115-C311-411E-929D-56333CF7FFB2";
paths = (
{
closed = 1;
nodes = (
"1036 0 LINE",
"1036 1082 LINE",
"706 1082 LINE",
"706 964 LINE",
"668 964 LINE",
"708 860 LINE",
"708 180 LINE",
"678 122 LINE",
"706 122 LINE",
"706 0 LINE"
);
}
);
width = 1114;
},
{
anchors = (
{
name = bottom;
position = "{554, 0}";
},
{
name = center;
position = "{566, 536}";
},
{
name = ogonek;
position = "{986, 0}";
},
{
name = top;
position = "{572, 1060}";
},
{
name = topright;
position = "{1080, 1060}";
}
);
components = (
{
alignment = -1;
name = _part.bowl.ss01;
transform = "{-1, 0, 0, 1, 1126, 0}";
}
);
layerId = "FD1CEFBD-BAB1-4C2A-A598-30E93F9A29F6";
paths = (
{
closed = 1;
nodes = (
"986 0 LINE",
"986 1060 LINE",
"824 1060 LINE",
"824 902 LINE",
"798 902 LINE",
"834 846 LINE",
"834 214 LINE",
"800 158 LINE",
"824 158 LINE",
"824 0 LINE"
);
}
);
width = 1106;
}
);
leftKerningGroup = LAT_O_LC;
leftMetricsKey = o;
rightKerningGroup = LAT_ASS01_LC;
},
{
color = 6;
glyphname = a.ss02;
lastChange = "2021-11-19 08:27:11 +0000";
layers = (
{
anchors = (
{
name = bottom;
position = "{512, 0}";
},
{
name = ogonek;
position = "{944, -16}";
},
{
name = top;
position = "{514, 1048}";
},
{
name = topright;
position = "{998, 1048}";
}
);
components = (
{
name = _part.bowl;
transform = "{-1, 0, 0, 1, 1042, 0}";
}
);
layerId = "AB099EFE-E788-4EFC-8633-CF147CB782A6";
paths = (
{
closed = 1;
nodes = (
"968 38 LINE",
"908 72 OFFCURVE",
"888 118 OFFCURVE",
"888 220 CURVE SMOOTH",
"888 1048 LINE",
"828 1048 LINE",
"828 834 LINE",
"804 834 LINE",
"832 748 LINE",
"832 294 LINE",
"810 222 LINE",
"838 222 LINE",
"830 234 LINE",
"832 88 OFFCURVE",
"862 40 OFFCURVE",
"944 -16 CURVE"
);
}
);
width = 1080;
},
{
anchors = (
{
name = bottom;
position = "{536, 0}";
},
{
name = ogonek;
position = "{962, -16}";
},
{
name = top;
position = "{534, 1080}";
},
{
name = topright;
position = "{1062, 1080}";
}
);
components = (
{
name = _part.bowl;
transform = "{-1, 0, 0, 1, 1090, 0}";
}
);
layerId = "2D8F7115-C311-411E-929D-56333CF7FFB2";
paths = (
{
closed = 1;
nodes = (
"1082 274 LINE",
"1024 300 OFFCURVE",
"1010 318 OFFCURVE",
"1010 416 CURVE SMOOTH",
"1010 1080 LINE",
"680 1080 LINE",
"680 980 LINE",
"636 980 LINE",
"676 884 LINE",
"676 274 LINE",
"640 144 LINE",
"720 144 LINE",
"708 160 LINE",
"738 80 OFFCURVE",
"830 22 OFFCURVE",
"962 -16 CURVE"
);
}
);
width = 1116;
},
{
anchors = (
{
name = bottom;
position = "{526, 0}";
},
{
name = ogonek;
position = "{938, -16}";
},
{
name = top;
position = "{534, 1060}";
},
{
name = topright;
position = "{1022, 1060}";
}
);
components = (
{
alignment = -1;
name = _part.bowl;
transform = "{-1, 0, 0, 1, 1054, 0}";
}
);
layerId = "FD1CEFBD-BAB1-4C2A-A598-30E93F9A29F6";
paths = (
{
closed = 1;
nodes = (
"1000 132 LINE",
"938 162 OFFCURVE",
"926 204 OFFCURVE",
"926 294 CURVE SMOOTH",
"926 1060 LINE",
"764 1060 LINE",
"764 922 LINE",
"718 922 LINE",
"784 818 LINE",
"784 290 LINE",
"740 168 LINE",
"818 168 LINE",
"782 198 LINE",
"790 86 OFFCURVE",
"850 32 OFFCURVE",
"938 -16 CURVE"
);
}
);
width = 1070;
}
);
leftKerningGroup = LAT_O_LC;
leftMetricsKey = o;
rightKerningGroup = LAT_A_LC;
rightMetricsKey = u;
},
{
glyphname = ae;
lastChange = "2021-11-19 08:32:24 +0000";
layers = (
{
anchors = (
{
name = bottom;
position = "{730, 0}";
},
{
name = top;
position = "{716, 1048}";
}
);
background = {
paths = (
{
closed = 1;
nodes = (
"1168 -16 OFFCURVE",
"1274 34 OFFCURVE",
"1352 108 CURVE",
"1328 172 LINE",
"1258 94 OFFCURVE",
"1160 40 OFFCURVE",
"1054 40 CURVE SMOOTH",
"864 40 OFFCURVE",
"728 226 OFFCURVE",
"730 528 CURVE SMOOTH",
"730 808 OFFCURVE",
"844 1008 OFFCURVE",
"1040 1008 CURVE SMOOTH",
"1222 1008 OFFCURVE",
"1338 834 OFFCURVE",
"1336 562 CURVE",
"714 562 LINE",
"714 506 LINE",
"1396 506 LINE",
"1398 520 OFFCURVE",
"1400 536 OFFCURVE",
"1400 548 CURVE SMOOTH",
"1400 860 OFFCURVE",
"1266 1064 OFFCURVE",
"1044 1064 CURVE SMOOTH",
"812 1064 OFFCURVE",
"672 842 OFFCURVE",
"672 532 CURVE SMOOTH",
"672 200 OFFCURVE",
"830 -16 OFFCURVE",
"1056 -16 CURVE SMOOTH"
);
}
);
};
layerId = "AB099EFE-E788-4EFC-8633-CF147CB782A6";
paths = (
{
closed = 1;
nodes = (
"564 -16 OFFCURVE",
"690 122 OFFCURVE",
"728 294 CURVE",
"718 294 LINE",
"774 102 OFFCURVE",
"881 -16 OFFCURVE",
"1058 -16 CURVE SMOOTH",
"1169 -16 OFFCURVE",
"1278 34 OFFCURVE",
"1356 108 CURVE",
"1332 172 LINE",
"1262 94 OFFCURVE",
"1161 40 OFFCURVE",
"1058 40 CURVE SMOOTH",
"869 40 OFFCURVE",
"742 234 OFFCURVE",
"742 538 CURVE SMOOTH",
"742 836 OFFCURVE",
"866 1008 OFFCURVE",
"1046 1008 CURVE SMOOTH",
"1234 1008 OFFCURVE",
"1344 824 OFFCURVE",
"1340 570 CURVE",
"730 570 LINE",
"730 514 LINE",
"1400 514 LINE",
"1402 530 OFFCURVE",
"1404 554 OFFCURVE",
"1404 572 CURVE SMOOTH",
"1404 872 OFFCURVE",
"1256 1064 OFFCURVE",
"1042 1064 CURVE SMOOTH",
"896 1064 OFFCURVE",
"780 968 OFFCURVE",
"722 780 CURVE",
"736 780 LINE",
"718 952 OFFCURVE",
"634 1064 OFFCURVE",
"462 1064 CURVE SMOOTH",
"352 1064 OFFCURVE",
"228 1016 OFFCURVE",
"158 950 CURVE",
"184 900 LINE",
"252 964 OFFCURVE",
"364 1008 OFFCURVE",
"460 1008 CURVE SMOOTH",
"676 1008 OFFCURVE",
"682 786 OFFCURVE",
"682 694 CURVE SMOOTH",
"682 398 LINE SMOOTH",
"682 158 OFFCURVE",
"520 40 OFFCURVE",
"384 40 CURVE SMOOTH",
"262 40 OFFCURVE",
"168 138 OFFCURVE",
"168 274 CURVE SMOOTH",
"168 426 OFFCURVE",
"282 514 OFFCURVE",
"518 514 CURVE SMOOTH",
"698 514 LINE",
"698 570 LINE",
"524 570 LINE SMOOTH",
"258 570 OFFCURVE",
"108 472 OFFCURVE",
"108 274 CURVE SMOOTH",
"108 98 OFFCURVE",
"226 -16 OFFCURVE",
"388 -16 CURVE SMOOTH"
);
}
);
width = 1508;
},
{
anchors = (
{
name = bottom;
position = "{748, 0}";
},
{
name = top;
position = "{756, 1080}";
}
);
background = {
components = (
{
name = a;
transform = "{0.99782, 0, 0, 1, 6, 0}";
}
);
};
layerId = "2D8F7115-C311-411E-929D-56333CF7FFB2";
paths = (
{
closed = 1;
nodes = (
"602 -16 OFFCURVE",
"738 92 OFFCURVE",
"766 226 CURVE",
"694 224 LINE",
"750 68 OFFCURVE",
"882 -16 OFFCURVE",
"1068 -16 CURVE SMOOTH",
"1178 -16 OFFCURVE",
"1320 14 OFFCURVE",
"1388 54 CURVE",
"1266 314 LINE",
"1236 280 OFFCURVE",
"1156 254 OFFCURVE",
"1082 254 CURVE SMOOTH",
"938 254 OFFCURVE",
"872 362 OFFCURVE",
"872 566 CURVE SMOOTH",
"872 736 OFFCURVE",
"920 834 OFFCURVE",
"1022 834 CURVE SMOOTH",
"1114 834 OFFCURVE",
"1158 754 OFFCURVE",
"1160 638 CURVE",
"812 638 LINE",
"812 434 LINE",
"1436 434 LINE",
"1442 466 OFFCURVE",
"1448 516 OFFCURVE",
"1448 582 CURVE SMOOTH",
"1448 894 OFFCURVE",
"1292 1096 OFFCURVE",
"1030 1096 CURVE SMOOTH",
"868 1096 OFFCURVE",
"762 1020 OFFCURVE",
"696 892 CURVE",
"806 892 LINE",
"766 1006 OFFCURVE",
"682 1096 OFFCURVE",
"466 1096 CURVE SMOOTH",
"288 1096 OFFCURVE",
"156 1040 OFFCURVE",
"92 996 CURVE",
"204 736 LINE",
"248 776 OFFCURVE",
"350 826 OFFCURVE",
"440 826 CURVE SMOOTH",
"536 826 OFFCURVE",
"580 770 OFFCURVE",
"580 674 CURVE SMOOTH",
"580 356 LINE SMOOTH",
"580 268 OFFCURVE",
"522 244 OFFCURVE",
"478 244 CURVE SMOOTH",
"428 244 OFFCURVE",
"378 280 OFFCURVE",
"378 342 CURVE SMOOTH",
"378 412 OFFCURVE",
"448 438 OFFCURVE",
"516 438 CURVE SMOOTH",
"632 438 LINE",
"632 652 LINE",
"464 652 LINE SMOOTH",
"216 652 OFFCURVE",
"46 526 OFFCURVE",
"46 328 CURVE SMOOTH",
"46 152 OFFCURVE",
"180 -16 OFFCURVE",
"412 -16 CURVE SMOOTH"
);
}
);
width = 1486;
},
{
anchors = (
{
name = bottom;
position = "{736, 0}";
},
{
name = top;
position = "{732, 1060}";
}
);
layerId = "FD1CEFBD-BAB1-4C2A-A598-30E93F9A29F6";
paths = (
{
closed = 1;
nodes = (
"586 -16 OFFCURVE",
"708 120 OFFCURVE",
"744 250 CURVE",
"706 250 LINE",
"772 86 OFFCURVE",
"882 -16 OFFCURVE",
"1052 -16 CURVE SMOOTH",
"1164 -16 OFFCURVE",
"1274 24 OFFCURVE",
"1350 80 CURVE",
"1292 230 LINE",
"1226 174 OFFCURVE",
"1134 136 OFFCURVE",
"1054 136 CURVE SMOOTH",
"908 136 OFFCURVE",
"784 274 OFFCURVE",
"784 540 CURVE SMOOTH",
"784 794 OFFCURVE",
"880 926 OFFCURVE",
"1034 926 CURVE SMOOTH",
"1170 926 OFFCURVE",
"1256 800 OFFCURVE",
"1252 608 CURVE",
"762 608 LINE",
"764 474 LINE",
"1396 474 LINE",
"1400 498 OFFCURVE",
"1404 530 OFFCURVE",
"1404 566 CURVE SMOOTH",
"1404 886 OFFCURVE",
"1258 1076 OFFCURVE",
"1040 1076 CURVE SMOOTH",
"892 1076 OFFCURVE",
"778 1000 OFFCURVE",
"716 858 CURVE",
"760 858 LINE",
"728 1000 OFFCURVE",
"630 1076 OFFCURVE",
"462 1076 CURVE SMOOTH",
"356 1076 OFFCURVE",
"224 1038 OFFCURVE",
"134 970 CURVE",
"194 824 LINE",
"256 880 OFFCURVE",
"356 922 OFFCURVE",
"448 922 CURVE SMOOTH",
"646 922 OFFCURVE",
"646 748 OFFCURVE",
"646 620 CURVE SMOOTH",
"646 390 LINE SMOOTH",
"646 232 OFFCURVE",
"528 132 OFFCURVE",
"410 132 CURVE SMOOTH",
"318 132 OFFCURVE",
"244 196 OFFCURVE",
"244 300 CURVE SMOOTH",
"244 410 OFFCURVE",
"328 474 OFFCURVE",
"476 474 CURVE SMOOTH",
"670 474 LINE",
"670 608 LINE",
"464 608 LINE SMOOTH",
"230 608 OFFCURVE",
"82 498 OFFCURVE",
"82 298 CURVE SMOOTH",
"82 106 OFFCURVE",
"214 -16 OFFCURVE",
"396 -16 CURVE SMOOTH"
);
}
);
width = 1482;
}
);
leftKerningGroup = LAT_ASS02_LC;
leftMetricsKey = a;
rightKerningGroup = LAT_E_LC;
rightMetricsKey = e;
unicode = 00E6;
},
{
glyphname = b;
lastChange = "2021-11-21 07:58:14 +0000";
layers = (
{
anchors = (
{
name = bottom;
position = "{528, 0}";
},
{
name = center;
position = "{184, 1262}";
},
{
name = top;
position = "{572, 1156}";
}
);
components = (
{
name = _part.bowl;
transform = "{1, 0, 0, 1, 4, 0}";
}
);
layerId = "AB099EFE-E788-4EFC-8633-CF147CB782A6";
paths = (
{
closed = 1;
nodes = (
"156 0 LINE",
"216 0 LINE",
"216 224 LINE",
"244 224 LINE",
"206 312 LINE",
"206 728 LINE",
"234 834 LINE",
"216 834 LINE",
"216 1540 LINE",
"156 1540 LINE"
);
}
);
width = 1046;
},
{
anchors = (
{
name = bottom;
position = "{550, 0}";
},
{
name = center;
position = "{248, 1298}";
},
{
name = top;
position = "{698, 1164}";
}
);
components = (
{
name = _part.bowl;
transform = "{1, 0, 0, 1, 2, 0}";
}
);
layerId = "2D8F7115-C311-411E-929D-56333CF7FFB2";
paths = (
{
closed = 1;
nodes = (
"74 0 LINE",
"404 0 LINE",
"404 114 LINE",
"448 114 LINE",
"410 226 LINE",
"410 816 LINE",
"450 994 LINE",
"426 994 LINE",
"426 1540 LINE",
"74 1540 LINE"
);
}
);
width = 1092;
},
{
anchors = (
{
name = bottom;
position = "{534, 0}";
},
{
name = center;
position = "{206, 1276}";
},
{
name = top;
position = "{612, 1160}";
}
);
components = (
{
alignment = -1;
name = _part.bowl;
transform = "{1, 0, 0, 1, 4, 0}";
}
);
layerId = "FD1CEFBD-BAB1-4C2A-A598-30E93F9A29F6";
paths = (
{
closed = 1;
nodes = (
"124 0 LINE",
"286 0 LINE",
"286 150 LINE",
"314 150 LINE",
"268 250 LINE",
"268 810 LINE",
"304 940 LINE",
"288 940 LINE",
"288 1540 LINE",
"124 1540 LINE"
);
}
);
width = 1058;
}
);
leftKerningGroup = LAT_H_UC;
leftMetricsKey = h;
rightKerningGroup = LAT_O_LC;
rightMetricsKey = o;
unicode = 0062;
},
{
color = 4;
glyphname = b.ss01;
lastChange = "2021-11-21 07:58:14 +0000";
layers = (
{
anchors = (
{
name = bottom;
position = "{532, 0}";
},
{
name = center;
position = "{186, 1262}";
},
{
name = top;
position = "{576, 1156}";
}
);
components = (
{
name = _part.bowl.ss01;
}
);
layerId = "AB099EFE-E788-4EFC-8633-CF147CB782A6";
paths = (
{
closed = 1;
nodes = (
"156 0 LINE",
"216 0 LINE",
"216 240 LINE",
"234 240 LINE",
"214 272 LINE",
"214 744 LINE",
"228 804 LINE",
"216 804 LINE",
"216 1540 LINE",
"156 1540 LINE"
);
}
);
width = 1104;
},
{
anchors = (
{
name = bottom;
position = "{550, 0}";
},
{
name = center;
position = "{248, 1298}";
},
{
name = top;
position = "{698, 1164}";
}
);
components = (
{
name = _part.bowl.ss01;
transform = "{1, 0, 0, 1, -34, 0}";
}
);
layerId = "2D8F7115-C311-411E-929D-56333CF7FFB2";
paths = (
{
closed = 1;
nodes = (
"74 0 LINE",
"404 0 LINE",
"404 122 LINE",
"450 122 LINE",
"398 226 LINE",
"398 816 LINE",
"450 990 LINE",
"426 990 LINE",
"426 1540 LINE",
"74 1540 LINE"
);
}
);
width = 1108;
},
{
anchors = (
{
name = bottom;
position = "{538, 0}";
},
{
name = center;
position = "{206, 1276}";
},
{
name = top;
position = "{612, 1160}";
}
);
components = (
{
alignment = -1;
name = _part.bowl.ss01;
transform = "{1, 0, 0, 1, -6, 0}";
}
);
layerId = "FD1CEFBD-BAB1-4C2A-A598-30E93F9A29F6";
paths = (
{
closed = 1;
nodes = (
"124 0 LINE",
"286 0 LINE",
"286 162 LINE",
"310 162 LINE",
"282 216 LINE",
"282 802 LINE",
"306 902 LINE",
"288 902 LINE",
"288 1540 LINE",
"124 1540 LINE"
);
}
);
width = 1120;
}
);
leftKerningGroup = LAT_L_LC;
leftMetricsKey = h;
rightKerningGroup = LAT_O_LC;
rightMetricsKey = o;
},
{
glyphname = c;
lastChange = "2021-11-19 08:27:05 +0000";
layers = (
{
anchors = (
{
name = base;
position = "{700, 0}";
},
{
name = bottom;
position = "{504, 0}";
},
{
name = cedilla;
position = "{516, 0}";
},
{
name = top;
position = "{504, 1048}";
}
);
layerId = "AB099EFE-E788-4EFC-8633-CF147CB782A6";
paths = (
{
closed = 1;
nodes = (
"618 -12 OFFCURVE",
"728 34 OFFCURVE",
"796 106 CURVE",
"770 166 LINE",
"716 92 OFFCURVE",
"620 44 OFFCURVE",
"524 44 CURVE SMOOTH",
"308 44 OFFCURVE",
"164 234 OFFCURVE",
"164 528 CURVE SMOOTH",
"164 820 OFFCURVE",
"308 1008 OFFCURVE",
"526 1008 CURVE SMOOTH",
"620 1008 OFFCURVE",
"716 966 OFFCURVE",
"766 900 CURVE",
"794 958 LINE",
"724 1022 OFFCURVE",
"618 1064 OFFCURVE",
"526 1064 CURVE SMOOTH",
"272 1064 OFFCURVE",
"104 854 OFFCURVE",
"104 528 CURVE SMOOTH",
"104 200 OFFCURVE",
"270 -12 OFFCURVE",
"520 -12 CURVE SMOOTH"
);
}
);
userData = {
RMXScaler = {
height = 71.5;
weight = 20;
width = 77;
};
};
width = 880;
},
{
anchors = (
{
name = base;
position = "{746, 0}";
},
{
name = bottom;
position = "{548, 0}";
},
{
name = cedilla;
position = "{558, 0}";
},
{
name = top;
position = "{560, 1080}";
}
);
layerId = "2D8F7115-C311-411E-929D-56333CF7FFB2";
paths = (
{
closed = 1;
nodes = (
"660 -12 OFFCURVE",
"754 20 OFFCURVE",
"826 66 CURVE",
"704 350 LINE",
"674 316 OFFCURVE",
"612 288 OFFCURVE",
"552 288 CURVE SMOOTH",
"438 288 OFFCURVE",
"368 392 OFFCURVE",
"368 544 CURVE SMOOTH",
"368 702 OFFCURVE",
"444 794 OFFCURVE",
"546 794 CURVE SMOOTH",
"598 794 OFFCURVE",
"650 772 OFFCURVE",
"700 726 CURVE",
"828 1002 LINE",
"748 1056 OFFCURVE",
"650 1096 OFFCURVE",
"528 1096 CURVE SMOOTH",
"244 1096 OFFCURVE",
"38 880 OFFCURVE",
"38 544 CURVE SMOOTH",
"38 206 OFFCURVE",
"248 -12 OFFCURVE",
"546 -12 CURVE SMOOTH"
);
}
);
userData = {
RMXScaler = {
height = 73.5;
weight = -50;
width = 73;
};
};
width = 854;
},
{
anchors = (
{
name = base;
position = "{722, 0}";
},
{
name = bottom;
position = "{520, 0}";
},
{
name = cedilla;
position = "{534, 0}";
},
{
name = top;
position = "{526, 1060}";
}
);
layerId = "FD1CEFBD-BAB1-4C2A-A598-30E93F9A29F6";
paths = (
{
closed = 1;
nodes = (
"638 -12 OFFCURVE",
"746 30 OFFCURVE",
"816 94 CURVE",
"756 236 LINE",
"708 178 OFFCURVE",
"620 140 OFFCURVE",
"536 140 CURVE SMOOTH",
"360 140 OFFCURVE",
"244 294 OFFCURVE",
"244 532 CURVE SMOOTH",
"244 770 OFFCURVE",
"360 924 OFFCURVE",
"534 924 CURVE SMOOTH",
"612 924 OFFCURVE",
"700 890 OFFCURVE",
"752 834 CURVE",
"814 972 LINE",
"740 1034 OFFCURVE",
"638 1078 OFFCURVE",
"522 1078 CURVE SMOOTH",
"262 1078 OFFCURVE",
"80 864 OFFCURVE",
"80 536 CURVE SMOOTH",
"80 204 OFFCURVE",
"264 -12 OFFCURVE",
"524 -12 CURVE SMOOTH"
);
}
);
userData = {
RMXScaler = {
height = 71.5;
weight = 20;
width = 77;
};
};
width = 878;
}
);
leftKerningGroup = LAT_O_LC;
leftMetricsKey = o;
rightKerningGroup = LAT_C_LC;
unicode = 0063;
userData = {
RMXScaler = {
source = C;
};
};
},
{
glyphname = d;
lastChange = "2021-11-19 08:27:11 +0000";
layers = (
{
anchors = (
{
name = bottom;
position = "{534, 0}";
},
{
name = center;
position = "{862, 1262}";
},
{
name = leghookretroflex;
position = "{862, 0}";
},
{
name = top;
position = "{860, 1540}";
},
{
name = topright;
position = "{900, 1540}";
}
);
components = (
{
name = _part.bowl;
transform = "{-1, 0, 0, 1, 1042, 0}";
}
);
layerId = "AB099EFE-E788-4EFC-8633-CF147CB782A6";
paths = (
{
closed = 1;
nodes = (
"970 38 LINE",
"906 76 OFFCURVE",
"890 118 OFFCURVE",
"890 232 CURVE SMOOTH",
"890 1540 LINE",
"830 1540 LINE",
"830 834 LINE",
"810 834 LINE",
"842 756 LINE",
"842 294 LINE",
"812 222 LINE",
"842 222 LINE",
"832 234 LINE",
"836 78 OFFCURVE",
"870 32 OFFCURVE",
"942 -16 CURVE"
);
}
);
width = 1068;
},
{
anchors = (
{
name = bottom;
position = "{536, 0}";
},
{
name = center;
position = "{830, 1298}";
},
{
name = leghookretroflex;
position = "{836, 0}";
},
{
name = top;
position = "{836, 1540}";
},
{
name = topright;
position = "{996, 1540}";
}
);
background = {
components = (
{
name = u;
transform = "{1, 0, 0, 1, 34, 0}";
}
);
};
components = (
{
name = _part.bowl;
transform = "{-1, 0, 0, 1, 1090, 0}";
}
);
layerId = "2D8F7115-C311-411E-929D-56333CF7FFB2";
paths = (
{
closed = 1;
nodes = (
"1088 274 LINE",
"1036 296 OFFCURVE",
"1012 320 OFFCURVE",
"1012 392 CURVE SMOOTH",
"1012 1540 LINE",
"660 1540 LINE",
"660 994 LINE",
"632 994 LINE",
"676 890 LINE",
"676 274 LINE",
"644 138 LINE",
"726 138 LINE",
"672 182 LINE",
"706 94 OFFCURVE",
"798 32 OFFCURVE",
"952 -16 CURVE"
);
}
);
width = 1122;
},
{
anchors = (
{
name = bottom;
position = "{528, 0}";
},
{
name = center;
position = "{852, 1274}";
},
{
name = leghookretroflex;
position = "{852, 0}";
},
{
name = top;
position = "{852, 1540}";
},
{
name = topright;
position = "{1014, 1540}";
}
);
components = (
{
alignment = -1;
name = _part.bowl;
transform = "{-1, 0, 0, 1, 1054, 0}";
}
);
layerId = "FD1CEFBD-BAB1-4C2A-A598-30E93F9A29F6";
paths = (
{
closed = 1;
nodes = (
"1016 132 LINE",
"962 164 OFFCURVE",
"934 190 OFFCURVE",
"934 260 CURVE SMOOTH",
"934 1540 LINE",
"770 1540 LINE",
"770 940 LINE",
"750 940 LINE",
"792 820 LINE",
"792 290 LINE",
"748 176 LINE",
"826 176 LINE",
"796 200 LINE",
"800 106 OFFCURVE",
"842 44 OFFCURVE",
"952 -16 CURVE"
);
}
);
width = 1090;
}
);
leftKerningGroup = LAT_O_LC;
leftMetricsKey = o;
rightKerningGroup = LAT_D_LC;
unicode = 0064;
},
{
glyphname = eth;
lastChange = "2021-11-19 08:27:05 +0000";
layers = (
{
layerId = "AB099EFE-E788-4EFC-8633-CF147CB782A6";
paths = (
{
closed = 1;
nodes = (
"768 -16 OFFCURVE",
"932 200 OFFCURVE",
"932 590 CURVE SMOOTH",
"932 1122 OFFCURVE",
"626 1444 OFFCURVE",
"304 1558 CURVE",
"282 1508 LINE",
"496 1430 OFFCURVE",
"762 1222 OFFCURVE",
"858 818 CURVE",
"870 834 LINE",
"842 834 LINE",
"872 796 LINE",
"812 946 OFFCURVE",
"670 1024 OFFCURVE",
"524 1024 CURVE SMOOTH",
"282 1024 OFFCURVE",
"108 812 OFFCURVE",
"108 504 CURVE SMOOTH",
"108 196 OFFCURVE",
"282 -16 OFFCURVE",
"524 -16 CURVE SMOOTH"
);
},
{
closed = 1;
nodes = (
"318 40 OFFCURVE",
"168 228 OFFCURVE",
"168 504 CURVE SMOOTH",
"168 780 OFFCURVE",
"318 968 OFFCURVE",
"534 968 CURVE SMOOTH",
"700 968 OFFCURVE",
"874 854 OFFCURVE",
"874 534 CURVE SMOOTH",
"874 246 OFFCURVE",
"732 40 OFFCURVE",
"520 40 CURVE SMOOTH"
);
},
{
closed = 1;
nodes = (
"806 1512 LINE",
"788 1554 LINE",
"274 1220 LINE",
"298 1172 LINE"
);
}
);
width = 1040;
},
{
layerId = "2D8F7115-C311-411E-929D-56333CF7FFB2";
paths = (
{
closed = 1;
nodes = (
"838 -16 OFFCURVE",
"1028 246 OFFCURVE",
"1028 648 CURVE SMOOTH",
"1028 1096 OFFCURVE",
"790 1458 OFFCURVE",
"306 1698 CURVE",
"170 1428 LINE",
"444 1318 OFFCURVE",
"618 1122 OFFCURVE",
"696 898 CURVE",
"736 944 LINE",
"650 944 LINE",
"710 876 LINE",
"684 996 OFFCURVE",
"554 1028 OFFCURVE",
"458 1028 CURVE SMOOTH",
"216 1028 OFFCURVE",
"38 826 OFFCURVE",
"38 518 CURVE SMOOTH",
"38 192 OFFCURVE",
"236 -16 OFFCURVE",
"520 -16 CURVE SMOOTH"
);
},
{
closed = 1;
nodes = (
"436 290 OFFCURVE",
"374 380 OFFCURVE",
"374 528 CURVE SMOOTH",
"374 674 OFFCURVE",
"436 756 OFFCURVE",
"532 756 CURVE SMOOTH",
"632 756 OFFCURVE",
"692 670 OFFCURVE",
"692 528 CURVE SMOOTH",
"692 384 OFFCURVE",
"632 290 OFFCURVE",
"532 290 CURVE SMOOTH"
);
},
{
closed = 1;
nodes = (
"916 1512 LINE",
"796 1690 LINE",
"176 1212 LINE",
"264 1084 LINE"
);
}
);
width = 1062;
},
{
layerId = "FD1CEFBD-BAB1-4C2A-A598-30E93F9A29F6";
paths = (
{
closed = 1;
nodes = (
"790 -16 OFFCURVE",
"962 234 OFFCURVE",
"962 620 CURVE SMOOTH",
"962 1132 OFFCURVE",
"672 1446 OFFCURVE",
"304 1610 CURVE",
"242 1476 LINE",
"464 1382 OFFCURVE",
"706 1190 OFFCURVE",
"794 868 CURVE",
"816 898 LINE",
"772 898 LINE",
"802 860 LINE",
"764 956 OFFCURVE",
"636 1032 OFFCURVE",
"508 1032 CURVE SMOOTH",
"250 1032 OFFCURVE",
"82 826 OFFCURVE",
"82 512 CURVE SMOOTH",
"82 194 OFFCURVE",
"256 -16 OFFCURVE",
"524 -16 CURVE SMOOTH"
);
},
{
closed = 1;
nodes = (
"360 132 OFFCURVE",
"244 280 OFFCURVE",
"244 516 CURVE SMOOTH",
"244 734 OFFCURVE",
"356 878 OFFCURVE",
"526 878 CURVE SMOOTH",
"678 878 OFFCURVE",
"804 752 OFFCURVE",
"804 528 CURVE SMOOTH",
"804 300 OFFCURVE",
"696 140 OFFCURVE",
"528 136 CURVE SMOOTH"
);
},
{
closed = 1;
nodes = (
"852 1520 LINE",
"794 1614 LINE",
"238 1234 LINE",
"294 1140 LINE"
);
}
);
width = 1042;
}
);
leftKerningGroup = LAT_ETH_LC;
rightKerningGroup = LAT_ETH_LC;
unicode = 00F0;
},
{
glyphname = e;
lastChange = "2021-11-19 08:27:05 +0000";
layers = (
{
anchors = (
{
name = bottom;
position = "{504, 0}";
},
{
name = cedilla;
position = "{504, 0}";
},
{
name = ogonek;
position = "{776, 78}";
},
{
name = top;
position = "{506, 1048}";
}
);
layerId = "AB099EFE-E788-4EFC-8633-CF147CB782A6";
paths = (
{
closed = 1;
nodes = (
"619 -16 OFFCURVE",
"737 37 OFFCURVE",
"814 118 CURVE",
"790 174 LINE",
"715 93 OFFCURVE",
"605 40 OFFCURVE",
"512 40 CURVE SMOOTH",
"301 40 OFFCURVE",
"164 229 OFFCURVE",
"164 520 CURVE SMOOTH",
"164 816 OFFCURVE",
"292 1008 OFFCURVE",
"500 1008 CURVE SMOOTH",
"689 1008 OFFCURVE",
"813 833 OFFCURVE",
"806 562 CURVE",
"152 562 LINE",
"152 506 LINE",
"864 506 LINE",
"866 545 OFFCURVE",
"868 575 OFFCURVE",
"868 582 CURVE SMOOTH",
"868 875 OFFCURVE",
"719 1064 OFFCURVE",
"498 1064 CURVE SMOOTH",
"255 1064 OFFCURVE",
"104 852 OFFCURVE",
"104 524 CURVE SMOOTH",
"104 196 OFFCURVE",
"265 -16 OFFCURVE",
"514 -16 CURVE SMOOTH"
);
}
);
width = 972;
},
{
anchors = (
{
name = bottom;
position = "{528, 0}";
},
{
name = cedilla;
position = "{556, 0}";
},
{
name = ogonek;
position = "{866, 70}";
},
{
name = top;
position = "{520, 1080}";
}
);
background = {
paths = (
{
closed = 1;
nodes = (
"665 -16 OFFCURVE",
"767 -3 OFFCURVE",
"852 12 CURVE",
"728 278 LINE",
"666 260 OFFCURVE",
"609 256 OFFCURVE",
"550 256 CURVE SMOOTH",
"448 256 OFFCURVE",
"377 371 OFFCURVE",
"378 568 CURVE SMOOTH",
"377 715 OFFCURVE",
"415 824 OFFCURVE",
"492 824 CURVE SMOOTH",
"561 824 OFFCURVE",
"600 785 OFFCURVE",
"612 640 CURVE",
"312 640 LINE",
"312 426 LINE",
"924 426 LINE",
"941 446 OFFCURVE",
"949 509 OFFCURVE",
"950 594 CURVE SMOOTH",
"949 903 OFFCURVE",
"776 1096 OFFCURVE",
"494 1096 CURVE SMOOTH",
"217 1096 OFFCURVE",
"47 878 OFFCURVE",
"47 550 CURVE SMOOTH",
"47 201 OFFCURVE",
"248 -16 OFFCURVE",
"542 -16 CURVE SMOOTH"
);
}
);
};
layerId = "2D8F7115-C311-411E-929D-56333CF7FFB2";
paths = (
{
closed = 1;
nodes = (
"688 -16 OFFCURVE",
"810 12 OFFCURVE",
"882 54 CURVE",
"760 314 LINE",
"732 284 OFFCURVE",
"654 260 OFFCURVE",
"572 260 CURVE SMOOTH",
"414 260 OFFCURVE",
"340 368 OFFCURVE",
"340 550 CURVE SMOOTH",
"340 722 OFFCURVE",
"392 828 OFFCURVE",
"496 828 CURVE SMOOTH",
"584 828 OFFCURVE",
"636 770 OFFCURVE",
"636 638 CURVE",
"318 638 LINE",
"318 426 LINE",
"938 426 LINE",
"946 460 OFFCURVE",
"952 530 OFFCURVE",
"952 608 CURVE SMOOTH",
"952 906 OFFCURVE",
"786 1096 OFFCURVE",
"504 1096 CURVE SMOOTH",
"208 1096 OFFCURVE",
"38 882 OFFCURVE",
"38 542 CURVE SMOOTH",
"38 192 OFFCURVE",
"236 -16 OFFCURVE",
"554 -16 CURVE SMOOTH"
);
}
);
width = 990;
},
{
anchors = (
{
name = bottom;
position = "{504, 0}";
},
{
name = cedilla;
position = "{514, 0}";
},
{
name = ogonek;
position = "{820, 92}";
},
{
name = top;
position = "{500, 1060}";
}
);
layerId = "FD1CEFBD-BAB1-4C2A-A598-30E93F9A29F6";
paths = (
{
closed = 1;
nodes = (
"628 -16 OFFCURVE",
"738 20 OFFCURVE",
"824 80 CURVE",
"764 230 LINE",
"694 172 OFFCURVE",
"604 136 OFFCURVE",
"522 136 CURVE SMOOTH",
"348 136 OFFCURVE",
"234 292 OFFCURVE",
"234 534 CURVE SMOOTH",
"234 768 OFFCURVE",
"332 922 OFFCURVE",
"492 922 CURVE SMOOTH",
"640 922 OFFCURVE",
"734 796 OFFCURVE",
"734 600 CURVE",
"204 600 LINE",
"204 466 LINE",
"880 466 LINE",
"888 500 OFFCURVE",
"892 542 OFFCURVE",
"892 592 CURVE SMOOTH",
"892 884 OFFCURVE",
"734 1076 OFFCURVE",
"492 1076 CURVE SMOOTH",
"238 1076 OFFCURVE",
"80 862 OFFCURVE",
"80 534 CURVE SMOOTH",
"80 198 OFFCURVE",
"256 -16 OFFCURVE",
"520 -16 CURVE SMOOTH"
);
}
);
width = 970;
}
);
leftKerningGroup = LAT_O_LC;
leftMetricsKey = o;
rightKerningGroup = LAT_E_LC;
unicode = 0065;
},
{
glyphname = f;
lastChange = "2021-11-19 08:27:05 +0000";
layers = (
{
anchors = (
{
name = bottom;
position = "{278, 0}";
},
{
name = top;
position = "{438, 1540}";
}
);
components = (
{
name = "_part.f-stem";
transform = "{1, 0, 0, 1, 4, 2}";
}
);
layerId = "AB099EFE-E788-4EFC-8633-CF147CB782A6";
paths = (
{
closed = 1;
nodes = (
"534 992 LINE",
"534 1048 LINE",
"84 1048 LINE",
"84 992 LINE"
);
}
);
width = 632;
},
{
anchors = (
{
name = bottom;
position = "{388, 0}";
},
{
name = top;
position = "{502, 1540}";
}
);
components = (
{
name = "_part.f-stem";
transform = "{1, 0, 0, 1, 2, 0}";
}
);
layerId = "2D8F7115-C311-411E-929D-56333CF7FFB2";
paths = (
{
closed = 1;
nodes = (
"770 782 LINE",
"770 1080 LINE",
"18 1080 LINE",
"18 782 LINE"
);
}
);
width = 830;
},
{
anchors = (
{
name = bottom;
position = "{306, 0}";
},
{
name = top;
position = "{458, 1540}";
}
);
components = (
{
name = "_part.f-stem";
transform = "{1, 0, 0, 1, -6, 0}";
}
);
layerId = "FD1CEFBD-BAB1-4C2A-A598-30E93F9A29F6";
paths = (
{
closed = 1;
nodes = (
"598 904 LINE",
"598 1060 LINE",
"46 1060 LINE",
"46 904 LINE"
);
}
);
width = 684;
}
);
leftKerningGroup = LAT_F_LC;
rightKerningGroup = LAT_F_LC;
unicode = 0066;
},
{
glyphname = g;
lastChange = "2021-11-19 08:27:05 +0000";
layers = (
{
anchors = (
{
name = bottom;
position = "{518, -420}";
},
{
name = top;
position = "{514, 1048}";
}
);
layerId = "AB099EFE-E788-4EFC-8633-CF147CB782A6";
paths = (
{
closed = 1;
nodes = (
"746 -436 OFFCURVE",
"888 -284 OFFCURVE",
"888 -34 CURVE SMOOTH",
"888 1048 LINE",
"828 1048 LINE",
"828 834 LINE",
"820 834 LINE",
"832 772 LINE",
"832 282 LINE",
"820 200 LINE",
"830 200 LINE",
"830 -38 LINE SMOOTH",
"830 -251 OFFCURVE",
"710 -380 OFFCURVE",
"512 -380 CURVE SMOOTH",
"404 -380 OFFCURVE",
"295 -337 OFFCURVE",
"224 -266 CURVE",
"200 -326 LINE",
"274 -394 OFFCURVE",
"392 -436 OFFCURVE",
"512 -436 CURVE SMOOTH"
);
},
{
closed = 1;
nodes = (
"746 -16 OFFCURVE",
"886 182 OFFCURVE",
"886 526 CURVE SMOOTH",
"886 868 OFFCURVE",
"746 1064 OFFCURVE",
"498 1064 CURVE SMOOTH",
"250 1064 OFFCURVE",
"108 870 OFFCURVE",
"108 526 CURVE SMOOTH",
"108 184 OFFCURVE",
"248 -16 OFFCURVE",
"498 -16 CURVE SMOOTH"
);
},
{
closed = 1;
nodes = (
"288 40 OFFCURVE",
"168 216 OFFCURVE",
"168 526 CURVE SMOOTH",
"168 832 OFFCURVE",
"286 1008 OFFCURVE",
"500 1008 CURVE SMOOTH",
"710 1008 OFFCURVE",
"832 838 OFFCURVE",
"832 532 CURVE SMOOTH",
"832 224 OFFCURVE",
"710 40 OFFCURVE",
"498 40 CURVE SMOOTH"
);
}
);
width = 1044;
},
{
anchors = (
{
name = bottom;
position = "{538, -420}";
},
{
name = top;
position = "{520, 1080}";
}
);
layerId = "2D8F7115-C311-411E-929D-56333CF7FFB2";
paths = (
{
closed = 1;
nodes = (
"802 -436 OFFCURVE",
"1012 -264 OFFCURVE",
"1012 50 CURVE SMOOTH",
"1012 1082 LINE",
"702 1082 LINE",
"702 980 LINE",
"620 980 LINE",
"702 860 LINE",
"702 250 LINE",
"658 148 LINE",
"686 148 LINE",
"686 48 LINE SMOOTH",
"686 -76 OFFCURVE",
"572 -146 OFFCURVE",
"448 -146 CURVE SMOOTH",
"372 -146 OFFCURVE",
"300 -118 OFFCURVE",
"214 -66 CURVE",
"100 -338 LINE",
"200 -398 OFFCURVE",
"338 -436 OFFCURVE",
"488 -436 CURVE SMOOTH"
);
},
{
closed = 1;
nodes = (
"692 28 OFFCURVE",
"848 242 OFFCURVE",
"848 574 CURVE SMOOTH",
"848 900 OFFCURVE",
"694 1098 OFFCURVE",
"446 1098 CURVE SMOOTH",
"192 1098 OFFCURVE",
"42 892 OFFCURVE",
"42 558 CURVE SMOOTH",
"42 230 OFFCURVE",
"186 28 OFFCURVE",
"436 28 CURVE SMOOTH"
);
},
{
closed = 1;
nodes = (
"430 308 OFFCURVE",
"374 398 OFFCURVE",
"374 566 CURVE SMOOTH",
"374 730 OFFCURVE",
"432 818 OFFCURVE",
"536 818 CURVE SMOOTH",
"642 818 OFFCURVE",
"698 730 OFFCURVE",
"698 570 CURVE SMOOTH",
"698 400 OFFCURVE",
"640 308 OFFCURVE",
"530 308 CURVE SMOOTH"
);
}
);
width = 1086;
},
{
anchors = (
{
name = bottom;
position = "{528, -420}";
},
{
name = top;
position = "{518, 1060}";
}
);
guideLines = (
{
angle = 67.5;
position = "{446, 308}";
}
);
layerId = "FD1CEFBD-BAB1-4C2A-A598-30E93F9A29F6";
paths = (
{
closed = 1;
nodes = (
"760 -436 OFFCURVE",
"936 -284 OFFCURVE",
"936 6 CURVE SMOOTH",
"936 1060 LINE",
"774 1060 LINE",
"774 932 LINE",
"736 932 LINE",
"780 824 LINE",
"780 260 LINE",
"750 146 LINE",
"778 146 LINE",
"778 -2 LINE SMOOTH",
"778 -194 OFFCURVE",
"652 -284 OFFCURVE",
"494 -284 CURVE SMOOTH",
"394 -284 OFFCURVE",
"290 -248 OFFCURVE",
"224 -180 CURVE",
"160 -334 LINE",
"252 -400 OFFCURVE",
"374 -436 OFFCURVE",
"500 -436 CURVE SMOOTH"
);
},
{
closed = 1;
nodes = (
"736 -4 OFFCURVE",
"870 202 OFFCURVE",
"870 532 CURVE SMOOTH",
"870 846 OFFCURVE",
"748 1078 OFFCURVE",
"488 1078 CURVE SMOOTH",
"244 1078 OFFCURVE",
"84 872 OFFCURVE",
"84 536 CURVE SMOOTH",
"84 200 OFFCURVE",
"242 -4 OFFCURVE",
"488 -4 CURVE SMOOTH"
);
},
{
closed = 1;
nodes = (
"354 148 OFFCURVE",
"248 294 OFFCURVE",
"248 540 CURVE SMOOTH",
"248 780 OFFCURVE",
"352 924 OFFCURVE",
"516 924 CURVE SMOOTH",
"682 924 OFFCURVE",
"780 780 OFFCURVE",
"780 542 CURVE SMOOTH",
"780 300 OFFCURVE",
"682 148 OFFCURVE",
"516 148 CURVE SMOOTH"
);
}
);
width = 1058;
}
);
leftKerningGroup = LAT_G_LC;
rightKerningGroup = LAT_G_LC;
unicode = 0067;
},
{
color = 4;
glyphname = g.ss01;
lastChange = "2021-11-19 08:27:05 +0000";
layers = (
{
anchors = (
{
name = bottom;
position = "{558, -420}";
},
{
name = top;
position = "{552, 1048}";
}
);
components = (
{
name = _part.bowl.ss01;
transform = "{-1, 0, 0, 1, 1108, 0}";
}
);
layerId = "AB099EFE-E788-4EFC-8633-CF147CB782A6";
paths = (
{
closed = 1;
nodes = (
"720 -436 OFFCURVE",
"952 -318 OFFCURVE",
"952 8 CURVE SMOOTH",
"952 1048 LINE",
"892 1048 LINE",
"892 810 LINE",
"878 810 LINE",
"896 740 LINE",
"896 318 LINE",
"882 248 LINE",
"892 248 LINE",
"892 4 LINE SMOOTH",
"892 -274 OFFCURVE",
"696 -382 OFFCURVE",
"542 -380 CURVE SMOOTH",
"432 -378 OFFCURVE",
"306 -334 OFFCURVE",
"240 -266 CURVE",
"216 -326 LINE",
"284 -388 OFFCURVE",
"430 -436 OFFCURVE",
"542 -436 CURVE SMOOTH"
);
}
);
width = 1108;
},
{
anchors = (
{
name = bottom;
position = "{568, -420}";
},
{
name = top;
position = "{546, 1080}";
}
);
components = (
{
name = _part.bowl.ss01;
transform = "{-1, 0, 0, 0.95973, 1146, 46}";
}
);
layerId = "2D8F7115-C311-411E-929D-56333CF7FFB2";
paths = (
{
closed = 1;
nodes = (
"834 -436 OFFCURVE",
"1038 -256 OFFCURVE",
"1038 70 CURVE SMOOTH",
"1038 1080 LINE",
"706 1080 LINE",
"706 974 LINE",
"662 974 LINE",
"704 854 LINE",
"704 214 LINE",
"648 160 LINE",
"706 160 LINE",
"706 50 LINE SMOOTH",
"706 -94 OFFCURVE",
"560 -146 OFFCURVE",
"466 -146 CURVE SMOOTH",
"384 -146 OFFCURVE",
"296 -112 OFFCURVE",
"226 -66 CURVE",
"116 -338 LINE",
"190 -384 OFFCURVE",
"316 -436 OFFCURVE",
"498 -436 CURVE SMOOTH"
);
}
);
width = 1112;
},
{
anchors = (
{
name = bottom;
position = "{574, -420}";
},
{
name = top;
position = "{562, 1060}";
}
);
components = (
{
alignment = -1;
name = _part.bowl.ss01;
transform = "{-1, 0, 0, 0.98476, 1130, 20}";
}
);
layerId = "FD1CEFBD-BAB1-4C2A-A598-30E93F9A29F6";
paths = (
{
closed = 1;
nodes = (
"776 -434 OFFCURVE",
"990 -286 OFFCURVE",
"990 30 CURVE SMOOTH",
"990 1060 LINE",
"828 1060 LINE",
"828 906 LINE",
"804 906 LINE",
"836 822 LINE",
"836 266 LINE",
"808 174 LINE",
"828 174 LINE",
"828 22 LINE SMOOTH",
"828 -206 OFFCURVE",
"656 -286 OFFCURVE",
"524 -286 CURVE SMOOTH",
"422 -286 OFFCURVE",
"316 -244 OFFCURVE",
"240 -176 CURVE",
"180 -320 LINE",
"258 -386 OFFCURVE",
"394 -434 OFFCURVE",
"530 -434 CURVE SMOOTH"
);
}
);
width = 1112;
}
);
leftKerningGroup = LAT_G_LC;
leftMetricsKey = g;
rightKerningGroup = LAT_G_LC;
rightMetricsKey = g;
},
{
color = 7;
glyphname = g.ss03;
lastChange = "2021-11-19 08:27:05 +0000";
layers = (
{
anchors = (
{
name = bottom;
position = "{496, -438}";
},
{
name = top;
position = "{474, 1048}";
}
);
layerId = "AB099EFE-E788-4EFC-8633-CF147CB782A6";
paths = (
{
closed = 1;
nodes = (
"724 -438 OFFCURVE",
"906 -298 OFFCURVE",
"906 -106 CURVE SMOOTH",
"906 34 OFFCURVE",
"804 126 OFFCURVE",
"638 126 CURVE SMOOTH",
"402 126 LINE SMOOTH",
"292 126 OFFCURVE",
"204 200 OFFCURVE",
"204 312 CURVE SMOOTH",
"204 372 OFFCURVE",
"230 414 OFFCURVE",
"256 438 CURVE",
"214 484 LINE",
"184 452 OFFCURVE",
"148 392 OFFCURVE",
"148 316 CURVE SMOOTH",
"148 198 OFFCURVE",
"230 70 OFFCURVE",
"404 70 CURVE SMOOTH",
"646 70 LINE SMOOTH",
"772 70 OFFCURVE",
"846 0 OFFCURVE",
"846 -106 CURVE SMOOTH",
"846 -258 OFFCURVE",
"702 -382 OFFCURVE",
"486 -382 CURVE SMOOTH",
"296 -382 OFFCURVE",
"166 -284 OFFCURVE",
"166 -140 CURVE SMOOTH",
"166 -36 OFFCURVE",
"238 74 OFFCURVE",
"306 106 CURVE",
"256 144 LINE",
"174 90 OFFCURVE",
"106 -20 OFFCURVE",
"106 -140 CURVE SMOOTH",
"106 -316 OFFCURVE",
"260 -438 OFFCURVE",
"482 -438 CURVE SMOOTH"
);
},
{
closed = 1;
nodes = (
"676 332 OFFCURVE",
"822 480 OFFCURVE",
"822 702 CURVE SMOOTH",
"822 918 OFFCURVE",
"682 1064 OFFCURVE",
"476 1064 CURVE SMOOTH",
"276 1064 OFFCURVE",
"130 922 OFFCURVE",
"130 704 CURVE SMOOTH",
"130 484 OFFCURVE",
"278 332 OFFCURVE",
"478 332 CURVE SMOOTH"
);
},
{
closed = 1;
nodes = (
"314 388 OFFCURVE",
"192 520 OFFCURVE",
"192 700 CURVE SMOOTH",
"192 876 OFFCURVE",
"306 1008 OFFCURVE",
"476 1008 CURVE SMOOTH",
"638 1008 OFFCURVE",
"762 886 OFFCURVE",
"762 700 CURVE SMOOTH",
"762 504 OFFCURVE",
"628 388 OFFCURVE",
"476 388 CURVE SMOOTH"
);
},
{
closed = 1;
nodes = (
"794 964 OFFCURVE",
"842 992 OFFCURVE",
"922 1036 CURVE",
"892 1094 LINE",
"822 1056 OFFCURVE",
"770 1014 OFFCURVE",
"710 966 CURVE",
"740 914 LINE"
);
}
);
width = 1000;
},
{
anchors = (
{
name = bottom;
position = "{490, -438}";
},
{
name = top;
position = "{478, 1080}";
}
);
background = {
paths = (
{
closed = 1;
nodes = (
"995 -455 OFFCURVE",
"1200 -303 OFFCURVE",
"1200 -82 CURVE SMOOTH",
"1200 98 OFFCURVE",
"1061 209 OFFCURVE",
"836 208 CURVE SMOOTH",
"586 208 LINE SMOOTH",
"471 209 OFFCURVE",
"381 246 OFFCURVE",
"380 316 CURVE SMOOTH",
"381 356 OFFCURVE",
"406 385 OFFCURVE",
"434 398 CURVE",
"316 504 LINE",
"193 446 OFFCURVE",
"147 315 OFFCURVE",
"148 242 CURVE SMOOTH",
"147 82 OFFCURVE",
"336 -4 OFFCURVE",
"610 -4 CURVE SMOOTH",
"734 -4 LINE SMOOTH",
"819 -4 OFFCURVE",
"872 -37 OFFCURVE",
"872 -82 CURVE SMOOTH",
"872 -147 OFFCURVE",
"766 -180 OFFCURVE",
"626 -180 CURVE SMOOTH",
"479 -180 OFFCURVE",
"324 -143 OFFCURVE",
"324 -58 CURVE SMOOTH",
"324 -8 OFFCURVE",
"369 41 OFFCURVE",
"426 58 CURVE",
"230 126 LINE",
"131 102 OFFCURVE",
"41 -20 OFFCURVE",
"40 -140 CURVE SMOOTH",
"41 -319 OFFCURVE",
"246 -455 OFFCURVE",
"610 -454 CURVE SMOOTH"
);
}
);
};
layerId = "2D8F7115-C311-411E-929D-56333CF7FFB2";
paths = (
{
closed = 1;
nodes = (
"894 -438 OFFCURVE",
"1022 -284 OFFCURVE",
"1022 -82 CURVE SMOOTH",
"1022 118 OFFCURVE",
"882 232 OFFCURVE",
"682 232 CURVE SMOOTH",
"470 232 LINE SMOOTH",
"376 232 OFFCURVE",
"300 232 OFFCURVE",
"300 300 CURVE SMOOTH",
"300 344 OFFCURVE",
"338 374 OFFCURVE",
"358 386 CURVE",
"162 472 LINE",
"98 434 OFFCURVE",
"48 368 OFFCURVE",
"48 282 CURVE SMOOTH",
"48 126 OFFCURVE",
"186 -4 OFFCURVE",
"420 -4 CURVE SMOOTH",
"624 -4 LINE SMOOTH",
"636 -4 OFFCURVE",
"702 -4 OFFCURVE",
"702 -70 CURVE SMOOTH",
"702 -154 OFFCURVE",
"610 -166 OFFCURVE",
"520 -166 CURVE SMOOTH",
"412 -166 OFFCURVE",
"268 -152 OFFCURVE",
"268 -56 CURVE SMOOTH",
"268 -4 OFFCURVE",
"302 52 OFFCURVE",
"344 66 CURVE",
"160 126 LINE",
"78 102 OFFCURVE",
"-4 -22 OFFCURVE",
"-4 -148 CURVE SMOOTH",
"-4 -328 OFFCURVE",
"154 -438 OFFCURVE",
"490 -438 CURVE SMOOTH"
);
},
{
closed = 1;
nodes = (
"716 308 OFFCURVE",
"894 476 OFFCURVE",
"894 704 CURVE SMOOTH",
"894 938 OFFCURVE",
"710 1098 OFFCURVE",
"474 1098 CURVE SMOOTH",
"244 1098 OFFCURVE",
"70 942 OFFCURVE",
"70 716 CURVE SMOOTH",
"70 484 OFFCURVE",
"254 308 OFFCURVE",
"488 308 CURVE SMOOTH"
);
},
{
closed = 1;
nodes = (
"416 542 OFFCURVE",
"362 612 OFFCURVE",
"362 698 CURVE SMOOTH",
"362 784 OFFCURVE",
"416 854 OFFCURVE",
"480 854 CURVE SMOOTH",
"546 854 OFFCURVE",
"598 790 OFFCURVE",
"598 696 CURVE SMOOTH",
"598 602 OFFCURVE",
"544 542 OFFCURVE",
"484 542 CURVE SMOOTH"
);
},
{
closed = 1;
nodes = (
"896 928 OFFCURVE",
"914 938 OFFCURVE",
"1032 940 CURVE",
"978 1190 LINE",
"878 1160 OFFCURVE",
"802 1118 OFFCURVE",
"658 1008 CURVE",
"798 888 LINE"
);
}
);
width = 1018;
},
{
anchors = (
{
name = bottom;
position = "{494, -438}";
},
{
name = top;
position = "{476, 1060}";
}
);
layerId = "FD1CEFBD-BAB1-4C2A-A598-30E93F9A29F6";
paths = (
{
closed = 1;
nodes = (
"778 -438 OFFCURVE",
"940 -276 OFFCURVE",
"942 -94 CURVE SMOOTH",
"944 66 OFFCURVE",
"820 166 OFFCURVE",
"644 166 CURVE SMOOTH",
"456 166 LINE SMOOTH",
"384 166 OFFCURVE",
"290 194 OFFCURVE",
"290 300 CURVE SMOOTH",
"290 340 OFFCURVE",
"306 366 OFFCURVE",
"342 398 CURVE",
"230 488 LINE",
"182 438 OFFCURVE",
"144 370 OFFCURVE",
"144 296 CURVE SMOOTH",
"144 174 OFFCURVE",
"238 24 OFFCURVE",
"458 24 CURVE SMOOTH",
"598 24 LINE SMOOTH",
"698 24 OFFCURVE",
"780 -8 OFFCURVE",
"780 -96 CURVE SMOOTH",
"780 -210 OFFCURVE",
"666 -290 OFFCURVE",
"494 -290 CURVE SMOOTH",
"340 -290 OFFCURVE",
"224 -234 OFFCURVE",
"224 -108 CURVE SMOOTH",
"224 -18 OFFCURVE",
"288 48 OFFCURVE",
"338 68 CURVE",
"218 140 LINE",
"130 86 OFFCURVE",
"68 -16 OFFCURVE",
"68 -124 CURVE SMOOTH",
"68 -312 OFFCURVE",
"238 -438 OFFCURVE",
"496 -438 CURVE SMOOTH"
);
},
{
closed = 1;
nodes = (
"702 328 OFFCURVE",
"850 490 OFFCURVE",
"850 704 CURVE SMOOTH",
"850 924 OFFCURVE",
"698 1076 OFFCURVE",
"484 1076 CURVE SMOOTH",
"274 1076 OFFCURVE",
"116 926 OFFCURVE",
"116 704 CURVE SMOOTH",
"116 480 OFFCURVE",
"274 328 OFFCURVE",
"486 328 CURVE SMOOTH"
);
},
{
closed = 1;
nodes = (
"372 470 OFFCURVE",
"280 566 OFFCURVE",
"280 700 CURVE SMOOTH",
"280 834 OFFCURVE",
"366 934 OFFCURVE",
"486 934 CURVE SMOOTH",
"596 934 OFFCURVE",
"688 856 OFFCURVE",
"688 704 CURVE SMOOTH",
"688 566 OFFCURVE",
"604 470 OFFCURVE",
"488 470 CURVE SMOOTH"
);
},
{
closed = 1;
nodes = (
"822 940 OFFCURVE",
"870 974 OFFCURVE",
"956 996 CURVE",
"896 1138 LINE",
"818 1104 OFFCURVE",
"756 1070 OFFCURVE",
"660 994 CURVE",
"754 900 LINE"
);
}
);
width = 1000;
}
);
leftKerningGroup = LAT_GSS03_LC;
rightKerningGroup = LAT_GSS03_LC;
},
{
glyphname = h;
lastChange = "2021-11-21 07:58:14 +0000";
layers = (
{
anchors = (
{
name = bottom;
position = "{492, 0}";
},
{
name = center;
position = "{186, 1262}";
},
{
name = top;
position = "{186, 1474}";
}
);
layerId = "AB099EFE-E788-4EFC-8633-CF147CB782A6";
paths = (
{
closed = 1;
nodes = (
"216 0 LINE",
"216 712 LINE SMOOTH",
"216 886 OFFCURVE",
"344 1008 OFFCURVE",
"510 1008 CURVE SMOOTH",
"666 1008 OFFCURVE",
"766 894 OFFCURVE",
"766 718 CURVE SMOOTH",
"766 0 LINE",
"826 0 LINE",
"826 718 LINE SMOOTH",
"826 928 OFFCURVE",
"702 1064 OFFCURVE",
"514 1064 CURVE SMOOTH",
"376 1064 OFFCURVE",
"246 990 OFFCURVE",
"204 866 CURVE",
"242 896 LINE",
"216 896 LINE",
"216 1540 LINE",
"156 1540 LINE",
"156 0 LINE"
);
}
);
width = 974;
},
{
anchors = (
{
name = bottom;
position = "{526, 0}";
},
{
name = center;
position = "{246, 1298}";
},
{
name = top;
position = "{246, 1540}";
}
);
layerId = "2D8F7115-C311-411E-929D-56333CF7FFB2";
paths = (
{
closed = 1;
nodes = (
"426 0 LINE",
"426 696 LINE SMOOTH",
"426 762 OFFCURVE",
"466 806 OFFCURVE",
"528 806 CURVE SMOOTH",
"588 806 OFFCURVE",
"626 762 OFFCURVE",
"626 698 CURVE SMOOTH",
"626 0 LINE",
"978 0 LINE",
"978 774 LINE SMOOTH",
"978 968 OFFCURVE",
"870 1096 OFFCURVE",
"700 1096 CURVE SMOOTH",
"540 1096 OFFCURVE",
"420 1012 OFFCURVE",
"398 882 CURVE",
"458 936 LINE",
"412 936 LINE",
"412 1540 LINE",
"74 1540 LINE",
"74 0 LINE"
);
}
);
width = 1046;
},
{
anchors = (
{
name = bottom;
position = "{502, 0}";
},
{
name = center;
position = "{208, 1274}";
},
{
name = top;
position = "{206, 1514}";
}
);
layerId = "FD1CEFBD-BAB1-4C2A-A598-30E93F9A29F6";
paths = (
{
closed = 1;
nodes = (
"288 0 LINE",
"288 700 LINE SMOOTH",
"288 836 OFFCURVE",
"376 926 OFFCURVE",
"512 926 CURVE SMOOTH",
"634 926 OFFCURVE",
"716 838 OFFCURVE",
"716 702 CURVE SMOOTH",
"716 0 LINE",
"880 0 LINE",
"880 720 LINE SMOOTH",
"880 936 OFFCURVE",
"754 1076 OFFCURVE",
"562 1076 CURVE SMOOTH",
"420 1076 OFFCURVE",
"296 1000 OFFCURVE",
"256 876 CURVE",
"326 944 LINE",
"288 944 LINE",
"288 1540 LINE",
"124 1540 LINE",
"124 0 LINE"
);
}
);
width = 1000;
}
);
leftKerningGroup = LAT_H_UC;
rightKerningGroup = LAT_N_LC;
rightMetricsKey = n;
unicode = 0068;
},
{
glyphname = idotless;
lastChange = "2021-11-19 08:27:05 +0000";
layers = (
{
anchors = (
{
name = bottom;
position = "{192, 0}";
},
{
name = ogonek;
position = "{220, 0}";
},
{
name = top;
position = "{192, 1048}";
}
);
layerId = "AB099EFE-E788-4EFC-8633-CF147CB782A6";
paths = (
{
closed = 1;
nodes = (
"222 0 LINE",
"222 1048 LINE",
"162 1048 LINE",
"162 0 LINE"
);
}
);
width = 380;
},
{
anchors = (
{
name = bottom;
position = "{254, 0}";
},
{
name = ogonek;
position = "{336, 0}";
},
{
name = top;
position = "{254, 1080}";
}
);
guideLines = (
{
angle = 60;
position = "{186, 0}";
}
);
layerId = "2D8F7115-C311-411E-929D-56333CF7FFB2";
paths = (
{
closed = 1;
nodes = (
"430 0 LINE",
"430 1080 LINE",
"78 1080 LINE",
"78 0 LINE"
);
}
);
width = 508;
},
{
anchors = (
{
name = bottom;
position = "{208, 0}";
},
{
name = ogonek;
position = "{258, 0}";
},
{
name = top;
position = "{208, 1060}";
}
);
layerId = "FD1CEFBD-BAB1-4C2A-A598-30E93F9A29F6";
paths = (
{
closed = 1;
nodes = (
"290 0 LINE",
"290 1060 LINE",
"126 1060 LINE",
"126 0 LINE"
);
}
);
width = 416;
}
);
unicode = 0131;
},
{
color = 8;
glyphname = idotless.ss02;
lastChange = "2021-05-03 01:08:30 +0000";
layers = (
{
anchors = (
{
name = bottom;
position = "{266, 0}";
},
{
name = center;
position = "{194, 570}";
},
{
name = ogonek;
position = "{302, -16}";
},
{
name = top;
position = "{194, 1048}";
}
);
background = {
anchors = (
{
name = bottom;
position = "{300, 0}";
},
{
name = center;
position = "{218, 570}";
},
{
name = ogonek;
position = "{438, 12}";
},
{
name = top;
position = "{218, 1048}";
}
);
paths = (
{
closed = 1;
nodes = (
"375 -8 OFFCURVE",
"418 0 OFFCURVE",
"438 12 CURVE",
"438 74 LINE",
"410 59 OFFCURVE",
"371 49 OFFCURVE",
"336 50 CURVE SMOOTH",
"248 49 OFFCURVE",
"246 119 OFFCURVE",
"246 208 CURVE SMOOTH",
"246 1048 LINE",
"184 1048 LINE",
"184 222 LINE SMOOTH",
"184 111 OFFCURVE",
"184 -8 OFFCURVE",
"340 -8 CURVE SMOOTH"
);
}
);
};
guideLines = (
{
angle = 80;
position = "{178, -8}";
}
);
layerId = "AB099EFE-E788-4EFC-8633-CF147CB782A6";
paths = (
{
closed = 1;
nodes = (
"322 38 LINE",
"266 68 OFFCURVE",
"222 114 OFFCURVE",
"222 198 CURVE SMOOTH",
"222 1048 LINE",
"162 1048 LINE",
"162 236 LINE SMOOTH",
"162 118 OFFCURVE",
"192 38 OFFCURVE",
"302 -16 CURVE"
);
}
);
width = 442;
},
{
anchors = (
{
name = bottom;
position = "{288, 0}";
},
{
name = center;
position = "{282, 570}";
},
{
name = ogonek;
position = "{450, -16}";
},
{
name = top;
position = "{282, 1080}";
}
);
background = {
anchors = (
{
name = bottom;
position = "{336, 0}";
},
{
name = center;
position = "{312, 570}";
},
{
name = ogonek;
position = "{598, 8}";
},
{
name = top;
position = "{312, 1080}";
}
);
paths = (
{
closed = 1;
nodes = (
"483 -16 OFFCURVE",
"551 -10 OFFCURVE",
"598 8 CURVE",
"598 286 LINE",
"571 281 OFFCURVE",
"559 279 OFFCURVE",
"544 278 CURVE SMOOTH",
"487 279 OFFCURVE",
"483 319 OFFCURVE",
"484 376 CURVE SMOOTH",
"484 1082 LINE",
"126 1082 LINE",
"126 278 LINE SMOOTH",
"127 111 OFFCURVE",
"238 -16 OFFCURVE",
"430 -16 CURVE SMOOTH"
);
}
);
};
guideLines = (
{
angle = 80;
position = "{284, -8}";
}
);
layerId = "2D8F7115-C311-411E-929D-56333CF7FFB2";
paths = (
{
closed = 1;
nodes = (
"578 278 LINE",
"484 302 OFFCURVE",
"454 368 OFFCURVE",
"454 462 CURVE SMOOTH",
"454 1082 LINE",
"98 1082 LINE",
"98 446 LINE SMOOTH",
"98 174 OFFCURVE",
"202 -4 OFFCURVE",
"450 -16 CURVE"
);
}
);
width = 606;
},
{
anchors = (
{
name = bottom;
position = "{288, 0}";
},
{
name = center;
position = "{232, 570}";
},
{
name = ogonek;
position = "{372, -16}";
},
{
name = top;
position = "{232, 1060}";
}
);
layerId = "FD1CEFBD-BAB1-4C2A-A598-30E93F9A29F6";
paths = (
{
closed = 1;
nodes = (
"410 144 LINE",
"360 156 OFFCURVE",
"312 196 OFFCURVE",
"312 278 CURVE SMOOTH",
"312 1060 LINE",
"136 1060 LINE",
"136 312 LINE SMOOTH",
"136 132 OFFCURVE",
"202 8 OFFCURVE",
"372 -16 CURVE"
);
}
);
width = 512;
}
);
rightKerningGroup = LAT_A_LC;
},
{
glyphname = jdotless;
lastChange = "2021-11-19 08:27:05 +0000";
layers = (
{
anchors = (
{
name = center;
position = "{230, 570}";
},
{
name = top;
position = "{230, 1048}";
}
);
layerId = "AB099EFE-E788-4EFC-8633-CF147CB782A6";
paths = (
{
closed = 1;
nodes = (
"194 -436 OFFCURVE",
"262 -304 OFFCURVE",
"262 -138 CURVE SMOOTH",
"262 1048 LINE",
"200 1048 LINE",
"200 -154 LINE SMOOTH",
"200 -270 OFFCURVE",
"152 -380 OFFCURVE",
"36 -380 CURVE SMOOTH",
"20 -380 OFFCURVE",
"-6 -378 OFFCURVE",
"-28 -368 CURVE",
"-28 -428 LINE",
"-4 -434 OFFCURVE",
"20 -436 OFFCURVE",
"40 -436 CURVE SMOOTH"
);
}
);
width = 420;
},
{
anchors = (
{
name = center;
position = "{286, 570}";
},
{
name = top;
position = "{282, 1080}";
}
);
layerId = "2D8F7115-C311-411E-929D-56333CF7FFB2";
paths = (
{
closed = 1;
nodes = (
"340 -444 OFFCURVE",
"460 -260 OFFCURVE",
"460 -12 CURVE SMOOTH",
"460 1080 LINE",
"108 1080 LINE",
"108 -36 LINE SMOOTH",
"108 -90 OFFCURVE",
"88 -134 OFFCURVE",
"26 -134 CURVE SMOOTH",
"8 -134 OFFCURVE",
"-32 -130 OFFCURVE",
"-58 -116 CURVE",
"-58 -428 LINE",
"-14 -438 OFFCURVE",
"44 -444 OFFCURVE",
"86 -444 CURVE SMOOTH"
);
}
);
width = 534;
},
{
anchors = (
{
name = center;
position = "{252, 570}";
},
{
name = top;
position = "{252, 1060}";
}
);
layerId = "FD1CEFBD-BAB1-4C2A-A598-30E93F9A29F6";
paths = (
{
closed = 1;
nodes = (
"248 -436 OFFCURVE",
"334 -302 OFFCURVE",
"334 -126 CURVE SMOOTH",
"334 1060 LINE",
"170 1060 LINE",
"170 -112 LINE SMOOTH",
"170 -218 OFFCURVE",
"128 -280 OFFCURVE",
"44 -280 CURVE SMOOTH",
"22 -280 OFFCURVE",
"-8 -276 OFFCURVE",
"-34 -268 CURVE",
"-34 -424 LINE",
"-4 -432 OFFCURVE",
"28 -436 OFFCURVE",
"60 -436 CURVE SMOOTH"
);
}
);
width = 464;
}
);
leftKerningGroup = LAT_J_LC;
rightKerningGroup = LAT_J_LC;
unicode = 0237;
},
{
glyphname = k;
lastChange = "2021-11-21 08:09:45 +0000";
layers = (
{
anchors = (
{
name = bottom;
position = "{458, 0}";
},
{
name = top;
position = "{184, 1540}";
}
);
layerId = "AB099EFE-E788-4EFC-8633-CF147CB782A6";
paths = (
{
closed = 1;
nodes = (
"216 0 LINE",
"216 504 LINE",
"290 504 LINE",
"246 528 LINE",
"710 0 LINE",
"790 0 LINE",
"304 552 LINE",
"304 516 LINE",
"762 1048 LINE",
"680 1048 LINE",
"248 540 LINE",
"290 566 LINE",
"216 566 LINE",
"216 1540 LINE",
"156 1540 LINE",
"156 0 LINE"
);
}
);
width = 862;
},
{
anchors = (
{
name = bottom;
position = "{550, 0}";
},
{
name = top;
position = "{252, 1540}";
}
);
layerId = "2D8F7115-C311-411E-929D-56333CF7FFB2";
paths = (
{
closed = 1;
nodes = (
"426 0 LINE",
"426 468 LINE",
"506 468 LINE",
"420 510 LINE",
"676 0 LINE",
"1072 0 LINE",
"702 666 LINE",
"702 464 LINE",
"1082 1082 LINE",
"680 1082 LINE",
"424 608 LINE",
"506 652 LINE",
"426 652 LINE",
"426 1540 LINE",
"74 1540 LINE",
"74 0 LINE"
);
}
);
width = 1080;
},
{
anchors = (
{
name = bottom;
position = "{486, 0}";
},
{
name = top;
position = "{206, 1518}";
}
);
layerId = "FD1CEFBD-BAB1-4C2A-A598-30E93F9A29F6";
paths = (
{
closed = 1;
nodes = (
"288 0 LINE",
"288 504 LINE",
"362 504 LINE",
"314 542 LINE",
"694 0 LINE",
"890 0 LINE",
"456 610 LINE",
"448 522 LINE",
"868 1060 LINE",
"662 1060 LINE",
"310 592 LINE",
"362 628 LINE",
"288 628 LINE",
"288 1540 LINE",
"124 1540 LINE",
"124 0 LINE"
);
}
);
width = 934;
}
);
leftKerningGroup = LAT_H_UC;
leftMetricsKey = h;
rightKerningGroup = LAT_K_LC;
unicode = 006B;
},
{
glyphname = kgreenlandic;
lastChange = "2021-11-21 07:58:14 +0000";
layers = (
{
anchors = (
{
name = bottom;
position = "{436, 0}";
},
{
name = top;
position = "{436, 1048}";
}
);
layerId = "AB099EFE-E788-4EFC-8633-CF147CB782A6";
paths = (
{
closed = 1;
nodes = (
"216 0 LINE",
"216 504 LINE",
"286 504 LINE",
"242 528 LINE",
"708 0 LINE",
"796 0 LINE",
"300 552 LINE",
"300 516 LINE",
"762 1048 LINE",
"676 1048 LINE",
"242 540 LINE",
"286 566 LINE",
"216 566 LINE",
"216 1048 LINE",
"156 1048 LINE",
"156 0 LINE"
);
}
);
width = 868;
},
{
anchors = (
{
name = bottom;
position = "{536, 0}";
},
{
name = top;
position = "{536, 1080}";
}
);
layerId = "2D8F7115-C311-411E-929D-56333CF7FFB2";
paths = (
{
closed = 1;
nodes = (
"428 0 LINE",
"428 454 LINE",
"490 454 LINE",
"386 508 LINE",
"684 0 LINE",
"1088 0 LINE",
"640 666 LINE",
"640 462 LINE",
"1074 1082 LINE",
"662 1082 LINE",
"386 606 LINE",
"490 658 LINE",
"428 658 LINE",
"428 1082 LINE",
"76 1082 LINE",
"76 0 LINE"
);
}
);
width = 1086;
},
{
anchors = (
{
name = bottom;
position = "{466, 0}";
},
{
name = top;
position = "{466, 1060}";
}
);
layerId = "FD1CEFBD-BAB1-4C2A-A598-30E93F9A29F6";
paths = (
{
closed = 1;
nodes = (
"288 0 LINE",
"288 462 LINE",
"360 462 LINE",
"292 510 LINE",
"698 0 LINE",
"908 0 LINE",
"432 580 LINE",
"432 490 LINE",
"880 1060 LINE",
"670 1060 LINE",
"292 560 LINE",
"360 604 LINE",
"288 604 LINE",
"288 1060 LINE",
"124 1060 LINE",
"124 0 LINE"
);
}
);
width = 950;
}
);
leftKerningGroup = LAT_N_LC;
leftMetricsKey = n;
rightKerningGroup = LAT_K_LC;
rightMetricsKey = k;
unicode = 0138;
},
{
glyphname = l;
lastChange = "2021-11-19 08:27:05 +0000";
layers = (
{
anchors = (
{
name = bottom;
position = "{250, 0}";
},
{
name = center;
position = "{190, 738}";
},
{
name = dot;
position = "{430, 738}";
},
{
name = top;
position = "{190, 1540}";
},
{
name = topright;
position = "{224, 1540}";
}
);
layerId = "AB099EFE-E788-4EFC-8633-CF147CB782A6";
paths = (
{
closed = 1;
nodes = (
"300 -8 OFFCURVE",
"328 -4 OFFCURVE",
"344 4 CURVE",
"344 64 LINE",
"334 56 OFFCURVE",
"308 48 OFFCURVE",
"286 48 CURVE SMOOTH",
"220 48 OFFCURVE",
"220 112 OFFCURVE",
"220 174 CURVE SMOOTH",
"220 1540 LINE",
"160 1540 LINE",
"160 174 LINE SMOOTH",
"160 70 OFFCURVE",
"180 -8 OFFCURVE",
"280 -8 CURVE SMOOTH"
);
}
);
width = 410;
},
{
anchors = (
{
name = bottom;
position = "{302, 0}";
},
{
name = center;
position = "{254, 786}";
},
{
name = dot;
position = "{740, 754}";
},
{
name = top;
position = "{256, 1540}";
},
{
name = topright;
position = "{434, 1540}";
}
);
guideLines = (
{
angle = 100;
position = "{292, -12}";
}
);
layerId = "2D8F7115-C311-411E-929D-56333CF7FFB2";
paths = (
{
closed = 1;
nodes = (
"424 -16 OFFCURVE",
"480 -4 OFFCURVE",
"524 12 CURVE",
"524 282 LINE",
"520 280 OFFCURVE",
"502 274 OFFCURVE",
"492 274 CURVE SMOOTH",
"458 274 OFFCURVE",
"436 320 OFFCURVE",
"436 354 CURVE SMOOTH",
"436 1540 LINE",
"82 1540 LINE",
"82 294 LINE SMOOTH",
"82 130 OFFCURVE",
"184 -16 OFFCURVE",
"366 -16 CURVE SMOOTH"
);
}
);
width = 566;
},
{
anchors = (
{
name = bottom;
position = "{264, 0}";
},
{
name = center;
position = "{216, 772}";
},
{
name = dot;
position = "{538, 746}";
},
{
name = top;
position = "{212, 1540}";
},
{
name = topright;
position = "{296, 1540}";
}
);
layerId = "FD1CEFBD-BAB1-4C2A-A598-30E93F9A29F6";
paths = (
{
closed = 1;
nodes = (
"346 -16 OFFCURVE",
"376 -12 OFFCURVE",
"400 -4 CURVE",
"400 146 LINE",
"388 142 OFFCURVE",
"372 138 OFFCURVE",
"358 138 CURVE SMOOTH",
"292 138 OFFCURVE",
"292 214 OFFCURVE",
"292 244 CURVE SMOOTH",
"292 1540 LINE",
"128 1540 LINE",
"128 248 LINE SMOOTH",
"128 80 OFFCURVE",
"188 -16 OFFCURVE",
"318 -16 CURVE SMOOTH"
);
}
);
width = 460;
}
);
leftKerningGroup = LAT_L_LC;
rightKerningGroup = LAT_L_LC;
unicode = 006C;
},
{
color = 4;
glyphname = l.ss01;
lastChange = "2021-11-21 08:24:31 +0000";
layers = (
{
anchors = (
{
name = bottom;
position = "{204, 0}";
},
{
name = center;
position = "{200, 738}";
},
{
name = dot;
position = "{424, 738}";
},
{
name = top;
position = "{200, 1540}";
},
{
name = topright;
position = "{232, 1540}";
}
);
layerId = "AB099EFE-E788-4EFC-8633-CF147CB782A6";
paths = (
{
closed = 1;
nodes = (
"232 0 LINE",
"232 1540 LINE",
"172 1540 LINE",
"172 0 LINE"
);
}
);
width = 404;
},
{
anchors = (
{
name = bottom;
position = "{268, 0}";
},
{
name = center;
position = "{268, 786}";
},
{
name = dot;
position = "{730, 754}";
},
{
name = top;
position = "{268, 1540}";
},
{
name = topright;
position = "{442, 1540}";
}
);
layerId = "2D8F7115-C311-411E-929D-56333CF7FFB2";
paths = (
{
closed = 1;
nodes = (
"442 0 LINE",
"442 1540 LINE",
"90 1540 LINE",
"90 0 LINE"
);
}
);
width = 534;
},
{
anchors = (
{
name = bottom;
position = "{216, 0}";
},
{
name = center;
position = "{216, 756}";
},
{
name = dot;
position = "{524, 746}";
},
{
name = top;
position = "{216, 1540}";
},
{
name = topright;
position = "{298, 1540}";
}
);
layerId = "FD1CEFBD-BAB1-4C2A-A598-30E93F9A29F6";
paths = (
{
closed = 1;
nodes = (
"298 0 LINE",
"298 1540 LINE",
"134 1540 LINE",
"134 0 LINE"
);
}
);
width = 432;
}
);
leftKerningGroup = LAT_H_UC;
rightKerningGroup = LAT_H_UC;
},
{
glyphname = m;
lastChange = "2021-11-21 07:58:14 +0000";
layers = (
{
anchors = (
{
name = bottom;
position = "{724, 0}";
},
{
name = leghookleft;
position = "{1262, 0}";
},
{
name = top;
position = "{728, 1048}";
}
);
background = {
paths = (
{
closed = 1;
nodes = (
"234 0 LINE",
"234 652 LINE SMOOTH",
"233 815 OFFCURVE",
"360 1008 OFFCURVE",
"558 1008 CURVE SMOOTH",
"680 1008 OFFCURVE",
"811 930 OFFCURVE",
"812 680 CURVE SMOOTH",
"812 0 LINE",
"872 0 LINE",
"872 676 LINE SMOOTH",
"872 819 OFFCURVE",
"995 1008 OFFCURVE",
"1192 1008 CURVE SMOOTH",
"1323 1008 OFFCURVE",
"1442 930 OFFCURVE",
"1442 668 CURVE SMOOTH",
"1442 0 LINE",
"1504 0 LINE",
"1504 688 LINE SMOOTH",
"1503 954 OFFCURVE",
"1360 1065 OFFCURVE",
"1188 1064 CURVE SMOOTH",
"999 1065 OFFCURVE",
"889 934 OFFCURVE",
"852 828 CURVE",
"876 840 LINE",
"832 840 LINE",
"860 820 LINE",
"823 971 OFFCURVE",
"700 1065 OFFCURVE",
"552 1064 CURVE SMOOTH",
"393 1065 OFFCURVE",
"283 958 OFFCURVE",
"222 824 CURVE",
"246 856 LINE",
"234 856 LINE",
"234 1048 LINE",
"172 1048 LINE",
"172 0 LINE"
);
}
);
};
guideLines = (
{
angle = 60;
position = "{166, 358}";
}
);
layerId = "AB099EFE-E788-4EFC-8633-CF147CB782A6";
paths = (
{
closed = 1;
nodes = (
"216 0 LINE",
"216 718 LINE SMOOTH",
"216 894 OFFCURVE",
"313 1008 OFFCURVE",
"462 1008 CURVE SMOOTH",
"603 1008 OFFCURVE",
"694 907 OFFCURVE",
"694 750 CURVE SMOOTH",
"694 0 LINE",
"754 0 LINE",
"754 750 LINE SMOOTH",
"754 907 OFFCURVE",
"851 1008 OFFCURVE",
"1002 1008 CURVE SMOOTH",
"1144 1008 OFFCURVE",
"1236 907 OFFCURVE",
"1236 750 CURVE SMOOTH",
"1236 0 LINE",
"1296 0 LINE",
"1296 756 LINE SMOOTH",
"1296 943 OFFCURVE",
"1181 1064 OFFCURVE",
"1004 1064 CURVE SMOOTH",
"865 1064 OFFCURVE",
"750 982 OFFCURVE",
"712 856 CURVE",
"750 892 LINE",
"704 892 LINE",
"736 856 LINE",
"701 982 OFFCURVE",
"595 1064 OFFCURVE",
"468 1064 CURVE SMOOTH",
"351 1064 OFFCURVE",
"247 994 OFFCURVE",
"204 886 CURVE",
"232 920 LINE",
"216 916 LINE",
"216 1048 LINE",
"156 1048 LINE",
"156 0 LINE"
);
}
);
width = 1444;
},
{
anchors = (
{
name = bottom;
position = "{780, 0}";
},
{
name = leghookleft;
position = "{1286, 0}";
},
{
name = top;
position = "{770, 1080}";
}
);
layerId = "2D8F7115-C311-411E-929D-56333CF7FFB2";
paths = (
{
closed = 1;
nodes = (
"428 0 LINE",
"428 718 LINE SMOOTH",
"428 772 OFFCURVE",
"460 808 OFFCURVE",
"510 808 CURVE SMOOTH",
"560 808 OFFCURVE",
"592 772 OFFCURVE",
"592 718 CURVE SMOOTH",
"592 0 LINE",
"944 0 LINE",
"944 718 LINE SMOOTH",
"944 772 OFFCURVE",
"976 808 OFFCURVE",
"1026 808 CURVE SMOOTH",
"1076 808 OFFCURVE",
"1108 772 OFFCURVE",
"1108 718 CURVE SMOOTH",
"1108 0 LINE",
"1460 0 LINE",
"1460 724 LINE SMOOTH",
"1460 950 OFFCURVE",
"1344 1096 OFFCURVE",
"1164 1096 CURVE SMOOTH",
"1036 1096 OFFCURVE",
"916 1028 OFFCURVE",
"868 910 CURVE",
"896 944 LINE",
"868 944 LINE",
"892 910 LINE",
"870 1022 OFFCURVE",
"778 1096 OFFCURVE",
"662 1096 CURVE SMOOTH",
"518 1096 OFFCURVE",
"406 996 OFFCURVE",
"376 844 CURVE",
"450 940 LINE",
"406 940 LINE",
"406 1080 LINE",
"76 1080 LINE",
"76 0 LINE"
);
}
);
width = 1528;
},
{
anchors = (
{
name = bottom;
position = "{740, 0}";
},
{
name = leghookleft;
position = "{1270, 0}";
},
{
name = top;
position = "{760, 1060}";
}
);
layerId = "FD1CEFBD-BAB1-4C2A-A598-30E93F9A29F6";
paths = (
{
closed = 1;
nodes = (
"288 0 LINE",
"288 706 LINE SMOOTH",
"288 838 OFFCURVE",
"362 922 OFFCURVE",
"472 922 CURVE SMOOTH",
"584 922 OFFCURVE",
"656 840 OFFCURVE",
"656 712 CURVE SMOOTH",
"656 0 LINE",
"820 0 LINE",
"820 712 LINE SMOOTH",
"820 840 OFFCURVE",
"894 922 OFFCURVE",
"1006 922 CURVE SMOOTH",
"1116 922 OFFCURVE",
"1190 840 OFFCURVE",
"1190 712 CURVE SMOOTH",
"1190 0 LINE",
"1354 0 LINE",
"1354 708 LINE SMOOTH",
"1354 930 OFFCURVE",
"1234 1076 OFFCURVE",
"1052 1076 CURVE SMOOTH",
"908 1076 OFFCURVE",
"784 992 OFFCURVE",
"746 864 CURVE",
"810 924 LINE",
"730 924 LINE",
"794 864 LINE",
"752 992 OFFCURVE",
"652 1076 OFFCURVE",
"534 1076 CURVE SMOOTH",
"396 1076 OFFCURVE",
"292 990 OFFCURVE",
"262 878 CURVE",
"314 940 LINE",
"286 940 LINE",
"286 1060 LINE",
"124 1060 LINE",
"124 0 LINE"
);
}
);
width = 1474;
}
);
leftKerningGroup = LAT_N_LC;
leftMetricsKey = n;
rightKerningGroup = LAT_N_LC;
rightMetricsKey = n;
unicode = 006D;
},
{
glyphname = n;
lastChange = "2021-11-21 07:57:56 +0000";
layers = (
{
anchors = (
{
name = bottom;
position = "{510, 0}";
},
{
name = leghookleft;
position = "{186, 0}";
},
{
name = leghookright;
position = "{798, 0}";
},
{
name = top;
position = "{516, 1048}";
}
);
layerId = "AB099EFE-E788-4EFC-8633-CF147CB782A6";
paths = (
{
closed = 1;
nodes = (
"216 0 LINE",
"216 712 LINE SMOOTH",
"216 886 OFFCURVE",
"344 1008 OFFCURVE",
"506 1008 CURVE SMOOTH",
"666 1008 OFFCURVE",
"768 888 OFFCURVE",
"768 716 CURVE SMOOTH",
"768 0 LINE",
"828 0 LINE",
"828 716 LINE SMOOTH",
"828 926 OFFCURVE",
"704 1064 OFFCURVE",
"514 1064 CURVE SMOOTH",
"376 1064 OFFCURVE",
"246 990 OFFCURVE",
"204 866 CURVE",
"242 896 LINE",
"214 896 LINE",
"214 1048 LINE",
"156 1048 LINE",
"156 0 LINE"
);
}
);
width = 976;
},
{
anchors = (
{
name = bottom;
position = "{518, 0}";
},
{
name = leghookleft;
position = "{248, 0}";
},
{
name = leghookright;
position = "{806, 0}";
},
{
name = top;
position = "{552, 1080}";
}
);
layerId = "2D8F7115-C311-411E-929D-56333CF7FFB2";
paths = (
{
closed = 1;
nodes = (
"428 0 LINE",
"428 696 LINE SMOOTH",
"428 762 OFFCURVE",
"468 806 OFFCURVE",
"530 806 CURVE SMOOTH",
"590 806 OFFCURVE",
"628 762 OFFCURVE",
"628 698 CURVE SMOOTH",
"628 0 LINE",
"980 0 LINE",
"980 774 LINE SMOOTH",
"980 968 OFFCURVE",
"872 1096 OFFCURVE",
"702 1096 CURVE SMOOTH",
"542 1096 OFFCURVE",
"422 1012 OFFCURVE",
"400 882 CURVE",
"460 936 LINE",
"414 936 LINE",
"414 1080 LINE",
"76 1080 LINE",
"76 0 LINE"
);
}
);
width = 1048;
},
{
anchors = (
{
name = bottom;
position = "{506, 0}";
},
{
name = leghookleft;
position = "{206, 0}";
},
{
name = leghookright;
position = "{796, 0}";
},
{
name = top;
position = "{530, 1060}";
}
);
background = {
paths = (
{
closed = 1;
nodes = (
"294 0 LINE",
"294 648 LINE SMOOTH",
"294 822 OFFCURVE",
"392 916 OFFCURVE",
"514 916 CURVE SMOOTH",
"636 916 OFFCURVE",
"712 826 OFFCURVE",
"712 648 CURVE SMOOTH",
"712 0 LINE",
"886 0 LINE",
"886 692 LINE SMOOTH",
"886 876 OFFCURVE",
"790 1076 OFFCURVE",
"572 1076 CURVE SMOOTH",
"430 1076 OFFCURVE",
"306 1000 OFFCURVE",
"262 856 CURVE",
"328 930 LINE",
"292 930 LINE",
"292 1060 LINE",
"122 1060 LINE",
"122 0 LINE"
);
}
);
};
layerId = "FD1CEFBD-BAB1-4C2A-A598-30E93F9A29F6";
paths = (
{
closed = 1;
nodes = (
"288 0 LINE",
"288 700 LINE SMOOTH",
"288 838 OFFCURVE",
"378 926 OFFCURVE",
"512 926 CURVE SMOOTH",
"634 926 OFFCURVE",
"714 838 OFFCURVE",
"714 702 CURVE SMOOTH",
"714 0 LINE",
"878 0 LINE",
"878 720 LINE SMOOTH",
"878 934 OFFCURVE",
"754 1076 OFFCURVE",
"562 1076 CURVE SMOOTH",
"424 1076 OFFCURVE",
"298 1004 OFFCURVE",
"256 876 CURVE",
"326 944 LINE",
"288 944 LINE",
"286 1060 LINE",
"124 1060 LINE",
"124 0 LINE"
);
}
);
width = 998;
}
);
leftKerningGroup = LAT_N_LC;
rightKerningGroup = LAT_N_LC;
unicode = 006E;
},
{
glyphname = o;
lastChange = "2021-11-19 08:27:05 +0000";
layers = (
{
anchors = (
{
name = bottom;
position = "{510, 0}";
},
{
name = center;
position = "{510, 524}";
},
{
name = horn;
position = "{698, 1012}";
},
{
name = ogonek;
position = "{618, 0}";
},
{
name = top;
position = "{510, 1048}";
},
{
name = topright;
position = "{978, 1048}";
}
);
layerId = "AB099EFE-E788-4EFC-8633-CF147CB782A6";
paths = (
{
closed = 1;
nodes = (
"756 -16 OFFCURVE",
"916 196 OFFCURVE",
"916 524 CURVE SMOOTH",
"916 852 OFFCURVE",
"756 1064 OFFCURVE",
"510 1064 CURVE SMOOTH",
"264 1064 OFFCURVE",
"104 852 OFFCURVE",
"104 524 CURVE SMOOTH",
"104 196 OFFCURVE",
"264 -16 OFFCURVE",
"510 -16 CURVE SMOOTH"
);
},
{
closed = 1;
nodes = (
"300 40 OFFCURVE",
"164 230 OFFCURVE",
"164 524 CURVE SMOOTH",
"164 818 OFFCURVE",
"300 1008 OFFCURVE",
"510 1008 CURVE SMOOTH",
"720 1008 OFFCURVE",
"856 818 OFFCURVE",
"856 524 CURVE SMOOTH",
"856 230 OFFCURVE",
"720 40 OFFCURVE",
"510 40 CURVE SMOOTH"
);
}
);
width = 1020;
},
{
anchors = (
{
name = bottom;
position = "{524, 0}";
},
{
name = center;
position = "{524, 540}";
},
{
name = horn;
position = "{796, 1016}";
},
{
name = ogonek;
position = "{646, 0}";
},
{
name = top;
position = "{524, 1080}";
},
{
name = topright;
position = "{998, 1080}";
}
);
layerId = "2D8F7115-C311-411E-929D-56333CF7FFB2";
paths = (
{
closed = 1;
nodes = (
"828 -16 OFFCURVE",
"1012 198 OFFCURVE",
"1012 540 CURVE SMOOTH",
"1012 884 OFFCURVE",
"828 1096 OFFCURVE",
"524 1096 CURVE SMOOTH",
"222 1096 OFFCURVE",
"38 886 OFFCURVE",
"38 540 CURVE SMOOTH",
"38 196 OFFCURVE",
"222 -16 OFFCURVE",
"524 -16 CURVE SMOOTH"
);
},
{
closed = 1;
nodes = (
"424 280 OFFCURVE",
"370 374 OFFCURVE",
"370 540 CURVE SMOOTH",
"370 708 OFFCURVE",
"424 798 OFFCURVE",
"524 798 CURVE SMOOTH",
"626 798 OFFCURVE",
"680 706 OFFCURVE",
"680 540 CURVE SMOOTH",
"680 374 OFFCURVE",
"626 280 OFFCURVE",
"524 280 CURVE SMOOTH"
);
}
);
width = 1050;
},
{
anchors = (
{
name = bottom;
position = "{512, 0}";
},
{
name = center;
position = "{512, 528}";
},
{
name = horn;
position = "{728, 1016}";
},
{
name = ogonek;
position = "{626, 0}";
},
{
name = top;
position = "{512, 1060}";
},
{
name = topright;
position = "{986, 1060}";
}
);
layerId = "FD1CEFBD-BAB1-4C2A-A598-30E93F9A29F6";
paths = (
{
closed = 1;
nodes = (
"774 -16 OFFCURVE",
"944 202 OFFCURVE",
"944 536 CURVE SMOOTH",
"944 862 OFFCURVE",
"774 1076 OFFCURVE",
"512 1076 CURVE SMOOTH",
"250 1076 OFFCURVE",
"80 862 OFFCURVE",
"80 536 CURVE SMOOTH",
"80 202 OFFCURVE",
"250 -16 OFFCURVE",
"512 -16 CURVE SMOOTH"
);
},
{
closed = 1;
nodes = (
"350 136 OFFCURVE",
"244 292 OFFCURVE",
"244 536 CURVE SMOOTH",
"244 770 OFFCURVE",
"350 924 OFFCURVE",
"512 924 CURVE SMOOTH",
"674 924 OFFCURVE",
"780 770 OFFCURVE",
"780 536 CURVE SMOOTH",
"780 292 OFFCURVE",
"674 136 OFFCURVE",
"512 136 CURVE SMOOTH"
);
}
);
width = 1024;
}
);
leftKerningGroup = LAT_O_LC;
rightKerningGroup = LAT_O_LC;
unicode = 006F;
},
{
color = 4;
glyphname = o.ss01;
lastChange = "2021-11-19 08:27:05 +0000";
layers = (
{
anchors = (
{
name = bottom;
position = "{542, 0}";
},
{
name = center;
position = "{542, 524}";
},
{
name = horn;
position = "{738, 1012}";
},
{
name = ogonek;
position = "{634, 0}";
},
{
name = top;
position = "{542, 1048}";
},
{
name = topright;
position = "{1058, 1048}";
}
);
layerId = "AB099EFE-E788-4EFC-8633-CF147CB782A6";
paths = (
{
closed = 1;
nodes = (
"788 -16 OFFCURVE",
"994 226 OFFCURVE",
"994 528 CURVE SMOOTH",
"994 828 OFFCURVE",
"788 1064 OFFCURVE",
"542 1064 CURVE SMOOTH",
"294 1064 OFFCURVE",
"92 824 OFFCURVE",
"92 528 CURVE SMOOTH",
"92 228 OFFCURVE",
"294 -16 OFFCURVE",
"542 -16 CURVE SMOOTH"
);
},
{
closed = 1;
nodes = (
"328 38 OFFCURVE",
"152 262 OFFCURVE",
"152 528 CURVE SMOOTH",
"152 796 OFFCURVE",
"328 1008 OFFCURVE",
"542 1008 CURVE SMOOTH",
"758 1008 OFFCURVE",
"934 796 OFFCURVE",
"934 528 CURVE SMOOTH",
"934 258 OFFCURVE",
"758 38 OFFCURVE",
"542 38 CURVE SMOOTH"
);
}
);
width = 1086;
},
{
anchors = (
{
name = bottom;
position = "{512, 0}";
},
{
name = center;
position = "{512, 540}";
},
{
name = horn;
position = "{780, 1016}";
},
{
name = ogonek;
position = "{618, 0}";
},
{
name = top;
position = "{516, 1080}";
},
{
name = topright;
position = "{1028, 1080}";
}
);
layerId = "2D8F7115-C311-411E-929D-56333CF7FFB2";
paths = (
{
closed = 1;
nodes = (
"790 -16 OFFCURVE",
"1008 230 OFFCURVE",
"1008 540 CURVE SMOOTH",
"1008 850 OFFCURVE",
"790 1096 OFFCURVE",
"512 1096 CURVE SMOOTH",
"238 1096 OFFCURVE",
"16 850 OFFCURVE",
"16 540 CURVE SMOOTH",
"16 230 OFFCURVE",
"238 -16 OFFCURVE",
"512 -16 CURVE SMOOTH"
);
},
{
closed = 1;
nodes = (
"424 284 OFFCURVE",
"350 400 OFFCURVE",
"350 542 CURVE SMOOTH",
"350 682 OFFCURVE",
"424 796 OFFCURVE",
"512 796 CURVE SMOOTH",
"602 796 OFFCURVE",
"674 682 OFFCURVE",
"674 540 CURVE SMOOTH",
"674 402 OFFCURVE",
"606 284 OFFCURVE",
"512 284 CURVE SMOOTH"
);
}
);
width = 1024;
},
{
anchors = (
{
name = bottom;
position = "{526, 0}";
},
{
name = center;
position = "{526, 532}";
},
{
name = horn;
position = "{746, 1016}";
},
{
name = ogonek;
position = "{624, 0}";
},
{
name = top;
position = "{528, 1060}";
},
{
name = topright;
position = "{1042, 1060}";
}
);
layerId = "FD1CEFBD-BAB1-4C2A-A598-30E93F9A29F6";
paths = (
{
closed = 1;
nodes = (
"784 -16 OFFCURVE",
"994 230 OFFCURVE",
"994 536 CURVE SMOOTH",
"994 838 OFFCURVE",
"784 1076 OFFCURVE",
"526 1076 CURVE SMOOTH",
"268 1076 OFFCURVE",
"62 838 OFFCURVE",
"62 536 CURVE SMOOTH",
"62 230 OFFCURVE",
"268 -16 OFFCURVE",
"526 -16 CURVE SMOOTH"
);
},
{
closed = 1;
nodes = (
"356 136 OFFCURVE",
"224 316 OFFCURVE",
"224 536 CURVE SMOOTH",
"224 754 OFFCURVE",
"356 922 OFFCURVE",
"526 922 CURVE SMOOTH",
"694 922 OFFCURVE",
"834 756 OFFCURVE",
"834 540 CURVE SMOOTH",
"834 318 OFFCURVE",
"696 136 OFFCURVE",
"526 136 CURVE SMOOTH"
);
}
);
width = 1056;
}
);
leftKerningGroup = LAT_O_LC;
rightKerningGroup = LAT_O_LC;
},
{
glyphname = oe;
lastChange = "2021-11-19 08:27:05 +0000";
layers = (
{
anchors = (
{
name = top;
position = "{868, 1048}";
}
);
layerId = "AB099EFE-E788-4EFC-8633-CF147CB782A6";
paths = (
{
closed = 1;
nodes = (
"742 -16 OFFCURVE",
"898 206 OFFCURVE",
"898 524 CURVE SMOOTH",
"898 846 OFFCURVE",
"740 1064 OFFCURVE",
"506 1064 CURVE SMOOTH",
"270 1064 OFFCURVE",
"104 846 OFFCURVE",
"104 524 CURVE SMOOTH",
"104 204 OFFCURVE",
"270 -16 OFFCURVE",
"506 -16 CURVE SMOOTH"
);
},
{
closed = 1;
nodes = (
"306 40 OFFCURVE",
"164 236 OFFCURVE",
"164 524 CURVE SMOOTH",
"164 812 OFFCURVE",
"306 1008 OFFCURVE",
"506 1008 CURVE SMOOTH",
"706 1008 OFFCURVE",
"840 812 OFFCURVE",
"840 526 CURVE SMOOTH",
"840 238 OFFCURVE",
"706 40 OFFCURVE",
"506 40 CURVE SMOOTH"
);
},
{
closed = 1;
nodes = (
"1340 -16 OFFCURVE",
"1446 34 OFFCURVE",
"1524 108 CURVE",
"1500 172 LINE",
"1430 94 OFFCURVE",
"1332 40 OFFCURVE",
"1226 40 CURVE SMOOTH",
"1036 40 OFFCURVE",
"900 226 OFFCURVE",
"902 528 CURVE SMOOTH",
"902 808 OFFCURVE",
"1016 1008 OFFCURVE",
"1212 1008 CURVE SMOOTH",
"1394 1008 OFFCURVE",
"1510 834 OFFCURVE",
"1508 562 CURVE",
"886 562 LINE",
"886 506 LINE",
"1568 506 LINE",
"1570 520 OFFCURVE",
"1572 536 OFFCURVE",
"1572 548 CURVE SMOOTH",
"1572 860 OFFCURVE",
"1438 1064 OFFCURVE",
"1216 1064 CURVE SMOOTH",
"984 1064 OFFCURVE",
"844 842 OFFCURVE",
"844 532 CURVE SMOOTH",
"844 200 OFFCURVE",
"1002 -16 OFFCURVE",
"1228 -16 CURVE SMOOTH"
);
}
);
width = 1676;
},
{
anchors = (
{
name = top;
position = "{814, 1080}";
}
);
layerId = "2D8F7115-C311-411E-929D-56333CF7FFB2";
paths = (
{
closed = 1;
nodes = (
"770 -16 OFFCURVE",
"944 210 OFFCURVE",
"944 540 CURVE SMOOTH",
"944 870 OFFCURVE",
"768 1096 OFFCURVE",
"500 1096 CURVE SMOOTH",
"226 1096 OFFCURVE",
"38 872 OFFCURVE",
"38 544 CURVE SMOOTH",
"38 212 OFFCURVE",
"228 -16 OFFCURVE",
"502 -16 CURVE SMOOTH"
);
},
{
closed = 1;
nodes = (
"418 272 OFFCURVE",
"360 372 OFFCURVE",
"360 538 CURVE SMOOTH",
"360 704 OFFCURVE",
"418 804 OFFCURVE",
"510 804 CURVE SMOOTH",
"604 804 OFFCURVE",
"660 706 OFFCURVE",
"660 540 CURVE SMOOTH",
"660 374 OFFCURVE",
"604 272 OFFCURVE",
"512 272 CURVE SMOOTH"
);
},
{
closed = 1;
nodes = (
"1280 -16 OFFCURVE",
"1416 14 OFFCURVE",
"1484 54 CURVE",
"1362 314 LINE",
"1332 280 OFFCURVE",
"1252 254 OFFCURVE",
"1182 254 CURVE SMOOTH",
"1030 254 OFFCURVE",
"950 378 OFFCURVE",
"950 564 CURVE SMOOTH",
"950 734 OFFCURVE",
"1016 834 OFFCURVE",
"1116 834 CURVE SMOOTH",
"1200 834 OFFCURVE",
"1252 762 OFFCURVE",
"1254 638 CURVE",
"910 638 LINE",
"910 434 LINE",
"1532 434 LINE",
"1538 466 OFFCURVE",
"1544 530 OFFCURVE",
"1544 582 CURVE SMOOTH",
"1544 894 OFFCURVE",
"1388 1096 OFFCURVE",
"1126 1096 CURVE SMOOTH",
"842 1096 OFFCURVE",
"700 860 OFFCURVE",
"700 544 CURVE SMOOTH",
"700 206 OFFCURVE",
"864 -16 OFFCURVE",
"1170 -16 CURVE SMOOTH"
);
}
);
width = 1582;
},
{
anchors = (
{
name = top;
position = "{846, 1060}";
}
);
layerId = "FD1CEFBD-BAB1-4C2A-A598-30E93F9A29F6";
paths = (
{
closed = 1;
nodes = (
"756 -16 OFFCURVE",
"916 200 OFFCURVE",
"916 532 CURVE SMOOTH",
"916 860 OFFCURVE",
"752 1076 OFFCURVE",
"498 1076 CURVE SMOOTH",
"246 1076 OFFCURVE",
"80 864 OFFCURVE",
"80 538 CURVE SMOOTH",
"80 202 OFFCURVE",
"250 -16 OFFCURVE",
"508 -16 CURVE SMOOTH"
);
},
{
closed = 1;
nodes = (
"346 136 OFFCURVE",
"240 292 OFFCURVE",
"240 532 CURVE SMOOTH",
"240 768 OFFCURVE",
"344 924 OFFCURVE",
"506 924 CURVE SMOOTH",
"666 924 OFFCURVE",
"774 766 OFFCURVE",
"774 524 CURVE SMOOTH",
"774 290 OFFCURVE",
"670 136 OFFCURVE",
"510 136 CURVE SMOOTH"
);
},
{
closed = 1;
nodes = (
"1320 -16 OFFCURVE",
"1434 24 OFFCURVE",
"1512 80 CURVE",
"1452 230 LINE",
"1382 172 OFFCURVE",
"1290 136 OFFCURVE",
"1210 136 CURVE SMOOTH",
"1034 136 OFFCURVE",
"918 290 OFFCURVE",
"918 530 CURVE SMOOTH",
"918 766 OFFCURVE",
"1020 924 OFFCURVE",
"1176 924 CURVE SMOOTH",
"1316 924 OFFCURVE",
"1404 796 OFFCURVE",
"1402 600 CURVE",
"890 600 LINE",
"890 466 LINE",
"1546 466 LINE",
"1550 494 OFFCURVE",
"1554 530 OFFCURVE",
"1554 580 CURVE SMOOTH",
"1554 880 OFFCURVE",
"1406 1076 OFFCURVE",
"1178 1076 CURVE SMOOTH",
"938 1076 OFFCURVE",
"784 860 OFFCURVE",
"784 536 CURVE SMOOTH",
"784 202 OFFCURVE",
"950 -16 OFFCURVE",
"1206 -16 CURVE SMOOTH"
);
}
);
width = 1632;
}
);
leftKerningGroup = LAT_O_LC;
leftMetricsKey = o;
rightKerningGroup = LAT_E_LC;
rightMetricsKey = e;
unicode = 0153;
},
{
glyphname = p;
lastChange = "2021-11-21 07:58:02 +0000";
layers = (
{
anchors = (
{
name = bottom;
position = "{186, -420}";
},
{
name = top;
position = "{536, 1048}";
}
);
components = (
{
name = _part.bowl;
transform = "{1, 0, 0, 1, 4, 0}";
}
);
layerId = "AB099EFE-E788-4EFC-8633-CF147CB782A6";
paths = (
{
closed = 1;
nodes = (
"216 224 LINE",
"238 224 LINE",
"208 330 LINE",
"208 748 LINE",
"244 834 LINE",
"216 834 LINE",
"216 1048 LINE",
"156 1048 LINE",
"156 -420 LINE",
"216 -420 LINE"
);
}
);
width = 1046;
},
{
anchors = (
{
name = bottom;
position = "{248, -420}";
},
{
name = top;
position = "{554, 1080}";
}
);
components = (
{
name = _part.bowl;
transform = "{1, 0, 0, 1, 2, 0}";
}
);
layerId = "2D8F7115-C311-411E-929D-56333CF7FFB2";
paths = (
{
closed = 1;
nodes = (
"428 92 LINE",
"480 92 LINE",
"408 214 LINE",
"408 862 LINE",
"450 972 LINE",
"408 972 LINE",
"408 1080 LINE",
"76 1080 LINE",
"76 -420 LINE",
"428 -420 LINE"
);
}
);
width = 1092;
},
{
anchors = (
{
name = bottom;
position = "{212, -420}";
},
{
name = top;
position = "{544, 1060}";
}
);
components = (
{
alignment = -1;
name = _part.bowl;
transform = "{1, 0, 0, 1, 4, 0}";
}
);
layerId = "FD1CEFBD-BAB1-4C2A-A598-30E93F9A29F6";
paths = (
{
closed = 1;
nodes = (
"288 150 LINE",
"318 150 LINE",
"266 270 LINE",
"266 818 LINE",
"310 928 LINE",
"284 928 LINE",
"284 1060 LINE",
"124 1060 LINE",
"124 -420 LINE",
"288 -420 LINE"
);
}
);
width = 1058;
}
);
leftKerningGroup = LAT_P_LC;
rightKerningGroup = LAT_O_LC;
rightMetricsKey = o;
unicode = 0070;
},
{
color = 4;
glyphname = p.ss01;
lastChange = "2021-11-19 08:27:05 +0000";
layers = (
{
anchors = (
{
name = bottom;
position = "{186, -420}";
},
{
name = top;
position = "{536, 1048}";
}
);
components = (
{
name = _part.bowl.ss01;
}
);
layerId = "AB099EFE-E788-4EFC-8633-CF147CB782A6";
paths = (
{
closed = 1;
nodes = (
"216 -420 LINE",
"216 244 LINE",
"228 244 LINE",
"212 304 LINE",
"212 778 LINE",
"234 810 LINE",
"216 810 LINE",
"216 1048 LINE",
"156 1048 LINE",
"156 -420 LINE"
);
}
);
width = 1104;
},
{
anchors = (
{
name = bottom;
position = "{248, -420}";
},
{
name = top;
position = "{554, 1080}";
}
);
components = (
{
name = _part.bowl.ss01;
transform = "{1, 0, 0, 1, -22, 0}";
}
);
layerId = "2D8F7115-C311-411E-929D-56333CF7FFB2";
paths = (
{
closed = 1;
nodes = (
"428 -424 LINE",
"428 108 LINE",
"452 108 LINE",
"408 214 LINE",
"408 866 LINE",
"452 958 LINE",
"406 958 LINE",
"406 1080 LINE",
"76 1080 LINE",
"76 -420 LINE"
);
}
);
width = 1120;
},
{
anchors = (
{
name = bottom;
position = "{208, -420}";
},
{
name = top;
position = "{544, 1060}";
}
);
components = (
{
alignment = -1;
name = _part.bowl.ss01;
transform = "{1, 0, 0, 1, -10, 0}";
}
);
layerId = "FD1CEFBD-BAB1-4C2A-A598-30E93F9A29F6";
paths = (
{
closed = 1;
nodes = (
"288 -420 LINE",
"288 154 LINE",
"308 154 LINE",
"276 276 LINE",
"276 832 LINE",
"302 902 LINE",
"282 902 LINE",
"282 1060 LINE",
"120 1060 LINE",
"120 -420 LINE"
);
}
);
width = 1116;
}
);
leftKerningGroup = LAT_P_LC;
rightKerningGroup = LAT_O_LC;
rightMetricsKey = o;
},
{
glyphname = thorn;
lastChange = "2021-11-21 07:58:14 +0000";
layers = (
{
anchors = (
{
name = bottom;
position = "{550, -4}";
},
{
name = top;
position = "{186, 1540}";
}
);
components = (
{
name = _part.bowl;
transform = "{1, 0, 0, 1, 4, 0}";
}
);
layerId = "AB099EFE-E788-4EFC-8633-CF147CB782A6";
paths = (
{
closed = 1;
nodes = (
"216 224 LINE",
"240 224 LINE",
"208 330 LINE",
"208 750 LINE",
"236 834 LINE",
"216 834 LINE",
"216 1540 LINE",
"156 1540 LINE",
"156 -420 LINE",
"216 -420 LINE"
);
}
);
width = 1046;
},
{
anchors = (
{
name = bottom;
position = "{644, 0}";
},
{
name = top;
position = "{244, 1540}";
}
);
components = (
{
name = _part.bowl;
transform = "{1, 0, 0, 1, 4, 0}";
}
);
layerId = "2D8F7115-C311-411E-929D-56333CF7FFB2";
paths = (
{
closed = 1;
nodes = (
"426 96 LINE",
"478 96 LINE",
"406 214 LINE",
"406 866 LINE",
"450 996 LINE",
"426 996 LINE",
"426 1540 LINE",
"74 1540 LINE",
"74 -420 LINE",
"426 -420 LINE"
);
}
);
width = 1094;
},
{
anchors = (
{
name = bottom;
position = "{582, 0}";
},
{
name = top;
position = "{206, 1518}";
}
);
components = (
{
alignment = -1;
name = _part.bowl;
transform = "{1, 0, 0, 1, 8, 0}";
}
);
layerId = "FD1CEFBD-BAB1-4C2A-A598-30E93F9A29F6";
paths = (
{
closed = 1;
nodes = (
"288 124 LINE",
"316 124 LINE",
"266 270 LINE",
"266 780 LINE",
"310 940 LINE",
"288 940 LINE",
"288 1540 LINE",
"124 1540 LINE",
"124 -420 LINE",
"288 -420 LINE"
);
}
);
width = 1062;
}
);
leftKerningGroup = LAT_L_LC;
leftMetricsKey = h;
rightKerningGroup = LAT_O_LC;
rightMetricsKey = p;
unicode = 00FE;
},
{
color = 4;
glyphname = thorn.ss01;
lastChange = "2021-11-21 07:58:14 +0000";
layers = (
{
anchors = (
{
name = bottom;
position = "{582, 0}";
},
{
name = top;
position = "{186, 1540}";
}
);
components = (
{
name = _part.bowl.ss01;
}
);
layerId = "AB099EFE-E788-4EFC-8633-CF147CB782A6";
paths = (
{
closed = 1;
nodes = (
"216 244 LINE",
"228 244 LINE",
"212 330 LINE",
"212 770 LINE",
"228 810 LINE",
"216 810 LINE",
"216 1540 LINE",
"156 1540 LINE",
"156 -420 LINE",
"216 -420 LINE"
);
}
);
width = 1104;
},
{
anchors = (
{
name = bottom;
position = "{680, 0}";
},
{
name = top;
position = "{240, 1540}";
}
);
components = (
{
name = _part.bowl.ss01;
transform = "{1, 0, 0, 1, -24, 0}";
}
);
layerId = "2D8F7115-C311-411E-929D-56333CF7FFB2";
paths = (
{
closed = 1;
nodes = (
"426 110 LINE",
"480 110 LINE",
"412 212 LINE",
"412 840 LINE",
"450 956 LINE",
"404 956 LINE",
"404 1540 LINE",
"74 1540 LINE",
"74 -420 LINE",
"426 -420 LINE"
);
}
);
width = 1118;
},
{
anchors = (
{
name = bottom;
position = "{610, 0}";
},
{
name = top;
position = "{204, 1518}";
}
);
components = (
{
alignment = -1;
name = _part.bowl.ss01;
transform = "{1, 0, 0, 1, -8, 0}";
}
);
layerId = "FD1CEFBD-BAB1-4C2A-A598-30E93F9A29F6";
paths = (
{
closed = 1;
nodes = (
"288 152 LINE",
"314 152 LINE",
"272 234 LINE",
"272 820 LINE",
"310 906 LINE",
"286 906 LINE",
"286 1540 LINE",
"124 1540 LINE",
"124 -420 LINE",
"288 -420 LINE"
);
}
);
width = 1118;
}
);
leftKerningGroup = LAT_L_LC;
leftMetricsKey = h;
rightKerningGroup = LAT_O_LC;
rightMetricsKey = p;
},
{
glyphname = q;
lastChange = "2021-11-19 08:27:11 +0000";
layers = (
{
anchors = (
{
name = bottom;
position = "{862, -420}";
},
{
name = top;
position = "{496, 1048}";
}
);
components = (
{
name = _part.bowl;
transform = "{-1, 0, 0, 1, 1042, 0}";
}
);
layerId = "AB099EFE-E788-4EFC-8633-CF147CB782A6";
paths = (
{
closed = 1;
nodes = (
"970 -382 LINE",
"916 -350 OFFCURVE",
"890 -284 OFFCURVE",
"890 -190 CURVE SMOOTH",
"890 1048 LINE",
"830 1048 LINE",
"830 834 LINE",
"808 834 LINE",
"838 782 LINE",
"838 296 LINE",
"816 224 LINE",
"830 224 LINE",
"830 -196 LINE SMOOTH",
"830 -322 OFFCURVE",
"862 -386 OFFCURVE",
"946 -438 CURVE"
);
}
);
width = 1054;
},
{
anchors = (
{
name = bottom;
position = "{832, -420}";
},
{
name = top;
position = "{456, 1080}";
}
);
components = (
{
name = _part.bowl;
transform = "{-1, 0, 0, 1, 1090, 0}";
}
);
layerId = "2D8F7115-C311-411E-929D-56333CF7FFB2";
paths = (
{
closed = 1;
nodes = (
"1084 -152 LINE",
"1036 -132 OFFCURVE",
"1012 -110 OFFCURVE",
"1012 -30 CURVE SMOOTH",
"1012 1080 LINE",
"680 1080 LINE",
"680 972 LINE",
"652 972 LINE",
"676 856 LINE",
"676 174 LINE",
"610 94 LINE",
"656 94 LINE",
"656 -64 LINE SMOOTH",
"656 -240 OFFCURVE",
"762 -360 OFFCURVE",
"960 -438 CURVE"
);
}
);
width = 1094;
},
{
anchors = (
{
name = bottom;
position = "{864, -420}";
},
{
name = top;
position = "{490, 1060}";
}
);
components = (
{
alignment = -1;
name = _part.bowl;
transform = "{-1, 0, 0, 1, 1054, 0}";
}
);
layerId = "FD1CEFBD-BAB1-4C2A-A598-30E93F9A29F6";
paths = (
{
closed = 1;
nodes = (
"1010 -292 LINE",
"948 -260 OFFCURVE",
"940 -224 OFFCURVE",
"940 -104 CURVE SMOOTH",
"940 1060 LINE",
"778 1060 LINE",
"778 928 LINE",
"744 928 LINE",
"790 814 LINE",
"790 238 LINE",
"748 150 LINE",
"776 150 LINE",
"776 -156 LINE SMOOTH",
"776 -298 OFFCURVE",
"828 -382 OFFCURVE",
"950 -438 CURVE"
);
}
);
width = 1066;
}
);
leftKerningGroup = LAT_O_LC;
leftMetricsKey = o;
rightKerningGroup = LAT_Q_LC;
unicode = 0071;
},
{
glyphname = r;
lastChange = "2021-11-21 07:58:14 +0000";
layers = (
{
anchors = (
{
name = bottom;
position = "{186, 0}";
},
{
name = top;
position = "{342, 1048}";
}
);
guideLines = (
{
angle = 67.5;
position = "{54, -200}";
}
);
layerId = "AB099EFE-E788-4EFC-8633-CF147CB782A6";
paths = (
{
closed = 1;
nodes = (
"216 0 LINE",
"216 644 LINE SMOOTH",
"216 856 OFFCURVE",
"388 1008 OFFCURVE",
"504 1008 CURVE SMOOTH",
"526 1008 OFFCURVE",
"540 1004 OFFCURVE",
"562 996 CURVE",
"586 1052 LINE",
"566 1062 OFFCURVE",
"536 1064 OFFCURVE",
"514 1064 CURVE SMOOTH",
"392 1064 OFFCURVE",
"266 964 OFFCURVE",
"202 812 CURVE",
"238 852 LINE",
"216 852 LINE",
"216 1048 LINE",
"156 1048 LINE",
"156 0 LINE"
);
}
);
width = 622;
},
{
anchors = (
{
name = bottom;
position = "{254, 0}";
},
{
name = top;
position = "{390, 1080}";
}
);
guideLines = (
{
angle = 67.5;
position = "{134, -200}";
}
);
layerId = "2D8F7115-C311-411E-929D-56333CF7FFB2";
paths = (
{
closed = 1;
nodes = (
"428 0 LINE",
"428 540 LINE SMOOTH",
"428 692 OFFCURVE",
"510 756 OFFCURVE",
"580 756 CURVE SMOOTH",
"618 756 OFFCURVE",
"656 744 OFFCURVE",
"670 736 CURVE",
"810 1072 LINE",
"794 1084 OFFCURVE",
"746 1096 OFFCURVE",
"696 1096 CURVE SMOOTH",
"512 1096 OFFCURVE",
"406 944 OFFCURVE",
"374 854 CURVE",
"444 932 LINE",
"416 932 LINE",
"416 1080 LINE",
"76 1080 LINE",
"76 0 LINE"
);
}
);
width = 790;
},
{
anchors = (
{
name = bottom;
position = "{206, 0}";
},
{
name = top;
position = "{354, 1060}";
}
);
layerId = "FD1CEFBD-BAB1-4C2A-A598-30E93F9A29F6";
paths = (
{
closed = 1;
nodes = (
"288 0 LINE",
"288 608 LINE SMOOTH",
"288 798 OFFCURVE",
"426 912 OFFCURVE",
"528 912 CURVE SMOOTH",
"550 912 OFFCURVE",
"584 908 OFFCURVE",
"594 904 CURVE",
"660 1062 LINE",
"646 1068 OFFCURVE",
"600 1076 OFFCURVE",
"566 1076 CURVE SMOOTH",
"416 1076 OFFCURVE",
"308 964 OFFCURVE",
"262 830 CURVE",
"312 894 LINE",
"286 894 LINE",
"286 1060 LINE",
"124 1060 LINE",
"124 0 LINE"
);
}
);
width = 670;
}
);
leftKerningGroup = LAT_N_LC;
leftMetricsKey = n;
rightKerningGroup = LAT_R_LC;
unicode = 0072;
},
{
glyphname = s;
lastChange = "2021-11-21 07:41:32 +0000";
layers = (
{
anchors = (
{
name = bottom;
position = "{360, 0}";
},
{
name = cedilla;
position = "{368, 0}";
},
{
name = top;
position = "{354, 1048}";
}
);
background = {
paths = (
{
closed = 1;
nodes = (
"550 -16 OFFCURVE",
"680 96 OFFCURVE",
"680 272 CURVE SMOOTH",
"680 480 OFFCURVE",
"508 536 OFFCURVE",
"398 578 CURVE SMOOTH",
"308 612 OFFCURVE",
"196 658 OFFCURVE",
"192 804 CURVE SMOOTH",
"190 934 OFFCURVE",
"270 1008 OFFCURVE",
"376 1008 CURVE SMOOTH",
"474 1008 OFFCURVE",
"556 944 OFFCURVE",
"592 862 CURVE",
"648 884 LINE",
"600 994 OFFCURVE",
"498 1064 OFFCURVE",
"378 1064 CURVE SMOOTH",
"240 1064 OFFCURVE",
"132 960 OFFCURVE",
"132 814 CURVE SMOOTH",
"132 640 OFFCURVE",
"284 554 OFFCURVE",
"384 522 CURVE SMOOTH",
"464 496 OFFCURVE",
"620 442 OFFCURVE",
"620 272 CURVE SMOOTH",
"620 138 OFFCURVE",
"518 40 OFFCURVE",
"404 40 CURVE SMOOTH",
"290 40 OFFCURVE",
"200 128 OFFCURVE",
"164 232 CURVE",
"104 208 LINE",
"144 94 OFFCURVE",
"252 -16 OFFCURVE",
"404 -16 CURVE SMOOTH"
);
}
);
};
layerId = "AB099EFE-E788-4EFC-8633-CF147CB782A6";
paths = (
{
closed = 1;
nodes = (
"562 -16 OFFCURVE",
"678 104 OFFCURVE",
"678 270 CURVE SMOOTH",
"678 424 OFFCURVE",
"576 504 OFFCURVE",
"416 570 CURVE SMOOTH",
"256 636 OFFCURVE",
"178 706 OFFCURVE",
"178 816 CURVE SMOOTH",
"178 926 OFFCURVE",
"256 1008 OFFCURVE",
"374 1008 CURVE SMOOTH",
"462 1008 OFFCURVE",
"558 964 OFFCURVE",
"608 900 CURVE",
"632 956 LINE",
"584 1020 OFFCURVE",
"478 1064 OFFCURVE",
"376 1064 CURVE SMOOTH",
"222 1064 OFFCURVE",
"118 962 OFFCURVE",
"118 816 CURVE SMOOTH",
"118 680 OFFCURVE",
"210 596 OFFCURVE",
"360 532 CURVE SMOOTH",
"536 458 OFFCURVE",
"618 390 OFFCURVE",
"618 268 CURVE SMOOTH",
"618 140 OFFCURVE",
"528 40 OFFCURVE",
"398 40 CURVE SMOOTH",
"292 40 OFFCURVE",
"176 108 OFFCURVE",
"110 206 CURVE",
"84 144 LINE",
"146 52 OFFCURVE",
"268 -16 OFFCURVE",
"394 -16 CURVE SMOOTH"
);
}
);
width = 778;
},
{
anchors = (
{
name = bottom;
position = "{438, 0}";
},
{
name = cedilla;
position = "{458, 0}";
},
{
name = top;
position = "{440, 1082}";
}
);
layerId = "2D8F7115-C311-411E-929D-56333CF7FFB2";
paths = (
{
closed = 1;
nodes = (
"670 -16 OFFCURVE",
"848 118 OFFCURVE",
"848 324 CURVE SMOOTH",
"848 492 OFFCURVE",
"728 590 OFFCURVE",
"552 650 CURVE SMOOTH",
"434 690 OFFCURVE",
"408 714 OFFCURVE",
"408 748 CURVE SMOOTH",
"408 790 OFFCURVE",
"456 810 OFFCURVE",
"496 810 CURVE SMOOTH",
"552 810 OFFCURVE",
"644 774 OFFCURVE",
"690 730 CURVE",
"814 986 LINE",
"720 1056 OFFCURVE",
"592 1096 OFFCURVE",
"472 1096 CURVE SMOOTH",
"252 1096 OFFCURVE",
"76 966 OFFCURVE",
"76 766 CURVE SMOOTH",
"76 592 OFFCURVE",
"210 498 OFFCURVE",
"366 446 CURVE SMOOTH",
"474 410 OFFCURVE",
"516 380 OFFCURVE",
"516 340 CURVE SMOOTH",
"516 304 OFFCURVE",
"486 274 OFFCURVE",
"420 274 CURVE SMOOTH",
"324 274 OFFCURVE",
"226 332 OFFCURVE",
"156 402 CURVE",
"44 120 LINE",
"142 44 OFFCURVE",
"300 -16 OFFCURVE",
"448 -16 CURVE SMOOTH"
);
}
);
width = 882;
},
{
anchors = (
{
name = bottom;
position = "{388, 0}";
},
{
name = cedilla;
position = "{400, 0}";
},
{
name = top;
position = "{384, 1060}";
}
);
background = {
paths = (
{
closed = 1;
nodes = (
"592 -16 OFFCURVE",
"724 112 OFFCURVE",
"724 292 CURVE SMOOTH",
"724 464 OFFCURVE",
"610 556 OFFCURVE",
"450 612 CURVE SMOOTH",
"322 658 OFFCURVE",
"254 698 OFFCURVE",
"254 784 CURVE SMOOTH",
"254 866 OFFCURVE",
"310 920 OFFCURVE",
"396 920 CURVE SMOOTH",
"478 920 OFFCURVE",
"562 872 OFFCURVE",
"628 794 CURVE",
"690 954 LINE",
"616 1030 OFFCURVE",
"506 1076 OFFCURVE",
"392 1076 CURVE SMOOTH",
"214 1076 OFFCURVE",
"92 962 OFFCURVE",
"92 790 CURVE SMOOTH",
"92 624 OFFCURVE",
"206 524 OFFCURVE",
"362 472 CURVE SMOOTH",
"498 426 OFFCURVE",
"560 388 OFFCURVE",
"560 300 CURVE SMOOTH",
"560 202 OFFCURVE",
"488 140 OFFCURVE",
"402 140 CURVE SMOOTH",
"314 140 OFFCURVE",
"212 206 OFFCURVE",
"130 308 CURVE",
"56 146 LINE",
"150 48 OFFCURVE",
"286 -16 OFFCURVE",
"414 -16 CURVE SMOOTH"
);
},
{
closed = 1;
nodes = (
"592 -16 OFFCURVE",
"724 112 OFFCURVE",
"724 290 CURVE SMOOTH",
"724 438 OFFCURVE",
"618 522 OFFCURVE",
"486 590 CURVE SMOOTH",
"370 650 OFFCURVE",
"254 696 OFFCURVE",
"254 792 CURVE SMOOTH",
"254 866 OFFCURVE",
"310 920 OFFCURVE",
"396 920 CURVE SMOOTH",
"478 920 OFFCURVE",
"562 872 OFFCURVE",
"628 794 CURVE",
"690 954 LINE",
"616 1030 OFFCURVE",
"506 1076 OFFCURVE",
"394 1076 CURVE SMOOTH",
"214 1076 OFFCURVE",
"90 960 OFFCURVE",
"90 798 CURVE SMOOTH",
"90 630 OFFCURVE",
"224 552 OFFCURVE",
"366 478 CURVE SMOOTH",
"468 425 OFFCURVE",
"560 376 OFFCURVE",
"560 290 CURVE SMOOTH",
"560 206 OFFCURVE",
"492 140 OFFCURVE",
"402 140 CURVE SMOOTH",
"314 140 OFFCURVE",
"212 206 OFFCURVE",
"130 308 CURVE",
"56 146 LINE",
"150 48 OFFCURVE",
"286 -16 OFFCURVE",
"414 -16 CURVE SMOOTH"
);
}
);
};
layerId = "FD1CEFBD-BAB1-4C2A-A598-30E93F9A29F6";
paths = (
{
closed = 1;
nodes = (
"592 -16 OFFCURVE",
"722 112 OFFCURVE",
"722 288 CURVE SMOOTH",
"722 448 OFFCURVE",
"616 562 OFFCURVE",
"448 610 CURVE SMOOTH",
"314 648 OFFCURVE",
"250 708 OFFCURVE",
"250 792 CURVE SMOOTH",
"250 868 OFFCURVE",
"308 926 OFFCURVE",
"396 926 CURVE SMOOTH",
"478 926 OFFCURVE",
"564 878 OFFCURVE",
"628 802 CURVE",
"688 954 LINE",
"616 1030 OFFCURVE",
"504 1076 OFFCURVE",
"394 1076 CURVE SMOOTH",
"218 1076 OFFCURVE",
"96 960 OFFCURVE",
"96 800 CURVE SMOOTH",
"96 648 OFFCURVE",
"202 522 OFFCURVE",
"368 476 CURVE SMOOTH",
"504 438 OFFCURVE",
"566 372 OFFCURVE",
"566 290 CURVE SMOOTH",
"566 204 OFFCURVE",
"496 132 OFFCURVE",
"404 132 CURVE SMOOTH",
"318 132 OFFCURVE",
"216 194 OFFCURVE",
"130 300 CURVE",
"60 146 LINE",
"152 48 OFFCURVE",
"288 -16 OFFCURVE",
"414 -16 CURVE SMOOTH"
);
}
);
width = 788;
},
{
anchors = (
{
name = bottom;
position = "{404, 0}";
},
{
name = cedilla;
position = "{420, 0}";
},
{
name = top;
position = "{402, 1068}";
}
);
associatedMasterId = "FD1CEFBD-BAB1-4C2A-A598-30E93F9A29F6";
background = {
paths = (
{
closed = 1;
nodes = (
"617 -16 OFFCURVE",
"765 115 OFFCURVE",
"766 300 CURVE SMOOTH",
"765 456 OFFCURVE",
"657 541 OFFCURVE",
"526 602 CURVE SMOOTH",
"407 656 OFFCURVE",
"307 696 OFFCURVE",
"308 776 CURVE SMOOTH",
"307 840 OFFCURVE",
"359 882 OFFCURVE",
"430 882 CURVE SMOOTH",
"502 882 OFFCURVE",
"588 837 OFFCURVE",
"648 772 CURVE",
"732 966 LINE",
"650 1039 OFFCURVE",
"535 1083 OFFCURVE",
"420 1084 CURVE SMOOTH",
"224 1083 OFFCURVE",
"82 963 OFFCURVE",
"84 786 CURVE SMOOTH",
"82 617 OFFCURVE",
"208 531 OFFCURVE",
"344 474 CURVE SMOOTH",
"456 424 OFFCURVE",
"538 386 OFFCURVE",
"538 310 CURVE SMOOTH",
"538 238 OFFCURVE",
"482 187 OFFCURVE",
"402 188 CURVE SMOOTH",
"313 187 OFFCURVE",
"213 251 OFFCURVE",
"136 342 CURVE",
"50 138 LINE",
"145 47 OFFCURVE",
"288 -16 OFFCURVE",
"424 -16 CURVE SMOOTH"
);
}
);
};
layerId = "9F71E582-72DF-403E-9CF4-D00019DEA57C";
name = "{120}";
paths = (
{
closed = 1;
nodes = (
"614 -16 OFFCURVE",
"764 114 OFFCURVE",
"764 302 CURVE SMOOTH",
"764 480 OFFCURVE",
"628 574 OFFCURVE",
"492 624 CURVE SMOOTH",
"362 672 OFFCURVE",
"304 702 OFFCURVE",
"304 776 CURVE SMOOTH",
"304 846 OFFCURVE",
"354 884 OFFCURVE",
"424 882 CURVE SMOOTH",
"500 882 OFFCURVE",
"586 838 OFFCURVE",
"642 776 CURVE",
"732 966 LINE",
"660 1032 OFFCURVE",
"542 1082 OFFCURVE",
"420 1082 CURVE SMOOTH",
"240 1082 OFFCURVE",
"84 974 OFFCURVE",
"84 780 CURVE SMOOTH",
"84 608 OFFCURVE",
"208 512 OFFCURVE",
"362 458 CURVE SMOOTH",
"488 414 OFFCURVE",
"544 380 OFFCURVE",
"544 306 CURVE SMOOTH",
"544 238 OFFCURVE",
"494 184 OFFCURVE",
"414 184 CURVE SMOOTH",
"320 184 OFFCURVE",
"212 256 OFFCURVE",
"140 340 CURVE",
"48 138 LINE",
"136 50 OFFCURVE",
"282 -16 OFFCURVE",
"420 -16 CURVE SMOOTH"
);
}
);
width = 812;
}
);
leftKerningGroup = LAT_S_LC;
rightKerningGroup = LAT_S_LC;
unicode = 0073;
userData = {
com.typemytype.robofont.layerData = {
background = {
anchors = (
);
components = (
);
contours = (
{
points = (
{
segmentType = curve;
smooth = 1;
x = 213;
y = -12;
},
{
smooth = 0;
x = 318;
y = -12;
},
{
smooth = 0;
x = 376;
y = 50;
},
{
segmentType = curve;
smooth = 1;
x = 376;
y = 120;
},
{
smooth = 0;
x = 376;
y = 214;
},
{
smooth = 0;
x = 288;
y = 237;
},
{
segmentType = curve;
smooth = 1;
x = 208;
y = 266;
},
{
smooth = 0;
x = 147;
y = 288;
},
{
smooth = 0;
x = 85;
y = 310;
},
{
segmentType = curve;
smooth = 1;
x = 85;
y = 368;
},
{
smooth = 0;
x = 85;
y = 415;
},
{
smooth = 0;
x = 124;
y = 462;
},
{
segmentType = curve;
smooth = 1;
x = 208;
y = 462;
},
{
smooth = 0;
x = 253;
y = 462;
},
{
smooth = 0;
x = 284;
y = 448;
},
{
segmentType = curve;
smooth = 1;
x = 314;
y = 429;
},
{
smooth = 0;
x = 325;
y = 422;
},
{
smooth = 0;
x = 336;
y = 423;
},
{
segmentType = curve;
smooth = 1;
x = 343;
y = 434;
},
{
segmentType = line;
smooth = 1;
x = 346;
y = 439;
},
{
smooth = 0;
x = 347;
y = 441;
},
{
smooth = 0;
x = 347;
y = 443;
},
{
segmentType = curve;
smooth = 1;
x = 345;
y = 444;
},
{
smooth = 0;
x = 311;
y = 468;
},
{
smooth = 0;
x = 257;
y = 490;
},
{
segmentType = curve;
smooth = 1;
x = 211;
y = 490;
},
{
smooth = 0;
x = 108;
y = 490;
},
{
smooth = 0;
x = 54;
y = 432;
},
{
segmentType = curve;
smooth = 1;
x = 54;
y = 366;
},
{
smooth = 0;
x = 54;
y = 284;
},
{
smooth = 0;
x = 141;
y = 256;
},
{
segmentType = curve;
smooth = 1;
x = 218;
y = 230;
},
{
smooth = 0;
x = 277;
y = 210;
},
{
smooth = 0;
x = 344;
y = 182;
},
{
segmentType = curve;
smooth = 1;
x = 344;
y = 118;
},
{
smooth = 0;
x = 344;
y = 64;
},
{
smooth = 0;
x = 300;
y = 16;
},
{
segmentType = curve;
smooth = 1;
x = 215;
y = 16;
},
{
smooth = 0;
x = 148;
y = 16;
},
{
smooth = 0;
x = 105;
y = 37;
},
{
segmentType = curve;
smooth = 1;
x = 66;
y = 65;
},
{
smooth = 0;
x = 55;
y = 73;
},
{
smooth = 0;
x = 45;
y = 74;
},
{
segmentType = curve;
smooth = 1;
x = 37;
y = 63;
},
{
segmentType = line;
smooth = 1;
x = 33;
y = 57;
},
{
smooth = 0;
x = 32;
y = 55;
},
{
smooth = 0;
x = 32;
y = 53;
},
{
segmentType = curve;
smooth = 1;
x = 34;
y = 51;
},
{
smooth = 0;
x = 73;
y = 12;
},
{
smooth = 0;
x = 139;
y = -12;
}
);
}
);
lib = {
};
name = s;
unicodes = (
);
width = 439;
};
};
};
},
{
glyphname = s.001;
layers = (
{
anchors = (
{
name = bottom;
position = "{384, 0}";
},
{
name = cedilla;
position = "{392, 0}";
},
{
name = top;
position = "{378, 1048}";
}
);
layerId = "AB099EFE-E788-4EFC-8633-CF147CB782A6";
paths = (
{
closed = 1;
nodes = (
"542 -16 OFFCURVE",
"672 96 OFFCURVE",
"672 272 CURVE SMOOTH",
"672 480 OFFCURVE",
"500 536 OFFCURVE",
"390 578 CURVE SMOOTH",
"300 612 OFFCURVE",
"188 658 OFFCURVE",
"184 804 CURVE SMOOTH",
"182 934 OFFCURVE",
"262 1008 OFFCURVE",
"368 1008 CURVE SMOOTH",
"466 1008 OFFCURVE",
"548 944 OFFCURVE",
"584 862 CURVE",
"640 884 LINE",
"592 994 OFFCURVE",
"490 1064 OFFCURVE",
"370 1064 CURVE SMOOTH",
"232 1064 OFFCURVE",
"124 960 OFFCURVE",
"124 814 CURVE SMOOTH",
"124 640 OFFCURVE",
"276 554 OFFCURVE",
"376 522 CURVE SMOOTH",
"456 496 OFFCURVE",
"612 442 OFFCURVE",
"612 272 CURVE SMOOTH",
"612 138 OFFCURVE",
"510 40 OFFCURVE",
"396 40 CURVE SMOOTH",
"282 40 OFFCURVE",
"192 128 OFFCURVE",
"156 232 CURVE",
"96 208 LINE",
"136 94 OFFCURVE",
"244 -16 OFFCURVE",
"396 -16 CURVE SMOOTH"
);
}
);
width = 768;
},
{
anchors = (
{
name = bottom;
position = "{460, 0}";
},
{
name = cedilla;
position = "{478, 0}";
},
{
name = top;
position = "{460, 1080}";
}
);
layerId = "2D8F7115-C311-411E-929D-56333CF7FFB2";
paths = (
{
closed = 1;
nodes = (
"692 -16 OFFCURVE",
"876 126 OFFCURVE",
"876 334 CURVE SMOOTH",
"876 556 OFFCURVE",
"666 624 OFFCURVE",
"574 648 CURVE SMOOTH",
"498 668 OFFCURVE",
"374 692 OFFCURVE",
"374 758 CURVE SMOOTH",
"374 794 OFFCURVE",
"412 828 OFFCURVE",
"462 828 CURVE SMOOTH",
"522 828 OFFCURVE",
"566 786 OFFCURVE",
"592 742 CURVE",
"858 860 LINE",
"794 1012 OFFCURVE",
"630 1096 OFFCURVE",
"450 1096 CURVE SMOOTH",
"222 1096 OFFCURVE",
"66 958 OFFCURVE",
"66 764 CURVE SMOOTH",
"66 600 OFFCURVE",
"172 494 OFFCURVE",
"354 438 CURVE SMOOTH",
"446 410 OFFCURVE",
"566 390 OFFCURVE",
"566 324 CURVE SMOOTH",
"566 288 OFFCURVE",
"530 254 OFFCURVE",
"474 254 CURVE SMOOTH",
"384 254 OFFCURVE",
"326 324 OFFCURVE",
"292 376 CURVE",
"24 258 LINE",
"102 78 OFFCURVE",
"286 -16 OFFCURVE",
"470 -16 CURVE SMOOTH"
);
}
);
width = 910;
},
{
anchors = (
{
name = bottom;
position = "{402, 0}";
},
{
name = cedilla;
position = "{414, 0}";
},
{
name = top;
position = "{396, 1060}";
}
);
layerId = "FD1CEFBD-BAB1-4C2A-A598-30E93F9A29F6";
paths = (
{
closed = 1;
nodes = (
"580 -16 OFFCURVE",
"736 116 OFFCURVE",
"736 300 CURVE SMOOTH",
"736 502 OFFCURVE",
"552 576 OFFCURVE",
"450 610 CURVE SMOOTH",
"356 642 OFFCURVE",
"256 674 OFFCURVE",
"256 786 CURVE SMOOTH",
"256 872 OFFCURVE",
"326 920 OFFCURVE",
"398 920 CURVE SMOOTH",
"480 920 OFFCURVE",
"532 860 OFFCURVE",
"560 798 CURVE",
"708 864 LINE",
"664 966 OFFCURVE",
"554 1076 OFFCURVE",
"396 1076 CURVE SMOOTH",
"236 1076 OFFCURVE",
"90 972 OFFCURVE",
"90 786 CURVE SMOOTH",
"90 598 OFFCURVE",
"238 528 OFFCURVE",
"348 488 CURVE SMOOTH",
"448 452 OFFCURVE",
"574 406 OFFCURVE",
"574 294 CURVE SMOOTH",
"574 202 OFFCURVE",
"490 144 OFFCURVE",
"408 144 CURVE SMOOTH",
"318 144 OFFCURVE",
"244 214 OFFCURVE",
"214 294 CURVE",
"64 230 LINE",
"106 106 OFFCURVE",
"246 -16 OFFCURVE",
"408 -16 CURVE SMOOTH"
);
}
);
width = 812;
}
);
leftKerningGroup = LAT_S_LC;
rightKerningGroup = LAT_S_LC;
userData = {
com.typemytype.robofont.layerData = {
background = {
anchors = (
);
components = (
);
contours = (
{
points = (
{
segmentType = curve;
smooth = 1;
x = 213;
y = -12;
},
{
smooth = 0;
x = 318;
y = -12;
},
{
smooth = 0;
x = 376;
y = 50;
},
{
segmentType = curve;
smooth = 1;
x = 376;
y = 120;
},
{
smooth = 0;
x = 376;
y = 214;
},
{
smooth = 0;
x = 288;
y = 237;
},
{
segmentType = curve;
smooth = 1;
x = 208;
y = 266;
},
{
smooth = 0;
x = 147;
y = 288;
},
{
smooth = 0;
x = 85;
y = 310;
},
{
segmentType = curve;
smooth = 1;
x = 85;
y = 368;
},
{
smooth = 0;
x = 85;
y = 415;
},
{
smooth = 0;
x = 124;
y = 462;
},
{
segmentType = curve;
smooth = 1;
x = 208;
y = 462;
},
{
smooth = 0;
x = 253;
y = 462;
},
{
smooth = 0;
x = 284;
y = 448;
},
{
segmentType = curve;
smooth = 1;
x = 314;
y = 429;
},
{
smooth = 0;
x = 325;
y = 422;
},
{
smooth = 0;
x = 336;
y = 423;
},
{
segmentType = curve;
smooth = 1;
x = 343;
y = 434;
},
{
segmentType = line;
smooth = 1;
x = 346;
y = 439;
},
{
smooth = 0;
x = 347;
y = 441;
},
{
smooth = 0;
x = 347;
y = 443;
},
{
segmentType = curve;
smooth = 1;
x = 345;
y = 444;
},
{
smooth = 0;
x = 311;
y = 468;
},
{
smooth = 0;
x = 257;
y = 490;
},
{
segmentType = curve;
smooth = 1;
x = 211;
y = 490;
},
{
smooth = 0;
x = 108;
y = 490;
},
{
smooth = 0;
x = 54;
y = 432;
},
{
segmentType = curve;
smooth = 1;
x = 54;
y = 366;
},
{
smooth = 0;
x = 54;
y = 284;
},
{
smooth = 0;
x = 141;
y = 256;
},
{
segmentType = curve;
smooth = 1;
x = 218;
y = 230;
},
{
smooth = 0;
x = 277;
y = 210;
},
{
smooth = 0;
x = 344;
y = 182;
},
{
segmentType = curve;
smooth = 1;
x = 344;
y = 118;
},
{
smooth = 0;
x = 344;
y = 64;
},
{
smooth = 0;
x = 300;
y = 16;
},
{
segmentType = curve;
smooth = 1;
x = 215;
y = 16;
},
{
smooth = 0;
x = 148;
y = 16;
},
{
smooth = 0;
x = 105;
y = 37;
},
{
segmentType = curve;
smooth = 1;
x = 66;
y = 65;
},
{
smooth = 0;
x = 55;
y = 73;
},
{
smooth = 0;
x = 45;
y = 74;
},
{
segmentType = curve;
smooth = 1;
x = 37;
y = 63;
},
{
segmentType = line;
smooth = 1;
x = 33;
y = 57;
},
{
smooth = 0;
x = 32;
y = 55;
},
{
smooth = 0;
x = 32;
y = 53;
},
{
segmentType = curve;
smooth = 1;
x = 34;
y = 51;
},
{
smooth = 0;
x = 73;
y = 12;
},
{
smooth = 0;
x = 139;
y = -12;
}
);
}
);
lib = {
};
name = s;
unicodes = (
);
width = 439;
};
};
};
},
